<svg width="210" height="143" viewBox="0 0 210 143" fill="none" xmlns="http://www.w3.org/2000/svg">
<path fill-rule="evenodd" clip-rule="evenodd" d="M101.704 0.105172C121.906 -0.950861 142.227 5.94158 155.231 20.9737C168.61 36.44 172.681 57.3796 168.328 77.122C163.896 97.2252 151.582 115.446 132.451 124.296C113.399 133.11 90.8584 131.339 72.3294 121.533C54.8914 112.304 44.3432 94.8094 40.8848 75.837C37.6451 58.0644 43.5193 40.4542 54.9542 26.2155C66.5798 11.7393 82.8122 1.0927 101.704 0.105172Z" fill="white" fill-opacity="0.15"/>
<path d="M25.5994 142.555C25.3401 142.251 25.2102 141.946 25.2535 141.539C25.2968 141.031 25.5994 140.472 26.0318 140.116C26.767 139.507 27.675 139.1 28.929 138.694C27.9777 137.779 27.0264 136.661 25.9454 135.34C25.4698 134.73 25.0372 134.12 24.5616 133.511C23.8698 134.629 22.5293 135.645 20.5401 136.61C19.6752 137.017 17.5564 137.779 16.4753 136C16.2159 135.543 16.1294 135.035 16.2159 134.578C16.4753 133.46 17.7726 132.698 18.3348 132.444C19.9347 131.681 21.6644 131.631 23.3076 131.681C22.1833 129.852 21.1454 127.921 20.1941 125.838C19.8481 126.143 19.4591 126.498 19.1131 126.854C18.0321 127.87 16.951 128.937 15.524 129.293C14.1402 129.649 12.4538 128.988 12.1078 127.261C12.0213 126.752 12.0646 126.244 12.3673 125.787C12.8862 124.822 14.097 124.11 15.0483 123.907C16.0429 123.653 16.9942 123.907 17.9455 124.161C18.5078 124.314 19.0698 124.466 19.632 124.466C18.6807 122.179 17.8158 119.74 17.1239 117.149C14.9186 119.232 12.4105 121.519 9.47005 122.738C6.61606 123.907 4.41072 123.805 2.854 122.484C1.98914 121.722 1.427 120.655 1.34051 119.385C1.25403 118.216 1.25403 116.59 2.0324 115.675C3.63236 113.744 6.05391 112.728 8.6917 112.83C10.5079 112.931 12.3241 113.49 14.0537 114.049C14.8753 114.303 15.7402 114.557 16.5618 114.811C16.2591 113.694 15.9996 112.525 15.7834 111.356C15.5672 110.238 15.351 109.069 15.1348 107.952V107.85C12.4105 109.527 10.1187 110.137 7.99982 109.781C5.96744 109.476 3.54587 108.104 3.07021 105.868C2.854 104.852 3.28641 103.988 4.41072 103.175C5.36204 102.515 6.39986 101.905 7.61065 101.905C8.95116 101.905 10.2484 102.515 11.07 103.023C12.0213 103.582 12.9727 104.191 13.924 104.75C14.1402 104.903 14.3997 105.055 14.6159 105.208C14.097 102.667 13.4916 99.7199 12.5835 96.976C11.0268 98.5004 9.16737 99.4149 7.17822 99.669C5.9242 99.8216 2.98372 99.9232 2.46482 97.6874C2.2486 96.8236 2.76751 96.2139 3.32967 95.7056C4.10803 94.9942 4.92961 94.3337 5.96742 94.1304C8.04305 93.6731 10.3349 94.4861 11.8916 95.1468C11.1133 93.1142 10.2484 91.3865 9.25385 89.9129C8.9079 91.0308 8.04307 91.9963 6.65931 92.8093C5.88095 93.2666 3.97828 94.1812 2.76751 92.7077C2.46482 92.3012 2.33509 91.8946 2.37833 91.4881C2.50805 90.7259 3.19994 90.167 3.76208 89.8621C4.36748 89.5064 5.01612 89.4048 5.70799 89.2524C5.83771 89.2524 5.92419 89.2016 6.05391 89.2016L8.389 88.7442C7.82685 88.1345 7.26471 87.5247 6.7458 86.9658L6.61606 86.8133H6.57284C4.28099 85.9495 2.55129 84.73 1.29727 83.1548C0.691876 82.3926 0.25946 81.4271 0.0864898 80.5125C0.0432476 80.2076 0 79.9535 0 79.6995C0 78.9373 0.259459 78.2259 0.735123 77.7178C1.21079 77.2096 1.68645 76.9556 2.20536 77.0064C3.19994 77.108 4.10803 78.2767 4.62694 79.2422C5.70799 81.0206 6.39986 83.3072 6.87553 86.1019C6.87553 86.1528 6.91876 86.2036 6.91876 86.2544C7.48091 86.8133 8.04305 87.4231 8.60521 88.0837C8.43223 86.6609 8.25927 84.6284 8.86467 82.9007C9.12412 82.1385 9.68628 81.1223 10.4646 80.7666C10.8971 80.5633 11.2862 80.5633 11.7187 80.7666C12.7132 81.2747 13.4051 82.8499 12.8862 84.6792C12.4105 86.356 11.1565 87.4231 9.98897 88.4394C9.81599 88.5918 9.64303 88.7442 9.47005 88.8967C9.5133 88.9475 9.5133 88.9983 9.5133 89.0491C11.0268 90.7259 12.1078 92.0979 13.0159 93.4699C12.7565 91.2849 13.0159 89.0999 13.751 87.1182C14.1835 85.9495 14.7889 84.8824 15.524 83.9678C16.1726 83.1548 16.951 82.3418 17.8591 82.4942C18.5078 82.6466 19.0265 83.0531 19.3294 83.7137C19.9347 84.9841 19.805 87.0166 19.3725 88.3885C18.3348 91.4373 15.9564 93.419 13.9673 95.0451C14.7456 96.5186 15.3078 98.2464 15.8699 100.533C16.0861 101.447 16.3024 102.413 16.5186 103.429C16.778 101.244 17.3834 98.8052 18.3779 96.2139C18.8104 95.0451 19.5024 94.0796 20.4104 93.0125L20.4537 92.9617C21.1454 92.1487 21.9239 91.2341 22.9183 91.0308C23.7399 90.8784 24.5616 91.1324 25.2102 91.793C25.9021 92.5044 26.2914 93.5715 26.2914 94.6385C26.2048 97.1284 24.5185 99.669 23.0913 101.397C21.3184 103.48 19.1564 105.157 17.2537 106.58L17.3401 106.986C17.5131 107.799 17.6861 108.612 17.8591 109.425C18.2049 111 18.5509 112.677 18.8968 114.303C19.5024 112.271 20.2374 110.391 21.1023 108.663C21.9239 106.986 23.0049 105.614 24.5616 104.293C24.9075 103.988 25.2968 103.683 25.6427 103.328C26.6372 102.413 27.7183 101.498 28.7993 100.736C29.9236 99.9232 31.1778 99.5675 32.7344 99.669C34.075 99.7706 35.0694 100.685 35.4154 102.108C35.718 103.378 35.4587 104.801 34.6803 106.427C33.0804 109.73 30.0533 112.22 27.8047 113.744C26.5075 114.608 25.0805 115.167 23.3509 115.472C22.6157 115.624 21.8373 115.523 21.1023 115.472C20.4537 115.421 19.805 115.37 19.1564 115.421C19.4158 116.59 19.7184 117.657 19.978 118.622C20.4537 120.401 21.0157 122.433 21.6644 124.466C22.8319 122.179 24.0428 120.35 25.3401 118.876C26.0318 118.114 27.113 117.301 28.1507 117.352C28.7129 117.352 29.1886 117.657 29.5777 118.165C29.8372 118.521 29.9669 118.927 29.9236 119.385C29.8372 120.604 28.4967 121.722 27.8047 122.382C26.0318 123.958 23.8698 124.872 22.0103 125.584C22.3563 126.6 22.6589 127.515 22.9616 128.328C23.3509 129.344 23.8265 130.36 24.3886 131.427C24.8642 129.395 25.7291 127.616 26.94 126.143C27.7183 125.177 29.3616 123.246 30.8749 124.364C31.0912 124.517 31.3075 124.771 31.4372 124.974C31.5236 124.974 31.5668 125.025 31.6101 125.076C31.6534 125.177 31.6534 125.279 31.6534 125.381C31.9561 126.244 31.7398 127.718 30.5722 128.887C28.756 130.716 27.0697 132.088 25.4698 133.053C26.6372 134.832 27.9777 136.559 29.2319 138.084C29.2319 138.084 29.2319 138.135 29.275 138.135C29.4047 138.236 29.5345 138.389 29.6642 138.49C29.6642 138.338 29.6209 138.135 29.6209 137.982C29.4913 136.559 29.3616 135.137 30.0102 133.917C30.529 132.952 31.6534 131.529 32.8208 132.037C33.1668 132.189 33.4263 132.444 33.5127 132.799C33.6857 133.409 33.5127 134.273 32.9938 135.391C32.3885 136.661 31.6534 138.084 30.5722 139.303C32.1722 140.675 33.556 141.183 34.8966 140.98C35.0696 140.929 35.1993 141.082 35.1993 141.285C35.1993 141.438 35.156 141.641 34.9397 141.692C33.556 141.895 32.0858 141.387 30.5291 140.116C30.4858 140.065 30.4426 140.065 30.3993 140.015C30.3993 140.015 30.3993 140.015 30.3562 140.015C29.9669 141.031 29.275 141.793 28.0643 142.606C26.8967 143.114 26.1184 143.165 25.5994 142.555ZM22.1833 127.921C19.805 121.316 18.2915 114.252 16.8212 107.443L16.605 106.478C16.1726 104.547 15.697 102.21 15.1348 99.9232C14.5294 97.3317 13.5348 95.0958 12.1511 93.165C11.8051 92.7077 11.4592 92.1995 11.0268 91.6914C11.8916 93.3682 12.67 95.2482 13.3186 97.3317C14.3564 100.584 14.9618 104.09 15.6105 107.393C15.7834 108.307 15.9564 109.324 16.1294 110.238C17.0807 115.167 18.2915 119.435 19.805 123.246C20.6698 125.431 21.6644 127.515 22.7022 129.395C22.5725 128.887 22.3563 128.429 22.1833 127.921Z" fill="white" fill-opacity="0.5"/>
<path d="M184.241 142.555C184.494 142.251 184.621 141.946 184.579 141.539C184.536 141.031 184.241 140.472 183.819 140.116C183.101 139.507 182.215 139.1 180.991 138.694C181.919 137.779 182.848 136.661 183.903 135.34C184.368 134.73 184.79 134.12 185.254 133.511C185.929 134.629 187.238 135.645 189.18 136.61C190.024 137.017 192.092 137.779 193.148 136C193.401 135.543 193.486 135.035 193.401 134.578C193.148 133.46 191.881 132.698 191.333 132.444C189.771 131.681 188.082 131.631 186.478 131.681C187.576 129.852 188.589 127.921 189.517 125.838C189.855 126.143 190.235 126.498 190.573 126.854C191.628 127.87 192.683 128.937 194.076 129.293C195.427 129.649 197.074 128.988 197.411 127.261C197.496 126.752 197.454 126.244 197.158 125.787C196.651 124.822 195.469 124.11 194.541 123.907C193.57 123.653 192.641 123.907 191.713 124.161C191.164 124.314 190.615 124.466 190.066 124.466C190.995 122.179 191.839 119.74 192.515 117.149C194.667 119.232 197.116 121.519 199.986 122.738C202.772 123.907 204.925 123.805 206.445 122.484C207.289 121.722 207.838 120.655 207.922 119.385C208.007 118.216 208.007 116.59 207.247 115.675C205.685 113.744 203.321 112.728 200.746 112.83C198.973 112.931 197.2 113.49 195.512 114.049C194.71 114.303 193.865 114.557 193.063 114.811C193.359 113.694 193.612 112.525 193.823 111.356C194.034 110.238 194.245 109.069 194.456 107.952V107.85C197.116 109.527 199.353 110.137 201.422 109.781C203.405 109.476 205.769 108.104 206.234 105.868C206.445 104.852 206.023 103.988 204.925 103.175C203.996 102.515 202.983 101.905 201.801 101.905C200.493 101.905 199.226 102.515 198.424 103.023C197.496 103.582 196.567 104.191 195.638 104.75C195.427 104.903 195.174 105.055 194.963 105.208C195.469 102.667 196.06 99.7199 196.947 96.976C198.467 98.5004 200.282 99.4149 202.223 99.669C203.448 99.8216 206.318 99.9232 206.825 97.6874C207.036 96.8236 206.529 96.2139 205.98 95.7056C205.221 94.9942 204.419 94.3337 203.405 94.1304C201.379 93.6731 199.142 94.4861 197.622 95.1468C198.382 93.1142 199.226 91.3865 200.197 89.9129C200.535 91.0308 201.379 91.9963 202.73 92.8093C203.49 93.2666 205.347 94.1812 206.529 92.7077C206.825 92.3012 206.951 91.8946 206.909 91.4881C206.783 90.7259 206.107 90.167 205.558 89.8621C204.967 89.5064 204.334 89.4048 203.659 89.2524C203.532 89.2524 203.448 89.2016 203.321 89.2016L201.042 88.7442C201.59 88.1345 202.139 87.5247 202.646 86.9658L202.772 86.8133H202.815C205.052 85.9495 206.74 84.73 207.964 83.1548C208.555 82.3926 208.978 81.4271 209.146 80.5125C209.188 80.2076 209.231 79.9535 209.231 79.6995C209.231 78.9373 208.978 78.2259 208.513 77.7178C208.049 77.2096 207.585 76.9556 207.078 77.0064C206.107 77.108 205.221 78.2767 204.714 79.2422C203.659 81.0206 202.983 83.3072 202.519 86.1019C202.519 86.1528 202.477 86.2036 202.477 86.2544C201.928 86.8133 201.379 87.4231 200.83 88.0837C200.999 86.6609 201.168 84.6284 200.577 82.9007C200.324 82.1385 199.775 81.1223 199.015 80.7666C198.593 80.5633 198.213 80.5633 197.791 80.7666C196.82 81.2747 196.145 82.8499 196.651 84.6792C197.116 86.356 198.34 87.4231 199.48 88.4394C199.649 88.5918 199.817 88.7442 199.986 88.8967C199.944 88.9475 199.944 88.9983 199.944 89.0491C198.467 90.7259 197.411 92.0979 196.525 93.4699C196.778 91.2849 196.525 89.0999 195.807 87.1182C195.385 85.9495 194.794 84.8824 194.076 83.9678C193.443 83.1548 192.683 82.3418 191.797 82.4942C191.164 82.6466 190.657 83.0531 190.362 83.7137C189.771 84.9841 189.897 87.0166 190.32 88.3885C191.333 91.4373 193.654 93.419 195.596 95.0451C194.836 96.5186 194.288 98.2464 193.739 100.533C193.528 101.447 193.317 102.413 193.106 103.429C192.852 101.244 192.261 98.8052 191.29 96.2139C190.868 95.0451 190.193 94.0796 189.306 93.0125L189.264 92.9617C188.589 92.1487 187.829 91.2341 186.858 91.0308C186.056 90.8784 185.254 91.1324 184.621 91.793C183.945 92.5044 183.566 93.5715 183.566 94.6385C183.65 97.1284 185.296 99.669 186.689 101.397C188.42 103.48 190.531 105.157 192.388 106.58L192.303 106.986C192.135 107.799 191.966 108.612 191.797 109.425C191.459 111 191.122 112.677 190.784 114.303C190.193 112.271 189.475 110.391 188.631 108.663C187.829 106.986 186.774 105.614 185.254 104.293C184.916 103.988 184.536 103.683 184.199 103.328C183.228 102.413 182.172 101.498 181.117 100.736C180.02 99.9232 178.795 99.5675 177.276 99.669C175.967 99.7706 174.996 100.685 174.659 102.108C174.363 103.378 174.616 104.801 175.376 106.427C176.938 109.73 179.893 112.22 182.088 113.744C183.354 114.608 184.747 115.167 186.436 115.472C187.154 115.624 187.913 115.523 188.631 115.472C189.264 115.421 189.897 115.37 190.531 115.421C190.277 116.59 189.982 117.657 189.729 118.622C189.264 120.401 188.715 122.433 188.082 124.466C186.943 122.179 185.761 120.35 184.494 118.876C183.819 118.114 182.763 117.301 181.75 117.352C181.202 117.352 180.737 117.657 180.357 118.165C180.104 118.521 179.977 118.927 180.02 119.385C180.104 120.604 181.413 121.722 182.088 122.382C183.819 123.958 185.929 124.872 187.745 125.584C187.407 126.6 187.111 127.515 186.816 128.328C186.436 129.344 185.972 130.36 185.423 131.427C184.959 129.395 184.114 127.616 182.932 126.143C182.172 125.177 180.568 123.246 179.091 124.364C178.88 124.517 178.669 124.771 178.542 124.974C178.458 124.974 178.416 125.025 178.373 125.076C178.331 125.177 178.331 125.279 178.331 125.381C178.036 126.244 178.247 127.718 179.386 128.887C181.159 130.716 182.806 132.088 184.368 133.053C183.228 134.832 181.919 136.559 180.695 138.084C180.695 138.084 180.695 138.135 180.653 138.135C180.526 138.236 180.4 138.389 180.273 138.49C180.273 138.338 180.315 138.135 180.315 137.982C180.442 136.559 180.568 135.137 179.935 133.917C179.429 132.952 178.331 131.529 177.191 132.037C176.854 132.189 176.6 132.444 176.516 132.799C176.347 133.409 176.516 134.273 177.023 135.391C177.614 136.661 178.331 138.084 179.386 139.303C177.825 140.675 176.474 141.183 175.165 140.98C174.996 140.929 174.87 141.082 174.87 141.285C174.87 141.438 174.912 141.641 175.123 141.692C176.474 141.895 177.909 141.387 179.429 140.116C179.471 140.065 179.513 140.065 179.555 140.015C179.555 140.015 179.555 140.015 179.597 140.015C179.977 141.031 180.653 141.793 181.835 142.606C182.975 143.114 183.734 143.165 184.241 142.555ZM187.576 127.921C189.897 121.316 191.375 114.252 192.81 107.443L193.021 106.478C193.443 104.547 193.908 102.21 194.456 99.9232C195.047 97.3317 196.018 95.0958 197.369 93.165C197.707 92.7077 198.044 92.1995 198.467 91.6914C197.622 93.3682 196.862 95.2482 196.229 97.3317C195.216 100.584 194.625 104.09 193.992 107.393C193.823 108.307 193.654 109.324 193.486 110.238C192.557 115.167 191.375 119.435 189.897 123.246C189.053 125.431 188.082 127.515 187.069 129.395C187.196 128.887 187.407 128.429 187.576 127.921Z" fill="white" fill-opacity="0.5"/>
</svg>
