<svg width="297" height="217" viewBox="0 0 297 217" fill="none" xmlns="http://www.w3.org/2000/svg">
<path d="M2 215C33.2162 209.82 64.5735 205.024 95.4444 198C112.634 194.089 128.763 189.737 145.222 183.556C158.201 178.682 174.52 172.574 184.556 162.389C202.371 144.307 194.719 109.039 187.556 88.1111C179.76 65.3373 162.053 44.6246 144.556 28.5556C136.522 21.1779 131.021 17.213 121.833 11.5556C119.616 10.1901 107.328 1.65079 102.889 3.11111C98.0829 4.69204 101.655 28.4676 102.111 30.9444C108.337 64.7217 122.828 97.9557 138.889 128.111C146.944 143.235 160.128 159.43 163.722 176.556C165.388 184.493 154.63 184.387 149.5 184.611C121.523 185.834 93.3161 180.588 65.5556 177.889C59.9057 177.34 53.9407 175.094 48.5556 176.889C47.8559 177.122 49.6011 177.985 50.2778 178.278C55.8166 180.678 69.0982 184.395 73.3889 185.556C99.2804 192.56 126.922 198.521 153.778 193.556C172.436 190.106 195.82 182.175 204.556 163.667C208.071 156.219 209.168 145.627 204.444 138.333C199.686 130.987 186.757 144.199 183.944 147.056C173.857 157.301 161.953 174.689 167.222 190C178.533 222.868 218.94 187.795 229.444 173.5C232.763 168.983 233.871 166.719 235.944 162C236.508 160.719 236.702 157.326 237.778 158.222C238.417 158.755 238.328 159.795 238.667 160.556C240.642 164.986 243.607 168.671 247 172.111C247.214 172.328 255.526 181.135 257 178.333C259.457 173.664 258.889 165.522 258.889 160.389C258.889 156.331 255.087 171.445 254.889 172.667C254.445 175.399 252.588 184.274 255.444 186.722C256.469 187.601 265.33 175.703 268 176C271.777 176.42 277.409 183.69 280.5 185.722C282.273 186.888 290.383 192.49 293 190.556C294.274 189.614 294.093 186.448 293.944 185.111C293.337 179.642 249.147 178.087 246.778 177.889C193.981 173.483 140.709 173.832 88 179" stroke="white" stroke-width="4" stroke-linecap="round" stroke-linejoin="round"/>
</svg>
