<svg width="100" height="100" viewBox="0 0 100 100" fill="none" xmlns="http://www.w3.org/2000/svg">
<circle cx="50" cy="50" r="50" fill="url(#paint0_linear)"/>
<path fill-rule="evenodd" clip-rule="evenodd" d="M50.3783 19.4015C48.6258 19.6701 45.7533 20.2297 43.9953 20.6452C39.2076 21.7762 39.3927 21.3367 39.3927 31.5712C39.3927 42.2811 39.9186 45.3058 42.787 51.0976C45.1507 55.8699 48.2413 59.4492 53.0398 62.9733C56.7434 65.6927 57.8012 66.1769 60.0383 66.1755C62.3373 66.1741 63.702 65.5329 67.5827 62.63C73.7169 58.0418 77.9314 51.881 79.8087 44.7593C80.6097 41.7215 81.115 34.684 80.9775 28.4817C80.8613 23.2365 80.8389 23.0995 79.9403 22.1956C78.9941 21.2431 77.5773 20.8057 71.9358 19.724C67.8119 18.9331 54.7117 18.7374 50.3783 19.4015ZM55.0578 33.8336C57.094 34.7875 57.6147 35.553 56.791 36.3819C56.2993 36.8763 56.0705 36.8401 54.3999 36.0024C52.0922 34.8453 50.4888 34.8315 48.292 35.9506L46.5746 36.8256L45.8705 36.1066C45.1668 35.3875 45.1668 35.3872 45.8663 34.841C48.481 32.8001 52.0229 32.4117 55.0578 33.8336ZM72.5541 33.8336C74.5903 34.7875 75.111 35.553 74.2873 36.3819C73.7956 36.8763 73.5668 36.8401 71.8962 36.0024C69.5885 34.8453 67.9851 34.8315 65.7883 35.9506L64.0708 36.8256L63.3668 36.1066C62.6631 35.3875 62.6631 35.3872 63.3626 34.841C65.9772 32.8001 69.5192 32.4117 72.5541 33.8336ZM33.094 35.6178C28.8267 37.1725 21.7425 40.6247 20.8879 41.5663C20.5247 41.9666 20.1307 42.6163 20.0128 43.0093C19.7633 43.8424 23.2377 57.3189 24.5226 60.5007C27.7332 68.4516 34.5784 75.0659 42.942 78.2981C47.4728 80.0492 48.7123 80.2774 50.8283 79.7502C52.1933 79.4101 52.9684 78.8682 54.8933 76.9072C56.9736 74.7884 60.7381 69.6182 60.7381 68.8802C60.7381 68.7361 59.9725 68.5161 59.0365 68.3914C58.1008 68.2664 56.6038 67.7917 55.7101 67.3361L54.0847 66.5083L52.5289 68.7027C49.5279 72.9345 48.0257 73.0063 39.9529 69.3034C34.169 66.6505 32.8872 65.778 33.6494 65.011C33.8495 64.8096 36.4764 64.417 39.4865 64.1392C44.3245 63.6923 47.3965 63.1719 48.2353 62.6571C48.3833 62.5659 47.6187 61.5123 46.5361 60.3158C40.7231 53.8906 37.7351 46.8284 37.3845 38.6852C37.262 35.8432 37.0657 34.3777 36.8085 34.3893C36.594 34.3988 34.9224 34.9516 33.094 35.6178ZM53.5465 48.282C59.6639 49.3834 60.7424 49.3785 67.1257 48.2182C71.8535 47.3587 72.3606 47.3249 72.8652 47.8323C73.1693 48.1387 73.318 48.5528 73.1951 48.7528C72.8372 49.3355 63.5061 56.9653 62.5147 57.4861C61.107 58.2252 58.6519 58.0791 57.2085 57.1699C54.6613 55.5657 47.0911 49.0556 47.0911 48.4697C47.0911 47.1481 47.2268 47.1443 53.5465 48.282ZM52.3399 50.4025C52.3399 50.606 57.7995 55.0473 58.5389 55.4456C60.2101 56.3453 61.2385 55.9614 64.5537 53.2004C66.3044 51.7423 67.7367 50.493 67.7367 50.4243C67.7367 50.3553 66.5952 50.5183 65.1997 50.7859C63.8042 51.0535 61.4817 51.2729 60.0383 51.2729C58.5949 51.2729 56.272 51.0535 54.8769 50.7859C53.4817 50.5183 52.3399 50.3458 52.3399 50.4025ZM38.4143 51.2852C39.3143 51.7025 39.336 51.7708 38.8622 52.6934C38.3758 53.6395 38.3321 53.6512 37.0412 53.1878C36.3137 52.9268 35.4823 52.7071 35.1936 52.6994C33.9038 52.6663 31.8864 53.5318 30.6649 54.6424C29.1833 55.9893 28.9544 56.0541 28.0443 55.3843C27.4462 54.9445 27.476 54.8417 28.5541 53.6057C29.6795 52.3159 31.0106 51.4486 32.742 50.8775C33.9013 50.4947 37.2246 50.7338 38.4143 51.2852ZM48.1755 64.879C46.9437 65.3455 44.5237 65.8744 42.7978 66.054C41.072 66.234 39.5974 66.4438 39.5208 66.5209C39.3112 66.7315 46.6795 69.9365 47.3685 69.9344C48.3865 69.9312 49.8362 68.7791 51.0921 66.9759L52.2951 65.2484L51.4749 64.599C51.0239 64.2423 50.6012 63.968 50.535 63.9902C50.4692 64.0124 49.4076 64.4121 48.1755 64.879Z" fill="white"/>
<defs>
<linearGradient id="paint0_linear" x1="0" y1="50" x2="100" y2="50" gradientUnits="userSpaceOnUse">
<stop stop-color="#FF512F"/>
<stop offset="1" stop-color="#DD2476"/>
</linearGradient>
</defs>
</svg>
