<svg width="100" height="100" viewBox="0 0 100 100" fill="none" xmlns="http://www.w3.org/2000/svg">
<circle cx="50" cy="50" r="50" fill="url(#paint0_linear)"/>
<path fill-rule="evenodd" clip-rule="evenodd" d="M37.0519 17.7858C36.5148 18.207 35.6661 19.358 35.1661 20.3432C34.37 21.9103 32.7824 27.795 31.8379 32.6792C31.5306 34.2678 31.4969 34.2974 28.6377 35.4962C24.937 37.0476 23.1325 38.3069 22.3983 39.8514C21.8861 40.9283 21.8762 41.2363 22.3207 42.2844C22.9419 43.7496 23.6695 44.41 26.0389 45.6606C27.9949 46.6929 28.6362 47.688 28.0502 48.7809C27.5896 49.6398 27.5783 51.2233 28.0308 51.5022C28.2203 51.6194 28.4785 52.4914 28.6047 53.4402C28.8495 55.2851 28.9841 55.6964 30.1972 58.3086C30.627 59.234 30.9785 60.4974 30.9785 61.1161C30.9785 61.7345 31.1432 62.3423 31.3444 62.4664C31.5456 62.5905 31.7102 63.314 31.7102 64.074C31.7102 64.9924 31.9556 65.6776 32.4418 66.1167C32.8442 66.4799 33.1735 67.2151 33.1735 67.7503C33.1735 68.3329 33.5404 69.041 34.088 69.5163C34.591 69.9529 35.0026 70.6107 35.0026 70.9783C35.0026 71.3458 36.1713 72.702 37.5995 73.992C39.0277 75.2824 41.2043 77.3791 42.4364 78.6516C43.6684 79.9245 45.1255 81.1974 45.6742 81.4807C46.8913 82.1085 53.6824 82.1921 54.8724 81.5938C55.3117 81.373 56.906 79.9924 58.415 78.5261C63.3883 73.693 64.6796 72.5497 65.2978 72.4307C65.6337 72.3661 66.1407 71.8226 66.4246 71.2228C66.7081 70.6227 67.3267 69.6678 67.799 69.1002C68.2716 68.5329 68.6579 67.6904 68.6579 67.2286C68.6579 66.7665 68.888 66.1981 69.1697 65.9649C69.451 65.732 69.7736 64.9315 69.8867 64.1864C70.0001 63.441 70.2712 61.8458 70.4896 60.6412C70.7079 59.4366 70.9201 57.9546 70.9611 57.3479C71.0021 56.7412 71.4059 55.7746 71.8588 55.1996C72.8315 53.9647 72.8476 53.8063 72.1394 52.4396C71.67 51.5343 71.6657 51.2277 72.1072 50.1738C72.5356 49.1503 72.5392 48.7696 72.1295 47.7971C71.6558 46.6732 71.673 46.6279 72.706 46.2687C74.6335 45.5981 77.1277 43.6229 77.664 42.342C78.1125 41.2707 78.1121 40.9666 77.6622 40.1033C76.6704 38.2007 74.6614 36.8669 70.3838 35.2699L68.4179 34.5358L67.9709 31.6224C67.0044 25.323 64.2403 19.8139 61.2684 18.2647C59.2838 17.2302 57.1448 17.8026 53.3806 20.3754C50.1347 22.594 48.7156 22.4593 45.3289 19.6095C42.2055 16.9816 38.9812 16.2713 37.0519 17.7858ZM52.3907 43.3386C52.5293 43.7744 53.329 44.4118 54.2443 44.8159C55.1299 45.2068 55.8542 45.6704 55.8542 45.8464C55.8542 46.0223 55.4412 46.656 54.9364 47.2547L54.0186 48.3432L45.6826 48.4691C38.4555 48.5783 37.2154 48.6812 36.3575 49.2423C35.8136 49.5982 35.3684 49.7387 35.3684 49.5544C35.3684 48.7444 36.8898 44.4041 37.2523 44.1807C38.1563 43.6233 45.3004 42.6297 48.6048 42.6019C51.895 42.5742 52.1642 42.6264 52.3907 43.3386ZM59.2077 42.9841C60.979 43.2108 62.6961 43.5915 63.0236 43.8306C63.577 44.2347 65.4782 49.1521 65.1914 49.4379C65.1204 49.5088 64.6902 49.3682 64.2355 49.1255C63.7808 48.8824 61.6404 48.6002 59.4784 48.498L55.5484 48.3122L56.1191 47.1178C56.8482 45.5916 56.5797 44.9393 54.8899 44.1336C54.1415 43.7766 53.4625 43.2794 53.3809 43.0283C53.1922 42.4475 54.9133 42.4344 59.2077 42.9841ZM51.7468 53.8158C52.4064 55.7972 55.7383 59.4308 57.8154 60.4342C62.21 62.5569 66.3397 59.6666 66.5661 54.309C66.6576 52.1545 66.9115 51.9596 67.5678 53.5402C67.9252 54.4017 67.9431 55.5019 67.6479 58.4156C67.2297 62.5412 66.8076 63.5527 65.2817 64.0835C64.3314 64.4138 64.2681 64.5686 64.2659 66.554C64.2622 70.4274 63.2218 72.5004 60.1768 74.702C59.421 75.2481 58.2039 76.41 57.4726 77.2835C55.0033 80.2326 54.3416 80.5356 50.3669 80.5356C46.396 80.5356 45.7295 80.2315 43.273 77.2977C42.5479 76.4315 41.1542 75.132 40.1756 74.4096C37.3727 72.3402 36.6718 71.0531 36.5185 67.6948C36.3971 65.0271 36.3349 64.8391 35.5762 64.8391C34.2025 64.8391 33.0571 63.2362 32.7652 60.9048C32.2256 56.597 32.3723 54.3743 33.2649 53.3398L34.088 52.386L34.1436 54.2381C34.2146 56.6094 35.5352 59.2924 37.1602 60.3671C38.7346 61.4081 40.8513 61.4326 42.9185 60.4342C44.7791 59.5352 48.4358 55.7176 48.7691 54.3261C49.4433 51.5088 50.8959 51.2595 51.7468 53.8158ZM43.0506 69.9229C43.0506 70.5187 44.9276 71.7594 46.4457 72.1675C48.3809 72.6873 53.1428 72.6716 55.1263 72.1387C57.0457 71.6229 58.415 70.7702 58.415 70.0901C58.415 69.6754 57.034 69.5846 50.7328 69.5846C46.2559 69.5846 43.0506 69.7258 43.0506 69.9229Z" fill="white"/>
<defs>
<linearGradient id="paint0_linear" x1="0" y1="50" x2="100" y2="50" gradientUnits="userSpaceOnUse">
<stop stop-color="#FF512F"/>
<stop offset="1" stop-color="#F09819"/>
</linearGradient>
</defs>
</svg>
