<svg width="100" height="100" viewBox="0 0 100 100" fill="none" xmlns="http://www.w3.org/2000/svg">
<circle cx="50" cy="50" r="50" fill="url(#paint0_linear)"/>
<path fill-rule="evenodd" clip-rule="evenodd" d="M21 50.5V80H50.5H80V50.5V21H50.5H21V50.5ZM52.9915 35.6715L49.5996 44.3803L38.281 44.4625L26.9628 44.5451V35.7538V26.9628H41.6729H56.3831L52.9915 35.6715ZM74.0372 35.75V44.5372H63.8378C58.2281 44.5372 53.6389 44.4312 53.6396 44.3019C53.6402 44.1726 55.123 40.2604 56.9348 35.6088C58.7465 30.9569 60.2287 27.1087 60.2287 27.0569C60.2287 27.0051 63.3356 26.9628 67.133 26.9628H74.0372V35.75ZM42.6543 55.3644V62.1117H34.8085H26.9628V55.3644V48.617H34.8085H42.6543V55.3644ZM74.0372 55.3644V62.1117H60.3856H46.734V55.3644V48.617H60.3856H74.0372V55.3644ZM74.0372 70.1144V74.0372H50.5H26.9628V70.1144V66.1915H50.5H74.0372V70.1144Z" fill="white"/>
<defs>
<linearGradient id="paint0_linear" x1="0" y1="50" x2="100" y2="50" gradientUnits="userSpaceOnUse">
<stop stop-color="#16222A"/>
<stop offset="1" stop-color="#3A6073"/>
</linearGradient>
</defs>
</svg>
