<svg width="100" height="100" viewBox="0 0 100 100" fill="none" xmlns="http://www.w3.org/2000/svg">
<circle cx="50" cy="50" r="50" fill="url(#paint0_linear)"/>
<path fill-rule="evenodd" clip-rule="evenodd" d="M48.6639 17.2338C47.1933 17.6146 44.9729 18.9155 44.9499 19.4096C44.9441 19.5371 44.7281 19.9213 44.4698 20.2634C44.0829 20.7765 43.8734 20.817 43.2728 20.4943C42.0994 19.8635 39.1 20.0182 37.5993 20.7874C35.9215 21.647 34.2627 23.5202 33.9625 24.8939C33.7891 25.6858 33.4255 26.0755 32.4956 26.4659C30.8402 27.1606 29.7667 28.201 29.0124 29.8424C28.3367 31.313 28.1817 33.8843 28.6884 35.223C28.9498 35.9132 28.8543 36.1958 28.136 36.8602C26.1867 38.6627 25.4764 42.03 26.5178 44.5333C27.4047 46.6656 27.6329 46.769 28.7152 45.5309C29.247 44.9226 30.2102 44.1392 30.8554 43.79C31.761 43.3004 32.0748 42.878 32.2302 41.9392C32.5677 39.9004 34.0095 37.2427 35.6443 35.647C38.7954 32.5711 42.766 31.3878 49.9683 31.3783C57.3805 31.3687 61.7953 32.6966 64.8302 35.849C66.3005 37.3757 67.8181 40.2384 68.1871 42.1803C68.3263 42.9131 68.7061 43.4578 69.2904 43.7631C69.7806 44.0195 70.5508 44.6261 71.002 45.1113C71.4536 45.5966 71.9422 45.9937 72.0881 45.9937C72.234 45.9937 72.7763 45.2691 73.2929 44.3833C75.057 41.3598 74.2289 37.1203 71.5318 35.3658C70.6307 34.7796 70.3565 34.3664 70.3473 33.5827C70.329 31.9764 69.2298 29.9668 67.5209 28.417C66.6018 27.5832 65.9498 26.6957 65.9498 26.2785C65.9498 25.2003 64.7524 23.0646 63.6034 22.0938C62.2009 20.9084 60.4259 20.3828 58.4648 20.5722C56.9096 20.7221 56.763 20.665 55.9454 19.5881C54.3367 17.4694 51.4084 16.5228 48.6639 17.2338ZM43.2681 34.5521C42.244 34.7939 40.8618 35.2294 40.1965 35.5198C37.3102 36.7796 35.0871 39.9521 34.6219 43.4748C34.4093 45.0831 34.3274 45.193 32.8968 45.7873C27.4085 48.0676 28.4115 56.4642 34.2516 57.1256C35.7848 57.299 35.8257 57.3367 37.1687 59.7941C39.013 63.1699 41.6282 65.7943 44.5155 67.168C46.6114 68.1653 47.1172 68.2656 50.0387 68.2656C52.9403 68.2656 53.4735 68.1615 55.4925 67.2006C58.3653 65.8334 61.1081 63.09 62.9233 59.7679C64.1711 57.484 64.4237 57.2147 65.3167 57.2147C66.7101 57.2147 68.7989 56.0681 69.6865 54.8161C71.8768 51.7269 70.7356 47.378 67.3303 45.8356C66.3455 45.3895 65.8821 44.9451 65.7541 44.3235C64.6451 38.933 62.8404 36.5844 58.6222 35.0414C56.9482 34.429 55.7454 34.3005 50.885 34.2144C47.0248 34.1458 44.5169 34.2569 43.2681 34.5521ZM43.7434 45.0777C44.1151 45.3507 44.3029 45.8421 44.2312 46.3528C44.1381 47.0155 43.916 47.1838 43.1357 47.1838C41.7734 47.1838 41.2358 46.2542 42.0652 45.3337C42.8063 44.5112 42.9434 44.4901 43.7434 45.0777ZM57.9617 45.0777C58.3335 45.3507 58.5213 45.8421 58.4496 46.3528C58.3565 47.0155 58.1344 47.1838 57.3541 47.1838C55.9918 47.1838 55.4542 46.2542 56.2836 45.3337C57.0247 44.5112 57.1618 44.4901 57.9617 45.0777ZM52.4084 46.9546C52.8739 47.2919 53.5371 48.1383 53.8821 48.8357C55.5202 52.1469 52.1681 55.7053 48.5431 54.5036C45.9289 53.6372 44.8443 49.8163 46.6534 47.8479C48.3823 45.9669 50.575 45.6265 52.4084 46.9546ZM49.0986 49.2434C48.1849 49.886 48.1324 50.7946 48.9652 51.5515C49.7699 52.2829 50.4758 52.2638 51.1711 51.4923C51.9034 50.6797 51.878 50.2213 51.0543 49.394C50.2391 48.5752 50.0668 48.562 49.0986 49.2434ZM26.5107 56.8308C23.2895 58.84 22.1338 62.4341 23.6782 65.6385C24.4233 67.1843 26.665 69.1157 27.7148 69.1157C28.2585 69.1157 31.9116 66.5175 34.7922 64.0819L35.9649 63.0904L35.1365 61.5221C34.5129 60.3412 34.0559 59.8995 33.2871 59.7329C31.74 59.398 30.0087 58.416 28.9017 57.2459C27.7317 56.0089 27.8072 56.0218 26.5107 56.8308ZM71.582 57.0457C71.3091 57.7597 68.415 59.5459 67.1418 59.786C66.3509 59.9349 65.8533 60.3688 65.1705 61.5041C64.6681 62.3396 64.2656 63.1315 64.2761 63.2641C64.294 63.4953 65.3167 64.3383 69.9164 67.912C71.9181 69.4673 72.0711 69.5268 73.0441 69.1218C75.7804 67.9834 77.6139 64.0547 76.8092 61.0536C76.0364 58.1701 72.259 55.2738 71.582 57.0457ZM47.4997 58.0736C49.3349 59.2089 51.1393 59.1838 52.8414 57.9991C54.335 56.9593 55.2118 57.1786 55.3875 58.636C55.6262 60.6184 50.8793 62.3032 47.8677 61.3049C45.2952 60.4521 43.828 58.3932 45.2146 57.5819C45.9983 57.1235 45.9452 57.112 47.4997 58.0736ZM33.7634 68.5237C30.0307 71.5013 29.897 71.6536 29.9234 72.8903C29.9593 74.5527 31.3957 76.4637 33.2421 77.3059C34.8541 78.0411 36.6084 78.1441 37.0803 77.5314C37.4053 77.1097 41.2369 68.9732 41.2369 68.7053C41.2369 68.6281 40.4254 67.8616 39.4338 67.0017L37.6308 65.4383L33.7634 68.5237ZM60.606 67.0153L58.8172 68.6257L60.6446 72.5262C61.6501 74.6711 62.5851 76.7881 62.7229 77.2305C62.9541 77.9734 63.1132 78.0231 64.8035 77.8823C66.179 77.7677 66.9481 77.4787 67.8997 76.7184C69.1543 75.716 70.7898 73.0488 70.6121 72.2939C70.5396 71.9858 62.6741 65.3318 62.4514 65.39C62.4206 65.3981 61.5901 66.1295 60.606 67.0153ZM41.5639 74.4109L39.4013 79.053L40.6258 80.1799C42.5771 81.9762 44.9556 82.4414 47.3237 81.4897L48.6846 80.9429V76.1271V71.3112L46.738 70.7747C45.6676 70.4795 44.5518 70.1327 44.2589 70.0035C43.8358 69.8171 43.2816 70.7233 41.5639 74.4109ZM53.9318 70.7206C53.0009 71.0062 52.0489 71.2929 51.816 71.3575C51.5029 71.4442 51.3928 72.7213 51.3928 76.2631V81.0514L52.5669 81.5441C55.0328 82.5788 58.6023 81.7824 60.1064 79.8623L60.8112 78.9622L58.6297 74.549C57.4299 72.1219 56.263 70.1504 56.0365 70.1684C55.81 70.1861 54.8628 70.4346 53.9318 70.7206Z" fill="white"/>
<defs>
<linearGradient id="paint0_linear" x1="0" y1="50" x2="100" y2="50" gradientUnits="userSpaceOnUse">
<stop stop-color="#FF8008"/>
<stop offset="1" stop-color="#FFC837"/>
</linearGradient>
</defs>
</svg>
