<svg width="100" height="100" viewBox="0 0 100 100" fill="none" xmlns="http://www.w3.org/2000/svg">
<circle cx="50" cy="50" r="50" fill="url(#paint0_linear)"/>
<path fill-rule="evenodd" clip-rule="evenodd" d="M29.8235 19.3662C25.2475 20.2987 21.2265 23.8132 19.6505 28.2587C19.157 29.6517 19 35.0352 19 50.5942C19 70.3437 19.0385 71.1767 20.046 73.3442C21.605 76.6977 23.4705 78.6332 26.648 80.1937L29.5 81.5942H50.25C70.2535 81.5942 71.081 81.5567 73.25 80.5482C76.6035 78.9892 78.539 77.1237 80.0995 73.9462L81.5 71.0942V50.3442V29.5942L80.0995 26.7422C78.539 23.5647 76.6035 21.6992 73.25 20.1402C71.0995 19.1402 70.138 19.0902 51.5 19.0082C40.775 18.9612 31.0205 19.1222 29.8235 19.3662ZM71.65 27.4442C72.0235 27.8177 72.25 29.6662 72.25 32.3442C72.25 35.0222 72.0235 36.8707 71.65 37.2442C70.8395 38.0547 62.6605 38.0547 61.85 37.2442C60.906 36.3002 61.0545 28.6107 62.0355 27.6297C63.0165 26.6487 70.706 26.5002 71.65 27.4442ZM57.3375 36.9552C58.868 37.6562 61.0205 39.0427 62.1205 40.0367L64.121 41.8442H71.1855H78.25L78.247 55.4692C78.2455 63.9062 78.033 69.8552 77.6895 71.0927C76.9655 73.7012 73.607 77.0597 70.9985 77.7837C69.691 78.1467 62.3415 78.3357 49.75 78.3302C28.492 78.3212 28.199 78.2822 25.1515 75.0322C22.3995 72.0972 22.25 71.1097 22.25 55.8602V41.8442H29.413C36.4785 41.8442 36.592 41.8267 37.788 40.5467C42.3945 35.6152 50.9695 34.0402 57.3375 36.9552ZM44.9765 38.3672C41.947 39.5332 38.6875 42.6247 37.1575 45.7842C36.3355 47.4817 36.034 49.0217 36.0195 51.5942C35.9745 59.7027 42.0555 65.8442 50.13 65.8442C55.869 65.8442 60.4395 63.1042 62.977 58.1422C64.2355 55.6817 64.4685 54.6557 64.448 51.6567C64.419 47.2857 63.558 45.1652 60.4765 41.8707C56.477 37.5952 50.4965 36.2432 44.9765 38.3672Z" fill="white"/>
<defs>
<linearGradient id="paint0_linear" x1="0" y1="50" x2="100" y2="50" gradientUnits="userSpaceOnUse">
<stop stop-color="#6A3093"/>
<stop offset="1" stop-color="#A044FF"/>
</linearGradient>
</defs>
</svg>
