<svg width="100" height="100" viewBox="0 0 100 100" fill="none" xmlns="http://www.w3.org/2000/svg">
<circle cx="50" cy="50" r="50" fill="url(#paint0_linear)"/>
<path fill-rule="evenodd" clip-rule="evenodd" d="M55.7837 25.115C52.1749 31.3978 50.9649 33.2285 50.4255 33.2249C49.9026 33.2217 48.9876 31.9401 46.7582 28.0894C44.1277 23.5464 43.6706 22.9444 42.7685 22.8368C41.7665 22.7177 40.8443 23.468 40.8443 24.4025C40.8443 24.6246 42.0198 26.828 43.4566 29.2987C44.8935 31.7697 46.0694 33.8778 46.0697 33.984C46.0701 34.0901 45.6394 34.4368 45.1123 34.7538C44.3458 35.2153 42.0742 35.4197 33.7514 35.7761C28.0294 36.0213 22.934 36.3354 22.4281 36.4741C21.9218 36.6131 21.3233 37.1223 21.0982 37.6062C20.8533 38.1326 20.516 42.5092 20.2575 48.5164C19.9157 56.4548 19.9146 60.5858 20.2516 68.3191C20.6634 77.7662 20.9111 79.6902 21.7908 80.2697C22.0183 80.4199 22.9897 80.5449 23.9496 80.5481C25.3143 80.5525 25.7902 80.7113 26.1303 81.2757C26.6093 82.0709 28.2566 82.2612 28.8987 81.5957C29.4541 81.0201 71.7398 81.0143 72.2948 81.5895C72.9422 82.2605 74.5884 82.0741 75.0692 81.2757C75.4113 80.7077 75.8817 80.5535 77.2701 80.5535C80.0657 80.5535 80.2278 80.2925 80.6472 75.1157C81.1165 69.3223 81.1179 47.7469 80.6493 41.9664C80.3964 38.8462 80.1271 37.3375 79.755 36.9518C79.1721 36.3474 75.6681 36.0549 63.4829 35.5923C57.2467 35.3558 56.6021 35.2695 55.7384 34.5556L54.796 33.7767L58.9678 26.5619C61.2621 22.5938 63.14 19.0142 63.1411 18.6069C63.1432 17.5958 62.4885 17 61.3757 17C60.5329 17 60.0043 17.7666 55.7837 25.115ZM74.1717 39.6142L77.0137 39.8381L77.3032 44.3977C77.668 50.136 77.6617 67.0997 77.2931 72.666L77.014 76.875L75.3915 77.0783C71.7443 77.5351 39.0768 77.7366 31.8167 77.347C27.7138 77.1271 24.3049 76.8927 24.2412 76.827C24.1774 76.7609 23.9405 72.6299 23.7144 67.6471C23.3994 60.6978 23.3987 56.4205 23.713 49.2877C23.9381 44.1731 24.1715 39.9374 24.2318 39.8749C24.9021 39.1802 65.9433 38.9661 74.1717 39.6142ZM33.3733 42.3131C29.9349 42.5023 27.0654 42.7157 26.9964 42.7869C26.9278 42.8583 26.7177 46.4242 26.5302 50.7112C26.2045 58.1502 26.5536 73.446 27.0612 73.9721C28.0831 75.0309 63.7734 74.9644 64.7988 73.9017C65.1483 73.5395 65.312 49.0841 64.9876 45.7074L64.7103 42.8186L62.0972 42.581C57.161 42.1325 39.6196 41.9686 33.3733 42.3131ZM49.1469 52.3441C52.1233 54.5406 51.9651 59.8488 48.858 62.0472C47.5407 62.9788 46.199 63.076 44.5433 62.3588C41.839 61.1878 40.6889 56.908 42.3107 54.0503C43.8364 51.3615 46.8097 50.6195 49.1469 52.3441ZM69.9044 54.7349C69.3759 55.5712 69.3759 55.7041 69.9044 56.5404C70.2862 57.1445 70.7949 57.4432 71.4426 57.4432C72.653 57.4432 73.2463 56.8492 73.2463 55.6377C73.2463 54.4262 72.653 53.8322 71.4426 53.8322C70.7949 53.8322 70.2862 54.1308 69.9044 54.7349ZM69.9044 60.5125C69.3759 61.3488 69.3759 61.4817 69.9044 62.318C70.2862 62.9221 70.7949 63.2208 71.4426 63.2208C72.653 63.2208 73.2463 62.6268 73.2463 61.4153C73.2463 60.2038 72.653 59.6098 71.4426 59.6098C70.7949 59.6098 70.2862 59.9084 69.9044 60.5125ZM49.9029 65.4177C52.5121 66.6436 54.2382 68.8824 54.497 71.3762L54.6064 72.4288L50.5126 72.7523C48.0996 72.943 44.7381 72.943 42.325 72.7523L38.2312 72.4288L38.3406 71.3762C38.8604 66.3703 45.0935 63.1579 49.9029 65.4177ZM69.5368 67.1661C67.1189 68.6943 67.3624 72.4209 69.9539 73.5428C70.9716 73.9837 71.451 74.0086 72.4321 73.6732C73.6829 73.2452 74.9845 71.5441 74.987 70.3344C74.9894 69.2114 73.9721 67.5879 72.9094 67.0184C71.5656 66.298 70.8615 66.3291 69.5368 67.1661Z" fill="white"/>
<defs>
<linearGradient id="paint0_linear" x1="0" y1="50" x2="100" y2="50" gradientUnits="userSpaceOnUse">
<stop stop-color="#348F50"/>
<stop offset="1" stop-color="#56B4D3"/>
</linearGradient>
</defs>
</svg>
