<svg width="100" height="100" viewBox="0 0 100 100" fill="none" xmlns="http://www.w3.org/2000/svg">
<circle cx="50" cy="50" r="50" fill="url(#paint0_linear)"/>
<path fill-rule="evenodd" clip-rule="evenodd" d="M28.6604 22.5972C27.2184 25.4379 27.8518 28.5641 29.8691 28.5641C30.7636 28.5641 31.7138 27.1443 31.7138 25.8081C31.7138 24.5854 30.2819 21 29.7935 21C29.6162 21 29.1064 21.7186 28.6604 22.5972ZM70.1432 22.8664C69.1953 25.0816 69.1294 26.5747 69.9302 27.7234C71.1491 29.4726 73.2101 28.1583 73.2101 25.6323C73.2101 24.1936 71.8689 21 71.2646 21C71.0873 21 70.5827 21.84 70.1432 22.8664ZM36.2486 22.4028C35.1208 22.9833 33.8711 23.9114 33.4715 24.4655C32.5138 25.7926 32.8623 27.3251 34.1981 27.6621C35.6582 28.0305 37.0464 26.7915 37.8449 24.408C38.8542 21.3956 38.6653 21.1585 36.2486 22.4028ZM62.7469 22.7719C63.1691 25.0351 63.9296 26.5592 64.9825 27.2525C67.0662 28.625 69.0459 26.6799 67.687 24.5956C66.977 23.506 65.9703 22.7938 63.9357 21.9402L62.4779 21.329L62.7469 22.7719ZM24.4161 25.7586C24.2904 26.0876 24.1877 27.3641 24.1877 28.5951C24.1877 30.3292 24.3574 31.0039 24.9403 31.5897C25.8442 32.4982 26.9302 32.5614 27.7359 31.752C28.8309 30.651 28.3492 28.7211 26.4316 26.526C25.1089 25.0116 24.7529 24.8762 24.4161 25.7586ZM74.4594 26.7347C72.2972 29.2732 72.2772 32.3462 74.4229 32.3462C75.9978 32.3462 76.8704 30.9831 76.8704 28.5236C76.8704 26.2533 76.6224 25.1603 76.1069 25.1603C75.9383 25.1603 75.1966 25.8686 74.4594 26.7347ZM33.9716 29.3205C33.5577 29.7365 33.219 30.2471 33.219 30.4551C33.219 31.3473 34.766 32.3458 36.1354 32.3378C37.7185 32.3284 40.7451 31.0924 40.7451 30.4551C40.7451 29.8179 37.7185 28.5819 36.1354 28.5724C35.2176 28.5671 34.4612 28.8285 33.9716 29.3205ZM61.9123 29.3103C61.0325 29.7116 60.313 30.2267 60.313 30.4551C60.313 31.0924 63.3396 32.3284 64.9227 32.3378C66.2921 32.3458 67.8391 31.3473 67.8391 30.4551C67.8391 30.2471 67.5004 29.7365 67.0865 29.3205C66.1186 28.3478 64.0312 28.3436 61.9123 29.3103ZM68.4175 28.9196C68.297 29.1151 68.6839 29.8387 69.2769 30.527C72.1007 33.806 73.8084 38.5794 74.1279 44.0845C74.5087 50.6573 72.6185 57.0342 68.7625 62.182C67.4891 63.882 66.7553 65.2012 66.8889 65.5514C67.3834 66.846 71.6416 61.3155 73.3817 57.1186C77.1259 48.0897 75.8837 37.0257 70.3355 29.9824C69.1847 28.5214 68.7953 28.3054 68.4175 28.9196ZM30.5698 30.3409C29.8977 31.1102 28.7786 32.9445 28.0828 34.4176C24.6328 41.7188 24.8677 51.2723 28.6875 59.0096C30.2661 62.2073 32.9149 65.6282 33.8128 65.6282C34.7013 65.6282 34.4311 64.9637 32.6478 62.7629C28.8873 58.1231 26.8293 52.0389 26.8244 45.5493C26.8203 39.8501 28.2066 35.2875 31.1967 31.1609C31.8952 30.1968 32.4664 29.3035 32.4664 29.1753C32.4664 28.5838 31.6859 29.0633 30.5698 30.3409ZM49.5126 30.6442C49.0543 31.6094 48.6419 31.9679 47.9886 31.9679C47.496 31.9679 46.7479 32.1533 46.3268 32.3798C45.5765 32.7837 45.5825 32.8147 46.6151 33.8979C47.4987 34.8249 47.6526 35.2788 47.5656 36.7008C47.4494 38.5983 47.7353 38.7582 49.4362 37.7484C50.4688 37.1357 50.5892 37.1357 51.6218 37.7484C53.3626 38.7821 53.6614 38.6134 53.4492 36.7193C53.2825 35.2345 53.3875 34.9191 54.3579 33.9845C55.3725 33.008 55.406 32.8923 54.8016 32.4483C54.4422 32.1839 53.7039 31.9679 53.1609 31.9679C52.403 31.9679 52.0279 31.6605 51.5454 30.6442C51.2 29.9162 50.7428 29.3205 50.529 29.3205C50.3153 29.3205 49.8581 29.9162 49.5126 30.6442ZM21.7432 31.9596C21.4267 33.8416 21.7616 35.4331 22.7359 36.6777C24.2599 38.6251 26.4143 37.3903 25.9108 34.8586C25.7008 33.8041 22.9252 30.4551 22.261 30.4551C22.1154 30.4551 21.882 31.1321 21.7432 31.9596ZM77.497 31.3594C74.5381 33.7924 74.0447 37.641 76.692 37.641C78.5593 37.641 80.0434 34.177 79.3555 31.4233C79.0616 30.2456 78.8603 30.2388 77.497 31.3594ZM31.8481 33.4611C31.0797 33.7886 29.8322 35.2402 29.8322 35.8071C29.8322 36.5223 31.1591 37.2628 32.4404 37.2628C33.5754 37.2628 34.226 36.944 35.6349 35.6974C36.608 34.8366 37.2669 34 37.0991 33.8386C36.6069 33.3654 32.7272 33.0863 31.8481 33.4611ZM65.3931 33.3594C63.5537 33.6521 63.5586 34.0481 65.4232 35.6974C66.805 36.9202 67.4899 37.2617 68.5507 37.2571C70.9112 37.2469 71.7146 35.9852 70.3648 34.4078C69.4933 33.3896 67.6494 33.0008 65.3931 33.3594ZM19.8692 38.1138C20.0141 38.998 20.3531 40.2605 20.6229 40.9201C21.4911 43.0414 23.875 43.6609 24.6441 41.965C25.2455 40.6383 24.2757 38.8691 22.2094 37.5223C19.9569 36.0545 19.5486 36.1577 19.8692 38.1138ZM78.671 37.6482C76.6371 39.0022 75.8055 40.6224 76.4335 42.0074C77.1839 43.6624 79.5791 43.0115 80.4351 40.9201C80.705 40.2605 81.044 38.998 81.1889 38.1138C81.5151 36.1222 81.0831 36.0424 78.671 37.6482ZM29.55 39.1497C28.6021 39.7306 28.327 40.1576 28.327 41.0487C28.327 42.3682 29.3863 42.9888 31.0816 42.6632C32.1951 42.4491 35.5822 39.2529 35.2567 38.7234C34.8544 38.0692 30.8219 38.3702 29.55 39.1497ZM65.7912 38.7405C65.4454 39.3025 68.7377 42.4253 69.914 42.6515C71.6684 42.9885 72.731 42.3837 72.731 41.0487C72.731 39.4114 70.9812 38.4008 68.1435 38.3989C66.9657 38.3982 65.9071 38.5517 65.7912 38.7405ZM18.0343 43.2233C17.6689 43.8175 20.3151 47.3371 21.4971 47.8291C22.9319 48.4263 24.1233 48.053 24.4071 46.9169C24.7107 45.7013 24.0703 44.656 22.6015 43.9699C21.0086 43.2256 18.3049 42.7839 18.0343 43.2233ZM32.8427 43.2048C30.6853 43.4771 29.0736 44.148 28.3473 45.0762C27.4201 46.2607 27.3787 46.8454 28.1656 47.6366C29.5368 49.0144 31.8816 47.8136 33.5099 44.8999C34.4232 43.2657 34.3253 43.018 32.8427 43.2048ZM66.8889 43.3292C66.6029 43.7948 69.0786 47.2217 70.1229 47.806C71.3436 48.4891 72.9738 48.1147 73.3015 47.0769C73.5853 46.179 72.7262 44.6753 71.5769 44.0569C70.5458 43.5024 67.1106 42.9692 66.8889 43.3292ZM79.7085 43.4903C76.9284 44.2403 75.676 46.2199 77.0853 47.6366C78.315 48.8722 80.2636 47.9967 81.9776 45.4385C83.7376 42.8118 83.3756 42.501 79.7085 43.4903ZM37.7497 45.3761C37.2677 45.9596 37.5469 47.4744 38.1362 47.4744C38.3292 47.4744 38.4873 47.6446 38.4873 47.8526C38.4873 48.0715 37.2872 48.2308 35.6401 48.2308C31.929 48.2308 31.3375 48.5594 31.3375 50.6229C31.3375 58.3466 37.8231 66.3888 45.6792 68.4073C48.0236 69.0094 48.2878 69.546 47.3113 71.7222C46.8872 72.6674 46.0281 73.5894 44.8833 74.3277C43.9091 74.9559 42.7911 75.828 42.399 76.2656C42.0069 76.7032 41.3047 77.2077 40.8392 77.3866C39.8416 77.7701 39.6681 79.4157 40.5878 79.7704C40.9152 79.8968 45.5513 80 50.8899 80C59.0226 80 60.6723 79.9089 61.0614 79.4376C61.6568 78.7167 61.2763 77.7153 60.3111 77.4615C59.8983 77.3529 59.5604 77.1275 59.5604 76.9607C59.5604 76.7936 58.3833 75.7962 56.9443 74.7445C54.1058 72.6696 53.605 72.0123 53.4518 70.1614C53.3547 68.9886 53.4202 68.9292 55.3789 68.4167C63.2651 66.3532 69.7206 58.344 69.7206 50.6229C69.7206 48.5783 69.1227 48.2308 65.6061 48.2308C64.0843 48.2308 62.9471 48.0689 62.9471 47.8526C62.9471 47.6446 63.1052 47.4744 63.2982 47.4744C63.4912 47.4744 63.7659 47.1045 63.9086 46.6521C64.4535 44.9264 63.7223 44.8269 50.5031 44.8269C40.2096 44.8269 38.129 44.9166 37.7497 45.3761ZM42.6266 48.7981C42.6266 50.0586 42.5638 50.1218 41.3096 50.1218C40.0553 50.1218 39.9925 50.0586 39.9925 48.7981C39.9925 47.5375 40.0553 47.4744 41.3096 47.4744C42.5638 47.4744 42.6266 47.5375 42.6266 48.7981ZM38.4929 53.242C38.5001 55.8505 39.3787 59.5092 40.5607 61.8533C41.083 62.8896 41.3743 63.7372 41.2076 63.7372C40.8064 63.7372 37.6842 60.4532 36.6833 58.9786C35.7116 57.5471 34.5383 54.5759 34.1944 52.6747L33.9374 51.2564H36.2125H38.4873L38.4929 53.242ZM66.8878 52.4856C66.0445 56.4946 64.3304 59.6268 61.4558 62.4135L59.8953 63.9263L60.8391 61.8462C62.1241 59.0134 62.9471 55.6606 62.9471 53.2571V51.2564H65.0465H67.1463L66.8878 52.4856ZM42.6266 54.1088C42.6266 56.3005 43.5952 61.0311 44.5341 63.4252C45.45 65.761 45.4433 65.9096 44.4592 65.025C42.4223 63.1937 40.5381 58.7619 40.1411 54.8686L39.8886 52.391H41.2576H42.6266V54.1088ZM47.9446 75.6506C46.8337 76.6593 46.1564 76.9744 45.099 76.9744C43.301 76.9744 43.6419 76.4127 46.1537 75.2373C49.0242 73.8939 49.7061 74.0512 47.9446 75.6506Z" fill="white"/>
<defs>
<linearGradient id="paint0_linear" x1="0" y1="50" x2="100" y2="50" gradientUnits="userSpaceOnUse">
<stop stop-color="#0575E6"/>
<stop offset="1" stop-color="#021B79"/>
</linearGradient>
</defs>
</svg>
