<svg width="668" height="224" viewBox="0 0 668 224" fill="none" xmlns="http://www.w3.org/2000/svg">
<path d="M264.584 103.56H267.2L271.352 123H268.784L267.896 118.104H263.936L263 123H260.456L264.584 103.56ZM267.536 116.16L265.904 107.4L264.296 116.16H267.536ZM276.325 123.192C275.125 123.192 274.245 122.76 273.685 121.896C273.125 121.016 272.845 119.568 272.845 117.552V114.864C272.845 113.024 273.085 111.576 273.565 110.52C274.061 109.464 274.957 108.936 276.253 108.936C277.069 108.936 277.837 109.296 278.557 110.016V103.56H281.125V123H278.557V122.112C277.885 122.832 277.141 123.192 276.325 123.192ZM276.973 121.176C277.485 121.176 278.013 121 278.557 120.648V111.552C277.965 111.152 277.421 110.952 276.925 110.952C275.917 110.952 275.413 111.92 275.413 113.856V117.768C275.413 118.888 275.517 119.736 275.725 120.312C275.933 120.888 276.349 121.176 276.973 121.176ZM286.942 123.192C285.742 123.192 284.862 122.76 284.302 121.896C283.742 121.016 283.462 119.568 283.462 117.552V114.864C283.462 113.024 283.702 111.576 284.182 110.52C284.678 109.464 285.574 108.936 286.87 108.936C287.686 108.936 288.454 109.296 289.174 110.016V103.56H291.742V123H289.174V122.112C288.502 122.832 287.758 123.192 286.942 123.192ZM287.59 121.176C288.102 121.176 288.63 121 289.174 120.648V111.552C288.582 111.152 288.038 110.952 287.542 110.952C286.534 110.952 286.03 111.92 286.03 113.856V117.768C286.03 118.888 286.134 119.736 286.342 120.312C286.55 120.888 286.966 121.176 287.59 121.176ZM304.915 123.216C302.995 123.216 301.643 122.648 300.859 121.512C300.075 120.36 299.683 118.776 299.683 116.76V109.896C299.683 107.768 300.067 106.152 300.835 105.048C301.603 103.944 302.963 103.392 304.915 103.392C306.659 103.392 307.907 103.864 308.659 104.808C309.427 105.752 309.811 107.144 309.811 108.984V110.52H307.243V109.152C307.243 108.256 307.203 107.568 307.123 107.088C307.043 106.608 306.835 106.224 306.499 105.936C306.179 105.648 305.659 105.504 304.939 105.504C304.203 105.504 303.651 105.664 303.283 105.984C302.931 106.288 302.699 106.72 302.587 107.28C302.475 107.824 302.419 108.56 302.419 109.488V117.192C302.419 118.184 302.499 118.96 302.659 119.52C302.819 120.08 303.075 120.48 303.427 120.72C303.795 120.96 304.299 121.08 304.939 121.08C305.627 121.08 306.139 120.928 306.475 120.624C306.811 120.32 307.019 119.904 307.099 119.376C307.195 118.848 307.243 118.128 307.243 117.216V115.776H309.811V117.216C309.811 119.152 309.443 120.64 308.707 121.68C307.987 122.704 306.723 123.216 304.915 123.216ZM315.995 123.192C314.523 123.192 313.475 122.76 312.851 121.896C312.243 121.016 311.939 119.744 311.939 118.08V114.048C311.939 112.384 312.243 111.12 312.851 110.256C313.475 109.376 314.523 108.936 315.995 108.936C317.451 108.936 318.483 109.376 319.091 110.256C319.715 111.12 320.027 112.384 320.027 114.048V118.08C320.027 119.744 319.715 121.016 319.091 121.896C318.483 122.76 317.451 123.192 315.995 123.192ZM315.995 121.296C316.459 121.296 316.795 121.16 317.003 120.888C317.211 120.616 317.339 120.28 317.387 119.88C317.435 119.48 317.459 118.936 317.459 118.248V113.904C317.459 113.216 317.435 112.672 317.387 112.272C317.339 111.856 317.211 111.512 317.003 111.24C316.795 110.968 316.459 110.832 315.995 110.832C315.531 110.832 315.187 110.968 314.963 111.24C314.755 111.512 314.627 111.856 314.579 112.272C314.531 112.672 314.507 113.216 314.507 113.904V118.248C314.507 118.936 314.531 119.48 314.579 119.88C314.627 120.28 314.755 120.616 314.963 120.888C315.187 121.16 315.531 121.296 315.995 121.296ZM321.438 109.128H324.03L325.734 120.288L327.462 109.128H329.958L327.318 123H324.174L321.438 109.128ZM335.449 123.192C334.377 123.192 333.545 122.992 332.953 122.592C332.361 122.176 331.945 121.568 331.705 120.768C331.465 119.968 331.345 118.928 331.345 117.648V114.48C331.345 112.56 331.641 111.16 332.233 110.28C332.841 109.384 333.913 108.936 335.449 108.936C336.569 108.936 337.409 109.168 337.969 109.632C338.545 110.096 338.921 110.752 339.097 111.6C339.289 112.432 339.385 113.56 339.385 114.984V116.112H333.913V118.896C333.913 119.744 334.033 120.36 334.273 120.744C334.529 121.112 334.929 121.296 335.473 121.296C336.017 121.296 336.385 121.112 336.577 120.744C336.769 120.36 336.865 119.784 336.865 119.016V118.176H339.361V118.704C339.361 120.16 339.049 121.272 338.425 122.04C337.801 122.808 336.809 123.192 335.449 123.192ZM336.865 114.72V113.472C336.865 112.528 336.769 111.856 336.577 111.456C336.401 111.04 336.017 110.832 335.425 110.832C335.009 110.832 334.689 110.928 334.465 111.12C334.257 111.312 334.113 111.632 334.033 112.08C333.953 112.512 333.913 113.144 333.913 113.976V114.72H336.865ZM341.782 109.128H344.35V111.096C344.83 110.312 345.318 109.76 345.814 109.44C346.326 109.12 346.862 108.96 347.422 108.96C347.566 108.96 347.702 108.968 347.83 108.984V111.816C347.318 111.624 346.846 111.528 346.414 111.528C345.998 111.528 345.622 111.632 345.286 111.84C344.966 112.032 344.654 112.376 344.35 112.872V123H341.782V109.128ZM355.265 103.56H357.929V123H355.265V103.56ZM360.859 109.128H363.235V110.448C363.699 109.936 364.203 109.552 364.747 109.296C365.307 109.024 365.891 108.888 366.499 108.888C367.683 108.888 368.435 109.472 368.755 110.64C369.715 109.472 370.867 108.888 372.211 108.888C372.931 108.888 373.515 109.152 373.963 109.68C374.427 110.208 374.659 111.016 374.659 112.104V123H372.307V112.272C372.307 111.632 372.203 111.192 371.995 110.952C371.786 110.696 371.491 110.568 371.107 110.568C370.755 110.568 370.387 110.672 370.003 110.88C369.619 111.072 369.267 111.344 368.947 111.696V112.104V123H366.595V112.272C366.595 111.632 366.491 111.192 366.283 110.952C366.075 110.696 365.779 110.568 365.395 110.568C365.059 110.568 364.699 110.672 364.315 110.88C363.931 111.072 363.571 111.344 363.235 111.696V123H360.859V109.128ZM379.667 123.192C379.139 123.192 378.659 123.04 378.227 122.736C377.811 122.432 377.483 122.032 377.243 121.536C377.003 121.04 376.883 120.52 376.883 119.976C376.883 118.888 377.115 118.008 377.579 117.336C378.043 116.648 378.635 116.104 379.355 115.704C380.075 115.304 381.075 114.848 382.355 114.336V113.352C382.355 112.44 382.259 111.8 382.067 111.432C381.891 111.048 381.523 110.856 380.963 110.856C379.987 110.856 379.499 111.512 379.499 112.824V113.52L376.955 113.424C376.987 111.888 377.339 110.76 378.011 110.04C378.683 109.304 379.723 108.936 381.131 108.936C382.459 108.936 383.419 109.304 384.011 110.04C384.619 110.76 384.923 111.856 384.923 113.328V119.664C384.923 120.704 385.003 121.816 385.163 123H382.811C382.635 122.088 382.523 121.408 382.475 120.96C382.283 121.584 381.947 122.112 381.467 122.544C381.003 122.976 380.403 123.192 379.667 123.192ZM380.675 120.984C381.011 120.984 381.339 120.856 381.659 120.6C381.979 120.328 382.211 120.072 382.355 119.832V115.896C381.667 116.28 381.131 116.616 380.747 116.904C380.379 117.176 380.067 117.496 379.811 117.864C379.571 118.232 379.451 118.672 379.451 119.184C379.451 119.76 379.555 120.208 379.763 120.528C379.971 120.832 380.275 120.984 380.675 120.984ZM390.99 127.296C389.646 127.296 388.574 127.08 387.774 126.648C386.974 126.232 386.574 125.576 386.574 124.68C386.574 124.072 386.758 123.544 387.126 123.096C387.51 122.648 387.99 122.288 388.566 122.016C388.134 121.888 387.798 121.688 387.558 121.416C387.334 121.144 387.222 120.848 387.222 120.528C387.222 120.048 387.342 119.632 387.582 119.28C387.822 118.928 388.214 118.504 388.758 118.008C388.214 117.592 387.806 117.072 387.534 116.448C387.278 115.808 387.15 114.952 387.15 113.88C387.15 112.264 387.478 111.04 388.134 110.208C388.806 109.36 389.782 108.936 391.062 108.936C391.798 108.936 392.398 109.064 392.862 109.32C393.326 109.576 393.678 109.96 393.918 110.472C394.03 110.296 394.262 110.064 394.614 109.776C394.982 109.472 395.374 109.224 395.79 109.032L396.174 108.864L396.822 110.52C396.502 110.584 396.054 110.72 395.478 110.928C394.918 111.136 394.582 111.296 394.47 111.408C394.582 111.696 394.678 112.096 394.758 112.608C394.854 113.12 394.902 113.568 394.902 113.952C394.902 115.472 394.606 116.656 394.014 117.504C393.422 118.336 392.438 118.752 391.062 118.752C390.63 118.752 390.19 118.696 389.742 118.584C389.438 119.032 389.286 119.384 389.286 119.64C389.286 119.816 389.374 119.96 389.55 120.072C389.742 120.168 390.038 120.232 390.438 120.264L392.598 120.456C393.686 120.552 394.494 120.88 395.022 121.44C395.55 122 395.814 122.8 395.814 123.84C395.814 126.144 394.206 127.296 390.99 127.296ZM391.062 116.952C391.75 116.952 392.198 116.712 392.406 116.232C392.614 115.752 392.718 114.968 392.718 113.88C392.718 112.776 392.614 111.976 392.406 111.48C392.198 110.968 391.758 110.712 391.086 110.712C390.414 110.712 389.958 110.968 389.718 111.48C389.494 111.976 389.382 112.776 389.382 113.88C389.382 114.872 389.494 115.632 389.718 116.16C389.958 116.688 390.406 116.952 391.062 116.952ZM391.182 125.28C392.094 125.28 392.766 125.168 393.198 124.944C393.63 124.736 393.846 124.392 393.846 123.912C393.846 123.464 393.71 123.136 393.438 122.928C393.166 122.704 392.67 122.56 391.95 122.496L389.766 122.304C389.43 122.64 389.174 122.936 388.998 123.192C388.822 123.448 388.734 123.728 388.734 124.032C388.734 124.464 388.91 124.776 389.262 124.968C389.63 125.176 390.27 125.28 391.182 125.28ZM401.566 123.192C400.494 123.192 399.662 122.992 399.07 122.592C398.478 122.176 398.062 121.568 397.822 120.768C397.582 119.968 397.462 118.928 397.462 117.648V114.48C397.462 112.56 397.758 111.16 398.35 110.28C398.958 109.384 400.03 108.936 401.566 108.936C402.686 108.936 403.526 109.168 404.086 109.632C404.662 110.096 405.038 110.752 405.214 111.6C405.406 112.432 405.502 113.56 405.502 114.984V116.112H400.03V118.896C400.03 119.744 400.15 120.36 400.39 120.744C400.646 121.112 401.046 121.296 401.59 121.296C402.134 121.296 402.502 121.112 402.694 120.744C402.886 120.36 402.982 119.784 402.982 119.016V118.176H405.478V118.704C405.478 120.16 405.166 121.272 404.542 122.04C403.918 122.808 402.926 123.192 401.566 123.192ZM402.982 114.72V113.472C402.982 112.528 402.886 111.856 402.694 111.456C402.518 111.04 402.134 110.832 401.542 110.832C401.126 110.832 400.806 110.928 400.582 111.12C400.374 111.312 400.23 111.632 400.15 112.08C400.07 112.512 400.03 113.144 400.03 113.976V114.72H402.982Z" fill="black"/>
</svg>
