<svg width="210" height="153" viewBox="0 0 210 153" fill="none" xmlns="http://www.w3.org/2000/svg">
<path d="M57.82 69.8H60L63.46 86H61.32L60.58 81.92H57.28L56.5 86H54.38L57.82 69.8ZM60.28 80.3L58.92 73L57.58 80.3H60.28ZM67.6038 86.16C66.6038 86.16 65.8704 85.8 65.4038 85.08C64.9371 84.3467 64.7038 83.14 64.7038 81.46V79.22C64.7038 77.6867 64.9038 76.48 65.3038 75.6C65.7171 74.72 66.4638 74.28 67.5438 74.28C68.2238 74.28 68.8638 74.58 69.4638 75.18V69.8H71.6038V86H69.4638V85.26C68.9038 85.86 68.2838 86.16 67.6038 86.16ZM68.1438 84.48C68.5704 84.48 69.0104 84.3333 69.4638 84.04V76.46C68.9704 76.1267 68.5171 75.96 68.1038 75.96C67.2638 75.96 66.8438 76.7667 66.8438 78.38V81.64C66.8438 82.5733 66.9304 83.28 67.1038 83.76C67.2771 84.24 67.6238 84.48 68.1438 84.48ZM76.4514 86.16C75.4514 86.16 74.7181 85.8 74.2514 85.08C73.7847 84.3467 73.5514 83.14 73.5514 81.46V79.22C73.5514 77.6867 73.7514 76.48 74.1514 75.6C74.5647 74.72 75.3114 74.28 76.3914 74.28C77.0714 74.28 77.7114 74.58 78.3114 75.18V69.8H80.4514V86H78.3114V85.26C77.7514 85.86 77.1314 86.16 76.4514 86.16ZM76.9914 84.48C77.4181 84.48 77.8581 84.3333 78.3114 84.04V76.46C77.8181 76.1267 77.3647 75.96 76.9514 75.96C76.1114 75.96 75.6914 76.7667 75.6914 78.38V81.64C75.6914 82.5733 75.7781 83.28 75.9514 83.76C76.1247 84.24 76.4714 84.48 76.9914 84.48ZM91.1894 86.18C89.8294 86.18 88.7894 85.76 88.0694 84.92C87.3627 84.08 86.9694 82.9267 86.8894 81.46L88.8894 80.92C88.956 81.96 89.156 82.8 89.4894 83.44C89.836 84.08 90.4027 84.4 91.1894 84.4C91.776 84.4 92.216 84.24 92.5094 83.92C92.816 83.5867 92.9694 83.1133 92.9694 82.5C92.9694 81.8333 92.8294 81.28 92.5494 80.84C92.2694 80.4 91.8227 79.9133 91.2094 79.38L88.4894 76.98C87.9427 76.5 87.5427 75.9867 87.2894 75.44C87.0494 74.88 86.9294 74.2 86.9294 73.4C86.9294 72.2133 87.2694 71.2933 87.9494 70.64C88.6294 69.9867 89.556 69.66 90.7294 69.66C92.0094 69.66 92.976 70 93.6294 70.68C94.2827 71.36 94.676 72.4133 94.8094 73.84L92.8894 74.36C92.8227 73.4133 92.636 72.6867 92.3294 72.18C92.036 71.66 91.5027 71.4 90.7294 71.4C90.156 71.4 89.716 71.5533 89.4094 71.86C89.1027 72.1533 88.9494 72.5933 88.9494 73.18C88.9494 73.66 89.0294 74.0667 89.1894 74.4C89.3494 74.72 89.6227 75.0467 90.0094 75.38L92.7494 77.78C93.456 78.4067 94.016 79.0867 94.4294 79.82C94.856 80.5533 95.0694 81.3867 95.0694 82.32C95.0694 83.5067 94.7094 84.4467 93.9894 85.14C93.2694 85.8333 92.336 86.18 91.1894 86.18ZM96.7825 70.48H98.9225V72.72H96.7825V70.48ZM96.7825 74.44H98.9225V86H96.7825V74.44ZM104.213 89.58C103.093 89.58 102.199 89.4 101.533 89.04C100.866 88.6933 100.533 88.1467 100.533 87.4C100.533 86.8933 100.686 86.4533 100.993 86.08C101.313 85.7067 101.713 85.4067 102.193 85.18C101.833 85.0733 101.553 84.9067 101.353 84.68C101.166 84.4533 101.073 84.2067 101.073 83.94C101.073 83.54 101.173 83.1933 101.373 82.9C101.573 82.6067 101.899 82.2533 102.353 81.84C101.899 81.4933 101.559 81.06 101.333 80.54C101.119 80.0067 101.013 79.2933 101.013 78.4C101.013 77.0533 101.286 76.0333 101.833 75.34C102.393 74.6333 103.206 74.28 104.273 74.28C104.886 74.28 105.386 74.3867 105.773 74.6C106.159 74.8133 106.453 75.1333 106.653 75.56C106.746 75.4133 106.939 75.22 107.233 74.98C107.539 74.7267 107.866 74.52 108.213 74.36L108.533 74.22L109.073 75.6C108.806 75.6533 108.433 75.7667 107.953 75.94C107.486 76.1133 107.206 76.2467 107.113 76.34C107.206 76.58 107.286 76.9133 107.353 77.34C107.433 77.7667 107.473 78.14 107.473 78.46C107.473 79.7267 107.226 80.7133 106.733 81.42C106.239 82.1133 105.419 82.46 104.273 82.46C103.913 82.46 103.546 82.4133 103.173 82.32C102.919 82.6933 102.793 82.9867 102.793 83.2C102.793 83.3467 102.866 83.4667 103.013 83.56C103.173 83.64 103.419 83.6933 103.753 83.72L105.553 83.88C106.459 83.96 107.133 84.2333 107.573 84.7C108.013 85.1667 108.233 85.8333 108.233 86.7C108.233 88.62 106.893 89.58 104.213 89.58ZM104.273 80.96C104.846 80.96 105.219 80.76 105.393 80.36C105.566 79.96 105.653 79.3067 105.653 78.4C105.653 77.48 105.566 76.8133 105.393 76.4C105.219 75.9733 104.853 75.76 104.293 75.76C103.733 75.76 103.353 75.9733 103.153 76.4C102.966 76.8133 102.873 77.48 102.873 78.4C102.873 79.2267 102.966 79.86 103.153 80.3C103.353 80.74 103.726 80.96 104.273 80.96ZM104.373 87.9C105.133 87.9 105.693 87.8067 106.053 87.62C106.413 87.4467 106.593 87.16 106.593 86.76C106.593 86.3867 106.479 86.1133 106.253 85.94C106.026 85.7533 105.613 85.6333 105.013 85.58L103.193 85.42C102.913 85.7 102.699 85.9467 102.553 86.16C102.406 86.3733 102.333 86.6067 102.333 86.86C102.333 87.22 102.479 87.48 102.773 87.64C103.079 87.8133 103.613 87.9 104.373 87.9ZM109.904 74.44H112.044V75.58C112.964 74.7133 113.904 74.28 114.864 74.28C115.491 74.28 115.938 74.5067 116.204 74.96C116.471 75.4133 116.604 75.9733 116.604 76.64V86H114.464V77.26C114.464 76.82 114.398 76.4933 114.264 76.28C114.131 76.0667 113.891 75.96 113.544 75.96C113.118 75.96 112.618 76.2 112.044 76.68V86H109.904V74.44ZM120.773 86.16C120.333 86.16 119.933 86.0333 119.573 85.78C119.227 85.5267 118.953 85.1933 118.753 84.78C118.553 84.3667 118.453 83.9333 118.453 83.48C118.453 82.5733 118.647 81.84 119.033 81.28C119.42 80.7067 119.913 80.2533 120.513 79.92C121.113 79.5867 121.947 79.2067 123.013 78.78V77.96C123.013 77.2 122.933 76.6667 122.773 76.36C122.627 76.04 122.32 75.88 121.853 75.88C121.04 75.88 120.633 76.4267 120.633 77.52V78.1L118.513 78.02C118.54 76.74 118.833 75.8 119.393 75.2C119.953 74.5867 120.82 74.28 121.993 74.28C123.1 74.28 123.9 74.5867 124.393 75.2C124.9 75.8 125.153 76.7133 125.153 77.94V83.22C125.153 84.0867 125.22 85.0133 125.353 86H123.393C123.247 85.24 123.153 84.6733 123.113 84.3C122.953 84.82 122.673 85.26 122.273 85.62C121.887 85.98 121.387 86.16 120.773 86.16ZM121.613 84.32C121.893 84.32 122.167 84.2133 122.433 84C122.7 83.7733 122.893 83.56 123.013 83.36V80.08C122.44 80.4 121.993 80.68 121.673 80.92C121.367 81.1467 121.107 81.4133 120.893 81.72C120.693 82.0267 120.593 82.3933 120.593 82.82C120.593 83.3 120.68 83.6733 120.853 83.94C121.027 84.1933 121.28 84.32 121.613 84.32ZM130.133 86.16C128.466 86.16 127.633 85.24 127.633 83.4V75.86H126.413V74.44H127.633V71.06H129.773V74.44H131.633V75.86H129.773V83.26C129.773 83.7267 129.846 84.0533 129.993 84.24C130.139 84.4267 130.419 84.52 130.833 84.52C131.099 84.52 131.359 84.5 131.613 84.46V86.04C131.079 86.12 130.586 86.16 130.133 86.16ZM134.865 86.16C134.238 86.16 133.792 85.9333 133.525 85.48C133.258 85.0267 133.125 84.4667 133.125 83.8V74.44H135.265V83.16C135.265 83.6 135.332 83.9333 135.465 84.16C135.598 84.3733 135.838 84.48 136.185 84.48C136.612 84.48 137.112 84.24 137.685 83.76V74.44H139.825V86H137.685V84.86C136.765 85.7267 135.825 86.16 134.865 86.16ZM142.074 74.44H144.214V76.08C144.614 75.4267 145.02 74.9667 145.434 74.7C145.86 74.4333 146.307 74.3 146.774 74.3C146.894 74.3 147.007 74.3067 147.114 74.32V76.68C146.687 76.52 146.294 76.44 145.934 76.44C145.587 76.44 145.274 76.5267 144.994 76.7C144.727 76.86 144.467 77.1467 144.214 77.56V86H142.074V74.44ZM151.639 86.16C150.746 86.16 150.053 85.9933 149.559 85.66C149.066 85.3133 148.719 84.8067 148.519 84.14C148.319 83.4733 148.219 82.6067 148.219 81.54V78.9C148.219 77.3 148.466 76.1333 148.959 75.4C149.466 74.6533 150.359 74.28 151.639 74.28C152.573 74.28 153.273 74.4733 153.739 74.86C154.219 75.2467 154.533 75.7933 154.679 76.5C154.839 77.1933 154.919 78.1333 154.919 79.32V80.26H150.359V82.58C150.359 83.2867 150.459 83.8 150.659 84.12C150.873 84.4267 151.206 84.58 151.659 84.58C152.113 84.58 152.419 84.4267 152.579 84.12C152.739 83.8 152.819 83.32 152.819 82.68V81.98H154.899V82.42C154.899 83.6333 154.639 84.56 154.119 85.2C153.599 85.84 152.773 86.16 151.639 86.16ZM152.819 79.1V78.06C152.819 77.2733 152.739 76.7133 152.579 76.38C152.433 76.0333 152.113 75.86 151.619 75.86C151.273 75.86 151.006 75.94 150.819 76.1C150.646 76.26 150.526 76.5267 150.459 76.9C150.393 77.26 150.359 77.7867 150.359 78.48V79.1H152.819Z" fill="black"/>
</svg>
