<svg width="104" height="105" viewBox="0 0 104 105" fill="none" xmlns="http://www.w3.org/2000/svg">
<path fill-rule="evenodd" clip-rule="evenodd" d="M44.6667 0.605449C35.2614 3.2322 31.4796 12.6434 29.9984 37.1078C29.407 46.8746 28.5957 52.7739 27.3453 56.4011C25.5287 61.6705 20.676 68.2414 18.6025 68.2414C17.985 68.2414 17.1898 68.759 16.8356 69.3908C16.3641 70.2323 17.3783 70.3744 20.6137 69.9193C24.9941 69.3044 25.0122 69.3133 22.4781 70.8343C21.0699 71.6798 20.1224 72.5958 20.3722 72.87C20.621 73.1452 21.6487 72.8849 22.6538 72.2908C23.9899 71.5029 25.1168 71.5308 26.8359 72.3941C28.7796 73.3707 29.6892 73.2733 32.0709 71.8328L34.953 70.0912L32.2485 72.72L29.544 75.3487L32.6993 74.6791C34.4347 74.3105 37.1834 73.167 38.807 72.1378C41.7107 70.2969 41.7441 70.2979 40.8335 72.1725C38.9097 76.1335 25.2168 81.8858 13.6055 83.6114C11.2859 83.9562 8.3335 85.1513 7.04435 86.268C3.98735 88.9186 1.25309 94.9271 0.556231 100.526L0 105H51.9995H104L103.405 101.274C101.857 91.5811 96.8502 84.6963 90.5947 83.6611C76.8909 81.395 67.262 77.5105 63.3504 72.6693L61.0966 69.8806L64.2519 71.9341C65.9873 73.0637 68.827 74.3115 70.5624 74.7079L73.7176 75.4272L71.4639 72.6097C70.2243 71.0599 69.8322 70.3108 70.5921 70.9456C71.3521 71.5804 73.0415 72.5481 74.3469 73.0945C76.2121 73.8764 76.8296 73.771 77.2362 72.6037C77.5211 71.7871 77.4201 71.346 77.0126 71.6232C76.6052 71.9003 76.2716 71.5288 76.2716 70.7966C76.2716 69.8001 76.9703 69.9352 79.0518 71.3331C80.5808 72.3603 82.4397 73.1849 83.1834 73.165C83.9272 73.1452 83.4196 72.4626 82.0565 71.647C80.6935 70.8314 79.5774 70.0107 79.5774 69.822C79.5774 69.6332 81.5039 69.667 83.8595 69.8965L88.1417 70.3147L84.8422 68.3069C77.5229 63.8522 74.5903 55.9262 73.3498 37.2439C72.0949 18.339 69.1966 9.52687 62.1901 3.30771C59.3161 0.75745 57.8891 0.238857 53.1751 0.0351938C50.0947 -0.0979321 46.266 0.158384 44.6667 0.605449Z" fill="#BDBDBD"/>
<path fill-rule="evenodd" clip-rule="evenodd" d="M9.5 57.9245C9.5 59.3053 10.6193 60.4245 12 60.4245C13.3807 60.4245 14.5 59.3053 14.5 57.9245V52.9954H19.5236C20.8913 52.9954 22 51.8866 22 50.5189C22 49.1513 20.8913 48.0425 19.5236 48.0425H14.5V43.1132C14.5 41.7325 13.3807 40.6132 12 40.6132C10.6193 40.6132 9.5 41.7325 9.5 43.1132L9.5 48.0425H4.47642C3.10873 48.0425 2 49.1513 2 50.5189C2 51.8866 3.10873 52.9954 4.47642 52.9954H9.5L9.5 57.9245Z" fill="#BDBDBD"/>
</svg>
