<svg width="121" height="110" viewBox="0 0 121 110" fill="none" xmlns="http://www.w3.org/2000/svg">
<path d="M49.719 5.63794C53.463 4.58894 54.085 4.10194 53.135 2.95794C52.159 1.78194 52.407 1.72394 54.688 2.59094C56.181 3.15894 59.76 3.62294 62.641 3.62294C68.575 3.62294 77.597 7.49294 79.365 10.7969C79.947 11.8839 81.347 13.6979 82.475 14.8259C84.34 16.6909 84.484 17.7739 84.054 26.7049C83.767 32.6579 83.98 36.9309 84.593 37.5439C85.815 38.7659 83.762 48.9729 81.912 50.8729C81.243 51.5609 79.867 54.3729 78.853 57.1229C77.839 59.8729 76.618 62.5499 76.141 63.0729C74.072 65.3349 75.621 73.2819 78.296 74.1309C79.291 74.4459 80.575 76.0529 81.15 77.7019C82.665 82.0479 91.542 85.6969 106.421 88.0889C113.362 89.2049 118.661 95.8869 119.927 105.12L120.544 109.623H60.272H0L0.617 105.12C1.885 95.8739 7.203 89.1779 14.123 88.1149C27.503 86.0589 38.002 81.7979 39.506 77.8149C40.098 76.2469 41.525 74.5499 42.677 74.0429C45.895 72.6289 45.91 66.8749 42.716 58.8899C41.242 55.2069 39.444 51.2769 38.719 50.1579C36.48 46.6969 34.839 38.6559 36.113 37.3819C36.853 36.6419 37.027 33.4029 36.633 27.6959C36.058 19.3739 36.125 19.0139 38.906 15.4069C40.482 13.3639 42.53 10.6179 43.457 9.30494C44.431 7.92694 47.074 6.37794 49.719 5.63794Z" fill="#BDBDBD"/>
<path fill-rule="evenodd" clip-rule="evenodd" d="M17.5 62.5C17.5 63.8807 18.6193 65 20 65C21.3807 65 22.5 63.8807 22.5 62.5V57.5H27.5C28.8807 57.5 30 56.3807 30 55C30 53.6193 28.8807 52.5 27.5 52.5H22.5V47.5C22.5 46.1193 21.3807 45 20 45C18.6193 45 17.5 46.1193 17.5 47.5L17.5 52.5H12.5C11.1193 52.5 10 53.6193 10 55C10 56.3807 11.1193 57.5 12.5 57.5H17.5L17.5 62.5Z" fill="#BDBDBD"/>
</svg>
