<svg width="154" height="112" viewBox="0 0 154 112" fill="none" xmlns="http://www.w3.org/2000/svg">
<path d="M5.50001 26.0001C25.4388 11.2935 32.5 8 53 13L89.5 75.2698C68.8811 68.8512 58.7365 78.7743 37.5 95L5.50001 26.0001Z" fill="#FFBFC3"/>
<path d="M97 1C74.5 7.99991 67.5 -4.50001 52.5 13.5L90.0644 75.2698C96.5643 56.2698 124.541 72.3043 148 59.5L97 1Z" fill="#FFBFC3"/>
<path d="M5.50001 26.0001C25.4388 11.2935 32.5 8 53 13L89.5 75.2698C68.8811 68.8512 58.7365 78.7743 37.5 95L5.50001 26.0001ZM5.50001 26.0001L6 39.0001L37.5 104.5M148 59.5C124.541 72.3043 96.5643 56.2698 90.0644 75.2698L52.5 13.5C67.5 -4.50001 74.5 7.99991 97 1L148 59.5ZM148 59.5V68.5001C136 73.0001 110 68.0001 100.5 77.5001C93 72.0001 84 78.5001 83.5 81.5001C71.4811 78.0383 60.7076 85.288 37.5 104.5M37.5 104.5V94.0001M6 36.5001L2 38.3183L36.2826 110C63.6124 87.4811 80.4915 79.6736 83.7826 86.5001C85.1729 89.384 100.833 86.0001 101.833 83.0001C104.5 75.0001 125.296 75.7887 152.333 73.0001L148 66.0001" stroke="#FCFCFC" stroke-width="1.5"/>
</svg>
