<svg width="121" height="121" viewBox="0 0 121 121" fill="none" xmlns="http://www.w3.org/2000/svg">
<path fill-rule="evenodd" clip-rule="evenodd" d="M57.109 2.57783C58.1762 -0.859276 62.8238 -0.859276 63.891 2.57783L70.373 23.4517C70.8504 24.989 72.2192 26.0297 73.7639 26.0297H94.7402C98.194 26.0297 99.6305 30.6544 96.8357 32.7787L79.866 45.6794C78.616 46.6294 78.0932 48.3134 78.5706 49.8507L80.7034 56.7187H111.547C116.767 56.7187 121 60.9511 121 66.1719C121 71.3926 116.767 75.625 111.547 75.625H98.3127V90.75C98.3127 94.9266 94.9268 98.3125 90.7502 98.3125H89.2377V75.625H85.4563V105.875C85.4563 110.052 82.0703 113.438 77.8938 113.438H76.3813V75.625H71.8439V113.438C71.8439 117.614 68.458 121 64.2814 121H62.7689V75.625H58.2312V121H56.7188C52.5422 121 49.1562 117.614 49.1562 113.438V75.625H44.6186V113.438H43.1061C38.9295 113.438 35.5436 110.052 35.5436 105.875V75.625H31.7625V98.3125H30.25C26.0734 98.3125 22.6875 94.9266 22.6875 90.75V75.625H9.45312C4.23249 75.625 0 71.3926 0 66.1719C0 60.9511 4.23249 56.7187 9.45312 56.7187H40.2966L42.4294 49.8507C42.9068 48.3134 42.384 46.6294 41.1339 45.6794L24.1643 32.7787C21.3695 30.6544 22.806 26.0297 26.2598 26.0297H47.2361C48.7808 26.0297 50.1496 24.989 50.627 23.4517L57.109 2.57783ZM58.3424 24.0346C59.0215 21.9443 61.9785 21.9443 62.6576 24.0346L65.2542 32.0253C65.5578 32.96 66.4288 33.593 67.4119 33.593H75.8137C78.0115 33.593 78.9255 36.4055 77.1475 37.6972L70.3502 42.6359C69.5548 43.2134 69.222 44.2374 69.5258 45.1723L72.1222 53.163C72.8012 55.2533 70.4091 56.9914 68.6308 55.6997L61.8335 50.761C61.0384 50.1834 59.9616 50.1834 59.1665 50.761L52.3692 55.6997C50.5909 56.9914 48.1988 55.2533 48.8778 53.163L51.4742 45.1723C51.778 44.2374 51.4452 43.2134 50.6498 42.6359L43.8525 37.6972C42.0745 36.4055 42.9885 33.593 45.1863 33.593H53.5881C54.5712 33.593 55.4422 32.96 55.7458 32.0253L58.3424 24.0346ZM52.0483 62.9268C51.6969 62.9268 51.4365 63.0421 51.2677 63.2732C51.1023 63.5042 51.0195 63.8608 51.0195 64.3433V67.5227C51.0195 68.005 51.1023 68.3618 51.2677 68.5928C51.4365 68.8237 51.6969 68.9392 52.0483 68.9392C52.3966 68.9392 52.6531 68.8237 52.8186 68.5928C52.9127 68.4637 52.9808 68.2952 53.0224 68.0876C53.0553 67.9239 53.0719 67.7356 53.0719 67.5227V67.2021H54.0696V67.5227C54.0696 68.2877 53.9042 68.8564 53.5733 69.2286C53.2425 69.6009 52.7341 69.7869 52.0483 69.7869C51.3588 69.7869 50.8489 69.6026 50.5181 69.2337C50.1872 68.8617 50.0218 68.2913 50.0218 67.5227V64.3433C50.0218 63.5747 50.1872 63.006 50.5181 62.6374C50.8489 62.2651 51.3588 62.0791 52.0483 62.0791C52.7341 62.0791 53.2425 62.2651 53.5733 62.6374C53.9042 63.0094 54.0696 63.5781 54.0696 64.3433V64.4467H53.0719V64.3433C53.0719 63.8608 52.9891 63.5042 52.8237 63.2732C52.6583 63.0421 52.3998 62.9268 52.0483 62.9268ZM29.0328 62.291V69.575H30.0307V63.3507L31.7005 69.575H33.2669V62.291H32.2743V68.5153L30.6045 62.291H29.0328ZM34.7196 62.291V69.575H38.0902V68.7272H35.7173V66.1889H37.9817V65.3409H35.7173V63.1387H38.0902V62.291H34.7196ZM40.4683 66.8867H42.0346L41.2489 63.4025L40.4683 66.8867ZM38.8244 69.575L40.6182 62.291H41.8847L43.6734 69.575H42.6499L42.226 67.7243H40.2769L39.8531 69.575H38.8244ZM45.7257 63.1387H46.6873C47.373 63.1387 47.7162 63.48 47.7162 64.1623V64.5862C47.7162 65.2721 47.373 65.6151 46.6873 65.6151H45.7257V63.1387ZM45.7257 66.4628H46.5841C46.9491 66.4628 47.2114 66.5472 47.3698 66.7162C47.457 66.809 47.5201 66.933 47.5592 67.0884C47.5914 67.2157 47.6076 67.3639 47.6076 67.5329V68.9184C47.6076 68.9976 47.6213 69.1133 47.6489 69.2647C47.663 69.3407 47.6766 69.405 47.6899 69.4574C47.6965 69.4843 47.7031 69.5081 47.7099 69.5285C47.7154 69.5463 47.7209 69.5618 47.7264 69.575H48.7604C48.7224 69.513 48.6862 69.406 48.6518 69.2545L48.6448 69.2165L48.6441 69.2137L48.6344 69.1613L48.6286 69.1254L48.6197 69.0611C48.61 68.9836 48.6053 68.9118 48.6053 68.8462V67.5847C48.6053 67.1333 48.5225 66.7833 48.3571 66.5353C48.276 66.409 48.1707 66.3044 48.0417 66.2218C47.9587 66.1683 47.8661 66.124 47.763 66.0887L47.7095 66.0713C47.67 66.0592 47.629 66.0484 47.5868 66.039C47.9417 65.932 48.2176 65.7459 48.414 65.4807C48.6104 65.2152 48.7087 64.8999 48.7087 64.5346V64.1107C48.7087 62.8975 48.0347 62.291 46.6873 62.291H44.728V69.575H45.7257V66.4628ZM55.3155 62.291V69.575H58.6861V68.7272H56.3132V66.1889H58.5776V65.3409H56.3132V63.1387H58.6861V62.291H55.3155ZM59.8235 69.575V62.291H60.8212V68.7272H63.0028V69.575H59.8235ZM63.9489 62.291V69.575H67.3195V68.7272H64.9468V66.1889H67.211V65.3409H64.9468V63.1387H67.3195V62.291H63.9489ZM70.4781 66.2509H69.4546V68.7272H70.4781C70.8298 68.7272 71.0883 68.6357 71.2537 68.4531C71.2652 68.4404 71.2764 68.4272 71.2872 68.4136C71.293 68.4062 71.2987 68.3987 71.3042 68.3909C71.3161 68.3748 71.3276 68.3582 71.3382 68.3412C71.3412 68.3363 71.3441 68.3315 71.3471 68.3266C71.3522 68.3179 71.3571 68.309 71.3618 68.3002C71.4586 68.1222 71.507 67.8872 71.507 67.5949V67.383C71.507 66.9969 71.4223 66.7126 71.2537 66.5301C71.0883 66.3439 70.8298 66.2509 70.4781 66.2509ZM70.3127 63.1387H69.4546V65.4031H70.3127C70.9952 65.4031 71.3363 65.0602 71.3363 64.3743V64.1623C71.3363 63.48 70.9952 63.1387 70.3127 63.1387ZM70.3127 62.291C71.6602 62.291 72.3342 62.8975 72.3342 64.1107V64.3227C72.3342 64.6741 72.2429 64.9844 72.0602 65.2532C71.9899 65.3564 71.9103 65.4483 71.8209 65.5287C71.6772 65.6574 71.5089 65.7571 71.3157 65.827C71.4785 65.8641 71.6256 65.9185 71.7566 65.9906C71.9309 66.0862 72.0767 66.2127 72.1945 66.3698C72.2071 66.3865 72.2189 66.4037 72.2308 66.4209L72.2587 66.4638C72.2665 66.4759 72.2739 66.4882 72.2811 66.5005C72.2848 66.5067 72.2884 66.5129 72.292 66.5194C72.3729 66.6625 72.4308 66.8234 72.4656 67.002C72.4714 67.0315 72.4767 67.0614 72.4811 67.0919C72.4869 67.1334 72.4922 67.1762 72.4958 67.2195C72.5017 67.2889 72.5047 67.3607 72.5047 67.4348V67.6468C72.5047 68.9324 71.8294 69.575 70.4781 69.575H68.4569V62.291H70.3127ZM73.6782 68.5153V69.575H74.7381V68.5153H73.6782ZM77.7028 63.0017C77.5602 63.0592 77.444 63.1497 77.354 63.2732C77.1885 63.5042 77.1057 63.8608 77.1057 64.3433V67.5227C77.1057 67.601 77.108 67.6759 77.1124 67.7475C77.1165 67.8177 77.1228 67.8848 77.1313 67.9483C77.1417 68.0264 77.1549 68.0994 77.1715 68.1678C77.2127 68.3391 77.2738 68.4807 77.354 68.5928C77.5226 68.8237 77.783 68.9392 78.1344 68.9392C78.4827 68.9392 78.7394 68.8237 78.9049 68.5928C79.0366 68.4125 79.1172 68.1555 79.1459 67.822C79.1514 67.7598 79.1548 67.6953 79.1567 67.628L79.1571 67.6053L79.1582 67.5227V67.2021H80.1559V67.5227C80.1559 68.2877 79.9905 68.8564 79.6596 69.2286C79.3287 69.6009 78.8202 69.7869 78.1344 69.7869C77.4451 69.7869 76.9352 69.6026 76.6043 69.2337C76.2735 68.8617 76.1081 68.2913 76.1081 67.5227V64.3433C76.1081 63.5747 76.2735 63.006 76.6043 62.6374C76.9352 62.2651 77.4451 62.0791 78.1344 62.0791C78.8202 62.0791 79.3287 62.2651 79.6596 62.6374C79.9905 63.0094 80.1559 63.5781 80.1559 64.3433V64.4467H79.1582V64.3433C79.1582 64.1056 79.1382 63.8988 79.0979 63.7222C79.0565 63.5401 78.9937 63.3904 78.91 63.2732C78.7445 63.0421 78.4861 62.9268 78.1344 62.9268C77.9709 62.9268 77.8268 62.9518 77.7028 63.0017ZM82.6477 63.2732C82.8164 63.0421 83.0767 62.9268 83.4282 62.9268C83.508 62.9268 83.583 62.9327 83.6532 62.9446C83.8333 62.975 83.9821 63.0448 84.0992 63.1537C84.1372 63.1894 84.1723 63.2293 84.2037 63.2732C84.3691 63.5042 84.452 63.8608 84.452 64.3433V67.5227C84.452 68.005 84.3673 68.3618 84.1986 68.5928C84.0332 68.8237 83.7764 68.9392 83.4282 68.9392C83.2762 68.9392 83.1406 68.9174 83.0228 68.8743C82.9708 68.8552 82.9224 68.832 82.8769 68.8046C82.7876 68.7503 82.7111 68.6798 82.6477 68.5928C82.4823 68.3618 82.3995 68.005 82.3995 67.5227V64.3433C82.3995 63.8608 82.4823 63.5042 82.6477 63.2732ZM84.9533 62.6374C84.6225 62.2651 84.1139 62.0791 83.4282 62.0791C83.0977 62.0791 82.8086 62.1216 82.5609 62.207C82.5014 62.2277 82.4445 62.2505 82.3898 62.2759C82.3378 62.3001 82.2879 62.3263 82.2403 62.3549C82.1104 62.4326 81.9962 62.5268 81.8981 62.6374C81.5672 63.006 81.4018 63.5747 81.4018 64.3433V67.5227C81.4018 68.2913 81.5672 68.8617 81.8981 69.2337C82.229 69.6026 82.7389 69.7869 83.4282 69.7869C84.1139 69.7869 84.6225 69.6009 84.9533 69.2286C85.2842 68.8564 85.4496 68.2877 85.4496 67.5227V64.3433C85.4496 63.5781 85.2842 63.0094 84.9533 62.6374ZM86.9022 69.575V62.291H88.448L89.8024 68.2102L91.1569 62.291H92.7077V69.575H91.7929V63.2112L90.3297 69.575H89.2751L87.8122 63.2112V69.575H86.9022Z" fill="#FC8A8A"/>
</svg>
