<svg width="62" height="62" viewBox="0 0 62 62" fill="none" xmlns="http://www.w3.org/2000/svg">
<g clip-path="url(#clip0)">
<path fill-rule="evenodd" clip-rule="evenodd" d="M29.2624 1.32087C29.8093 -0.44029 32.1907 -0.44029 32.7375 1.32087L36.0589 12.0166C36.3035 12.8043 37.0049 13.3376 37.7964 13.3376H48.5445C50.3143 13.3376 51.0503 15.7072 49.6183 16.7957L40.9231 23.406C40.2826 23.8928 40.0147 24.7556 40.2593 25.5433L41.3522 29.0625H57.1562C59.8313 29.0625 62 31.2311 62 33.9062C62 36.5814 59.8313 38.75 57.1562 38.75H50.3751V46.5C50.3751 48.6401 48.6402 50.375 46.5001 50.375H45.7251V38.75H43.7875V54.25C43.7875 56.3901 42.0526 58.125 39.9125 58.125H39.1375V38.75H36.8126V58.125C36.8126 60.2651 35.0777 62 32.9376 62H32.1626V38.75H29.8375V62H29.0625C26.9224 62 25.1875 60.2651 25.1875 58.125V38.75H22.8624V58.125H22.0874C19.9473 58.125 18.2124 56.3901 18.2124 54.25V38.75H16.275V50.375H15.5C13.3599 50.375 11.625 48.6401 11.625 46.5V38.75H4.84375C2.16871 38.75 0 36.5814 0 33.9062C0 31.2311 2.16871 29.0625 4.84375 29.0625H20.6478L21.7407 25.5433C21.9853 24.7556 21.7174 23.8928 21.0769 23.406L12.3817 16.7957C10.9497 15.7072 11.6857 13.3376 13.4555 13.3376H24.2036C24.9951 13.3376 25.6965 12.8043 25.9411 12.0166L29.2624 1.32087ZM29.8945 12.3152C30.2424 11.2442 31.7576 11.2442 32.1055 12.3152L33.436 16.4097C33.5916 16.8886 34.0379 17.2129 34.5417 17.2129H38.8467C39.9729 17.2129 40.4411 18.6541 39.5301 19.3159L36.0472 21.8465C35.6396 22.1424 35.4691 22.6671 35.6248 23.1461L36.9552 27.2406C37.3031 28.3116 36.0774 29.2022 35.1662 28.5403L31.6833 26.0098C31.2759 25.7138 30.7241 25.7138 30.3167 26.0098L26.8338 28.5403C25.9226 29.2022 24.6969 28.3116 25.0448 27.2406L26.3752 23.1461C26.5309 22.6671 26.3604 22.1424 25.9528 21.8465L22.4699 19.3159C21.5589 18.6541 22.0271 17.2129 23.1533 17.2129H27.4583C27.9621 17.2129 28.4084 16.8886 28.564 16.4097L29.8945 12.3152ZM26.6694 32.2435C26.4893 32.2435 26.3559 32.3026 26.2694 32.421C26.1846 32.5393 26.1422 32.722 26.1422 32.9693V34.5984C26.1422 34.8456 26.1846 35.0284 26.2694 35.1467C26.3559 35.265 26.4893 35.3242 26.6694 35.3242C26.8478 35.3242 26.9793 35.265 27.0641 35.1467C27.1123 35.0806 27.1472 34.9943 27.1685 34.8879C27.1854 34.804 27.1939 34.7075 27.1939 34.5984V34.4341H27.7051V34.5984C27.7051 34.9904 27.6203 35.2818 27.4508 35.4725C27.2813 35.6633 27.0208 35.7586 26.6694 35.7586C26.3161 35.7586 26.0548 35.6641 25.8853 35.4751C25.7158 35.2845 25.631 34.9922 25.631 34.5984V32.9693C25.631 32.5755 25.7158 32.2841 25.8853 32.0952C26.0548 31.9044 26.3161 31.8091 26.6694 31.8091C27.0208 31.8091 27.2813 31.9044 27.4508 32.0952C27.6203 32.2858 27.7051 32.5772 27.7051 32.9693V33.0223H27.1939V32.9693C27.1939 32.722 27.1514 32.5393 27.0667 32.421C26.9819 32.3026 26.8495 32.2435 26.6694 32.2435ZM14.8763 31.9177V35.65H15.3876V32.4607L16.2432 35.65H17.0458V31.9177H16.5372V35.107L15.6816 31.9177H14.8763ZM17.7902 31.9177V35.65H19.5173V35.2156H18.3014V33.915H19.4617V33.4805H18.3014V32.3521H19.5173V31.9177H17.7902ZM20.7358 34.2725H21.5384L21.1358 32.4872L20.7358 34.2725ZM19.8935 35.65L20.8126 31.9177H21.4616L22.3781 35.65H21.8536L21.6365 34.7017H20.6378L20.4206 35.65H19.8935ZM23.4297 32.3521H23.9224C24.2738 32.3521 24.4496 32.5269 24.4496 32.8766V33.0938C24.4496 33.4452 24.2738 33.621 23.9224 33.621H23.4297V32.3521ZM23.4297 34.0553H23.8695C24.0566 34.0553 24.1909 34.0985 24.2721 34.1852C24.3168 34.2327 24.3491 34.2963 24.3692 34.3759C24.3857 34.4411 24.394 34.517 24.394 34.6037V35.3136C24.394 35.3541 24.401 35.4134 24.4151 35.491C24.4224 35.53 24.4294 35.5629 24.4361 35.5897C24.4395 35.6035 24.4429 35.6157 24.4464 35.6262C24.4492 35.6353 24.452 35.6432 24.4548 35.65H24.9846C24.9652 35.6182 24.9467 35.5634 24.929 35.4858L24.9255 35.4663L24.9251 35.4649L24.9201 35.438L24.9171 35.4196L24.9126 35.3867C24.9076 35.347 24.9052 35.3102 24.9052 35.2765V34.6302C24.9052 34.3989 24.8628 34.2195 24.778 34.0924C24.7364 34.0277 24.6825 33.9742 24.6164 33.9318C24.5739 33.9044 24.5264 33.8817 24.4736 33.8636L24.4462 33.8547C24.426 33.8485 24.4049 33.843 24.3833 33.8381C24.5652 33.7833 24.7065 33.688 24.8072 33.5521C24.9078 33.4161 24.9582 33.2545 24.9582 33.0673V32.8501C24.9582 32.2285 24.6128 31.9177 23.9224 31.9177H22.9185V35.65H23.4297V34.0553ZM28.3435 31.9177V35.65H30.0706V35.2156H28.8547V33.915H30.015V33.4805H28.8547V32.3521H30.0706V31.9177H28.3435ZM30.6534 35.65V31.9177H31.1646V35.2156H32.2824V35.65H30.6534ZM32.7672 31.9177V35.65H34.4943V35.2156H33.2785V33.915H34.4387V33.4805H33.2785V32.3521H34.4943V31.9177H32.7672ZM36.1128 33.9467H35.5883V35.2156H36.1128C36.293 35.2156 36.4254 35.1687 36.5102 35.0751C36.5161 35.0687 36.5218 35.0619 36.5273 35.0549C36.5303 35.0511 36.5332 35.0472 36.536 35.0433C36.5421 35.035 36.548 35.0265 36.5535 35.0178C36.555 35.0153 36.5565 35.0129 36.558 35.0103C36.5606 35.0059 36.5631 35.0013 36.5656 34.9968C36.6152 34.9056 36.64 34.7852 36.64 34.6354V34.5268C36.64 34.329 36.5966 34.1833 36.5102 34.0898C36.4254 33.9944 36.293 33.9467 36.1128 33.9467ZM36.028 32.3521H35.5883V33.5124H36.028C36.3777 33.5124 36.5525 33.3366 36.5525 32.9852V32.8766C36.5525 32.5269 36.3777 32.3521 36.028 32.3521ZM36.028 31.9177C36.7184 31.9177 37.0638 32.2285 37.0638 32.8501V32.9587C37.0638 33.1388 37.017 33.2978 36.9234 33.4355C36.8874 33.4884 36.8466 33.5355 36.8008 33.5767C36.7272 33.6427 36.6409 33.6937 36.5419 33.7296C36.6253 33.7485 36.7007 33.7764 36.7678 33.8133C36.8572 33.8624 36.9319 33.9272 36.9922 34.0077C36.9987 34.0162 37.0047 34.025 37.0108 34.0338L37.0251 34.0558C37.0291 34.062 37.0329 34.0683 37.0366 34.0746C37.0385 34.0778 37.0403 34.081 37.0422 34.0843C37.0837 34.1576 37.1133 34.2401 37.1311 34.3316C37.1341 34.3467 37.1368 34.362 37.1391 34.3776C37.1421 34.399 37.1448 34.4209 37.1466 34.443C37.1496 34.4786 37.1512 34.5154 37.1512 34.5534V34.662C37.1512 35.3207 36.8051 35.65 36.1128 35.65H35.0771V31.9177H36.028ZM37.7525 35.107V35.65H38.2956V35.107H37.7525ZM39.8147 32.2819C39.7416 32.3113 39.682 32.3577 39.6359 32.421C39.5512 32.5393 39.5087 32.722 39.5087 32.9693V34.5984C39.5087 34.6385 39.5099 34.6769 39.5121 34.7136C39.5142 34.7495 39.5174 34.7839 39.5218 34.8165C39.5271 34.8565 39.5339 34.8939 39.5424 34.929C39.5636 35.0167 39.5948 35.0893 39.6359 35.1467C39.7223 35.265 39.8557 35.3242 40.0358 35.3242C40.2143 35.3242 40.3458 35.265 40.4306 35.1467C40.4981 35.0543 40.5394 34.9227 40.5541 34.7518C40.5569 34.7199 40.5587 34.6869 40.5596 34.6524L40.5598 34.6408L40.5604 34.5984V34.4341H41.0716V34.5984C41.0716 34.9904 40.9868 35.2818 40.8173 35.4725C40.6478 35.6633 40.3872 35.7586 40.0358 35.7586C39.6826 35.7586 39.4213 35.6641 39.2518 35.4751C39.0823 35.2845 38.9975 34.9922 38.9975 34.5984V32.9693C38.9975 32.5755 39.0823 32.2841 39.2518 32.0952C39.4213 31.9044 39.6826 31.8091 40.0358 31.8091C40.3872 31.8091 40.6478 31.9044 40.8173 32.0952C40.9868 32.2858 41.0716 32.5772 41.0716 32.9693V33.0223H40.5604V32.9693C40.5604 32.8475 40.5501 32.7415 40.5295 32.651C40.5083 32.5577 40.4761 32.481 40.4332 32.421C40.3484 32.3026 40.216 32.2435 40.0358 32.2435C39.952 32.2435 39.8782 32.2563 39.8147 32.2819ZM42.3484 32.421C42.4348 32.3026 42.5682 32.2435 42.7483 32.2435C42.7892 32.2435 42.8277 32.2465 42.8636 32.2526C42.9559 32.2682 43.0322 32.3039 43.0921 32.3597C43.1116 32.378 43.1296 32.3985 43.1457 32.421C43.2305 32.5393 43.2729 32.722 43.2729 32.9693V34.5984C43.2729 34.8456 43.2295 35.0284 43.1431 35.1467C43.0583 35.265 42.9268 35.3242 42.7483 35.3242C42.6704 35.3242 42.601 35.3131 42.5406 35.291C42.514 35.2812 42.4892 35.2693 42.4658 35.2552C42.4201 35.2274 42.3809 35.1913 42.3484 35.1467C42.2637 35.0284 42.2212 34.8456 42.2212 34.5984V32.9693C42.2212 32.722 42.2637 32.5393 42.3484 32.421ZM43.5298 32.0952C43.3603 31.9044 43.0997 31.8091 42.7483 31.8091C42.579 31.8091 42.4309 31.8309 42.304 31.8747C42.2734 31.8852 42.2443 31.897 42.2163 31.9099C42.1896 31.9223 42.1641 31.9358 42.1397 31.9504C42.0731 31.9903 42.0146 32.0385 41.9643 32.0952C41.7948 32.2841 41.71 32.5755 41.71 32.9693V34.5984C41.71 34.9922 41.7948 35.2845 41.9643 35.4751C42.1338 35.6641 42.3951 35.7586 42.7483 35.7586C43.0997 35.7586 43.3603 35.6633 43.5298 35.4725C43.6993 35.2818 43.7841 34.9904 43.7841 34.5984V32.9693C43.7841 32.5772 43.6993 32.2858 43.5298 32.0952ZM44.5284 35.65V31.9177H45.3204L46.0145 34.9507L46.7085 31.9177H47.5031V35.65H47.0344V32.3892L46.2846 35.65H45.7443L44.9947 32.3892V35.65H44.5284Z" fill="white"/>
</g>
<defs>
<clipPath id="clip0">
<rect width="62" height="62" fill="white"/>
</clipPath>
</defs>
</svg>
