<svg width="160" height="30" viewBox="0 0 160 30" fill="none" xmlns="http://www.w3.org/2000/svg">
<path d="M18.797 2.16234C19.0065 3.05844 19.216 4.03896 19.4255 5.1039C19.635 6.16883 19.838 7.27922 20.0344 8.43506C20.2439 9.57792 20.4468 10.7468 20.6433 11.9416C20.8528 13.1234 21.0557 14.2922 21.2521 15.4481C21.4617 16.5909 21.6581 17.7013 21.8414 18.7792C22.0378 19.8442 22.2342 20.8312 22.4306 21.7403C23.7532 19.1558 25.0233 16.7078 26.2411 14.3961C27.472 12.0844 28.6177 10.013 29.6784 8.18182C30.739 6.33766 31.7015 4.77273 32.5657 3.48701C33.4299 2.18831 34.1763 1.25974 34.8048 0.701299C35.0798 0.441558 35.3679 0.25974 35.669 0.155844C35.9702 0.0519481 36.2648 0 36.5529 0C36.9719 0 37.3255 0.103896 37.6136 0.311688C37.9147 0.519481 38.0653 0.785714 38.0653 1.11039C38.0653 1.30519 38.0326 1.46753 37.9671 1.5974C37.9016 1.72727 37.7969 1.87013 37.6528 2.02597C37.116 2.63636 36.6118 3.2013 36.1404 3.72078C35.669 4.22727 35.2042 4.76623 34.7459 5.33766C34.3007 5.8961 33.8489 6.52597 33.3906 7.22727C32.9454 7.92857 32.4806 8.76623 31.9961 9.74026C31.4068 10.8182 30.8176 11.9286 30.2283 13.0714C29.6391 14.2013 29.0695 15.3312 28.5195 16.461C27.9696 17.5779 27.4392 18.6623 26.9286 19.7143C26.431 20.7662 25.9727 21.7403 25.5536 22.6364C25.1346 23.5195 24.7549 24.3117 24.4144 25.013C24.074 25.7013 23.7925 26.2403 23.5699 26.6299C23.1901 27.4351 22.7515 28.0325 22.2539 28.4221C21.7694 28.8117 21.3242 29.013 20.9182 29.026H20.7808C20.5189 29.013 20.2635 28.961 20.0147 28.8701C19.7659 28.7792 19.5368 28.6429 19.3273 28.461C19.1178 28.2792 18.9344 28.0519 18.7773 27.7792C18.6333 27.4935 18.5351 27.1623 18.4827 26.7857C18.2732 25.9675 18.0833 25.1688 17.9131 24.3896C17.756 23.5974 17.6054 22.7922 17.4613 21.974C17.3173 21.1429 17.1667 20.2792 17.0096 19.3831C16.8655 18.474 16.7084 17.487 16.5382 16.4221C16.368 15.3571 16.1715 14.1948 15.9489 12.9351C15.7394 11.6753 15.4906 10.2792 15.2026 8.74675C14.8097 10.0455 14.3318 11.474 13.7687 13.0325C13.2057 14.5779 12.5837 16.1429 11.9028 17.7273C11.2219 19.2987 10.4886 20.8247 9.70292 22.3052C8.91726 23.7727 8.09232 25.0779 7.22809 26.2208C6.36386 27.3636 5.47344 28.2792 4.55684 28.9675C3.65333 29.6558 2.74327 30 1.82666 30C1.66953 30 1.48621 29.961 1.2767 29.8831C1.06719 29.8182 0.864228 29.7143 0.667812 29.5714C0.484491 29.4416 0.327359 29.2792 0.196415 29.0844C0.0654718 28.8896 0 28.6753 0 28.4416C0 28.2597 0.0327359 28.0974 0.0982077 27.9545C0.176774 27.7987 0.281529 27.6169 0.412472 27.4091C0.582699 27.1364 0.851134 26.9026 1.21778 26.7078C1.58442 26.5 2.00344 26.2727 2.47483 26.026C2.95933 25.7792 3.4831 25.4935 4.04616 25.1688C4.60922 24.8312 5.17227 24.3896 5.73533 23.8442C6.04959 23.5455 6.42278 23.013 6.8549 22.2468C7.28701 21.4675 7.75186 20.5519 8.24945 19.5C8.76013 18.4351 9.2839 17.2727 9.82077 16.013C10.3707 14.7403 10.9076 13.461 11.4314 12.1753C11.9552 10.8896 12.4527 9.63636 12.9241 8.41558C13.3955 7.18182 13.8146 6.07792 14.1812 5.1039C14.5609 4.11688 14.8686 3.2987 15.1043 2.64935C15.34 1.98701 15.4841 1.58442 15.5365 1.44156C15.6674 1.05195 15.8769 0.766234 16.165 0.584416C16.4662 0.402597 16.787 0.305195 17.1274 0.292208C17.1143 0.292208 17.1012 0.298701 17.0881 0.311688C17.1274 0.311688 17.1667 0.311688 17.206 0.311688C17.2584 0.298701 17.3042 0.292208 17.3435 0.292208C17.6316 0.292208 17.9131 0.435065 18.1881 0.720779C18.4761 0.993506 18.6791 1.47403 18.797 2.16234Z" fill="#FF7551"/>
<path d="M38.0653 16.9091C37.9998 16.8961 37.9409 16.8896 37.8885 16.8896C37.8362 16.8896 37.7772 16.8896 37.7118 16.8896C37.2142 16.8896 36.7493 16.987 36.3172 17.1818C35.8851 17.3766 35.4857 17.6364 35.1191 17.961C34.7655 18.2727 34.4447 18.6299 34.1566 19.0325C33.8817 19.4351 33.6329 19.8377 33.4103 20.2403C33.1877 20.6299 32.9978 21.0065 32.8407 21.3701C32.6966 21.7338 32.5853 22.039 32.5068 22.2857C32.9651 22.0519 33.4365 21.7857 33.9209 21.487C34.4185 21.1883 34.8834 20.9026 35.3155 20.6299C35.7476 20.3571 36.1208 20.1104 36.4351 19.8896C36.7624 19.6688 36.9916 19.5195 37.1225 19.4416C37.7118 19.0779 38.1177 18.7403 38.3403 18.4286C38.5629 18.1039 38.6742 17.8247 38.6742 17.5909C38.6742 17.3961 38.6087 17.2403 38.4778 17.1234C38.3599 17.0065 38.2224 16.9351 38.0653 16.9091ZM38.7724 14.2208C39.8592 14.2208 40.6711 14.4805 41.208 15C41.7448 15.5195 42.0133 16.2403 42.0133 17.1623C42.0133 17.7078 41.8692 18.2792 41.5811 18.8766C41.2931 19.474 40.7955 20.0844 40.0884 20.7078C39.3813 21.3182 38.4319 21.9481 37.2404 22.5974C36.0619 23.2338 34.5822 23.8766 32.8014 24.526C32.8668 24.9026 33.0698 25.2013 33.4103 25.4221C33.7507 25.6299 34.2025 25.7338 34.7655 25.7338C35.3679 25.7338 36.0095 25.6493 36.6904 25.4805C37.3844 25.2987 38.0653 25.0714 38.7331 24.7987C39.414 24.526 40.0753 24.2338 40.7169 23.9221C41.3585 23.5974 41.9347 23.2922 42.4454 23.0065C42.9691 22.7208 43.4013 22.474 43.7417 22.2662C44.0953 22.0584 44.331 21.9286 44.4488 21.8766C44.5667 21.7987 44.6714 21.7532 44.7631 21.7403C44.8678 21.7273 44.9595 21.7208 45.0381 21.7208C45.1952 21.7208 45.3261 21.7597 45.4309 21.8377C45.5356 21.9026 45.6208 21.987 45.6862 22.0909C45.7648 22.1818 45.8172 22.2857 45.8434 22.4026C45.8695 22.5065 45.8826 22.5974 45.8826 22.6753C45.8826 22.7922 45.8695 22.9351 45.8434 23.1039C45.8172 23.2597 45.719 23.4416 45.5487 23.6494C45.4833 23.7143 45.2607 23.8896 44.8809 24.1753C44.5143 24.461 44.0363 24.7987 43.4471 25.1883C42.8578 25.5779 42.1704 25.9935 41.3847 26.4351C40.6122 26.8636 39.7872 27.2597 38.9099 27.6234C38.0457 27.987 37.1422 28.2857 36.1994 28.5195C35.2566 28.7662 34.3269 28.8896 33.4103 28.8896C32.6246 28.8896 31.9241 28.7403 31.3086 28.4416C30.7063 28.1429 30.1891 27.7403 29.7569 27.2338C29.3379 26.7273 29.0171 26.1429 28.7945 25.4805C28.5719 24.8182 28.4606 24.1234 28.4606 23.3961C28.4606 22.8377 28.5719 22.2273 28.7945 21.5649C29.0171 20.8896 29.3379 20.2143 29.7569 19.539C30.176 18.8636 30.6866 18.2078 31.289 17.5714C31.9044 16.9221 32.5919 16.3506 33.3513 15.8571C34.1108 15.3636 34.9423 14.9675 35.8458 14.6688C36.7624 14.3701 37.7379 14.2208 38.7724 14.2208Z" fill="#FF7551"/>
<path d="M51.5394 17.7662C50.924 17.7662 50.3282 17.9221 49.752 18.2338C49.1759 18.5455 48.6652 18.9545 48.22 19.461C47.7748 19.9675 47.4212 20.539 47.1593 21.1753C46.8975 21.7987 46.7665 22.4286 46.7665 23.0649C46.7665 23.3247 46.7796 23.5974 46.8058 23.8831C46.8451 24.1558 46.9236 24.4091 47.0415 24.6429C47.1593 24.8766 47.323 25.0714 47.5325 25.2273C47.7551 25.3831 48.0498 25.461 48.4164 25.461C48.7045 25.461 49.0384 25.3377 49.4181 25.0909C49.811 24.8312 50.2103 24.5065 50.6163 24.1169C51.0353 23.7143 51.4412 23.2792 51.834 22.8117C52.2269 22.3312 52.5804 21.8636 52.8947 21.4091C53.2089 20.9545 53.4643 20.5455 53.6607 20.1818C53.8571 19.8182 53.9553 19.5519 53.9553 19.3831C53.9553 19.1364 53.8702 18.9156 53.7 18.7208C53.5298 18.513 53.3202 18.3377 53.0714 18.1948C52.8227 18.0519 52.5542 17.9481 52.2661 17.8831C51.9912 17.8052 51.7489 17.7662 51.5394 17.7662ZM65.151 22.7922C64.9153 23.013 64.601 23.3182 64.2082 23.7078C63.8154 24.0974 63.3636 24.5195 62.8529 24.974C62.3554 25.4286 61.8185 25.8896 61.2423 26.3571C60.6793 26.8117 60.0966 27.2273 59.4942 27.6039C58.905 27.9805 58.3223 28.2857 57.7461 28.5195C57.17 28.7662 56.6266 28.8896 56.1159 28.8896C55.6576 28.8896 55.2648 28.7922 54.9374 28.5974C54.61 28.4026 54.3351 28.1493 54.1124 27.8377C53.9029 27.526 53.7458 27.1753 53.6411 26.7857C53.5363 26.3831 53.4839 25.974 53.4839 25.5584C53.4839 25.2857 53.5036 25.0195 53.5428 24.7597C53.5821 24.487 53.6476 24.2338 53.7393 24C53.3333 24.5455 52.8685 25.1104 52.3447 25.6948C51.834 26.2662 51.2775 26.7922 50.6752 27.2727C50.0859 27.7403 49.464 28.1234 48.8092 28.4221C48.1676 28.7338 47.5129 28.8896 46.8451 28.8896C46.5046 28.8896 46.1052 28.8182 45.6469 28.6753C45.2017 28.5455 44.7762 28.3247 44.3702 28.013C43.9643 27.7013 43.6239 27.2987 43.3489 26.8052C43.0739 26.3117 42.9364 25.7078 42.9364 24.9935C42.9364 24.461 43.015 23.8247 43.1721 23.0844C43.3423 22.3442 43.5911 21.5779 43.9185 20.7857C44.2589 19.9805 44.6845 19.1883 45.1952 18.4091C45.719 17.6299 46.3344 16.9351 47.0415 16.3247C47.7486 15.7013 48.5539 15.2013 49.4574 14.8247C50.3609 14.4351 51.3692 14.2403 52.4822 14.2403C53.0584 14.2403 53.5625 14.3117 53.9946 14.4545C54.4267 14.5974 54.7934 14.7532 55.0945 14.9221C55.435 15.1299 55.7361 15.3571 55.998 15.6039C56.2206 15.487 56.4498 15.3766 56.6855 15.2727C56.8819 15.1818 57.0849 15.1039 57.2944 15.039C57.517 14.961 57.7069 14.9221 57.864 14.9221C58.3616 14.9221 58.7675 15.0584 59.0818 15.3312C59.396 15.6039 59.5532 15.9026 59.5532 16.2273C59.5532 16.3182 59.5466 16.3896 59.5335 16.4416C59.468 16.6883 59.3633 17 59.2192 17.3766C59.0883 17.7532 58.9377 18.1753 58.7675 18.6429C58.5973 19.0974 58.4205 19.5779 58.2372 20.0844C58.0669 20.5779 57.9098 21.0649 57.7658 21.5455C57.6217 22.026 57.5039 22.4805 57.4122 22.9091C57.3206 23.3247 57.2747 23.6818 57.2747 23.9805C57.2747 24.3701 57.3402 24.6948 57.4712 24.9545C57.6021 25.2013 57.8247 25.3247 58.139 25.3247C58.3354 25.3247 58.5645 25.2662 58.8264 25.1494C59.1014 25.0195 59.396 24.8506 59.7103 24.6429C60.0246 24.4351 60.3454 24.2013 60.6727 23.9416C61.0132 23.6688 61.3405 23.3961 61.6548 23.1234C62.3881 22.474 63.1672 21.7338 63.9921 20.9026C64.2017 20.7338 64.4046 20.6494 64.601 20.6494C64.8629 20.6494 65.079 20.7792 65.2492 21.039C65.4325 21.2857 65.5242 21.5649 65.5242 21.8766C65.5242 22.2403 65.3998 22.5455 65.151 22.7922Z" fill="#FF7551"/>
<path d="M69.9632 17.0455C70.4739 16.7338 70.9976 16.4481 71.5345 16.1883C72.0845 15.9286 72.6148 15.7078 73.1255 15.526C73.6361 15.3312 74.1206 15.1818 74.5789 15.0779C75.0503 14.961 75.4694 14.9026 75.836 14.9026C76.4252 14.9026 76.877 15.0455 77.1913 15.3312C77.5186 15.6039 77.6823 16.0714 77.6823 16.7338C77.6823 16.8766 77.6758 17.0325 77.6627 17.2013C77.6496 17.3571 77.6234 17.526 77.5841 17.7078C77.5186 18.0455 77.3222 18.4416 76.9949 18.8961C76.6675 19.3506 76.2812 19.8247 75.836 20.3182C75.4039 20.8117 74.9325 21.3117 74.4218 21.8182C73.9242 22.3117 73.4594 22.7727 73.0273 23.2013C72.6082 23.6169 72.2547 23.9805 71.9666 24.2922C71.6916 24.6039 71.5541 24.8182 71.5541 24.9351C71.5541 25.039 71.5607 25.1104 71.5738 25.1494C71.5869 25.1883 71.6458 25.2078 71.7506 25.2078C72.4576 24.9091 73.2433 24.5519 74.1075 24.1364C74.9849 23.7078 75.8556 23.2727 76.7199 22.8312C77.5841 22.3896 78.4025 21.961 79.1751 21.5455C79.9476 21.1169 80.6023 20.7468 81.1392 20.4351C81.2571 20.3701 81.3749 20.3182 81.4928 20.2792C81.6237 20.2273 81.7416 20.2013 81.8463 20.2013C82.082 20.2013 82.2784 20.2792 82.4356 20.4351C82.5927 20.5909 82.6712 20.7987 82.6712 21.0584C82.6712 21.3571 82.5403 21.7013 82.2784 22.0909C82.0296 22.4675 81.6041 22.8636 81.0017 23.2792C80.5434 23.5649 80.0262 23.8896 79.45 24.2532C78.887 24.6039 78.2912 24.974 77.6627 25.3636C77.0472 25.7403 76.4187 26.1104 75.7771 26.474C75.1485 26.8377 74.5396 27.1623 73.9504 27.4481C73.3612 27.7338 72.8046 27.9675 72.2809 28.1493C71.7702 28.3182 71.325 28.4026 70.9453 28.4026C70.0417 28.4026 69.3608 28.1883 68.9025 27.7597C68.4573 27.3312 68.2347 26.7792 68.2347 26.1039C68.2347 26 68.2413 25.9221 68.2544 25.8701C68.346 25.2987 68.5163 24.7468 68.765 24.2143C69.0138 23.6818 69.2954 23.1753 69.6096 22.6948C69.9239 22.2143 70.2513 21.7597 70.5917 21.3312C70.9322 20.8896 71.2399 20.4805 71.5149 20.1039C71.8029 19.7143 72.0386 19.3571 72.222 19.0325C72.4053 18.7078 72.4969 18.4091 72.4969 18.1364C72.4969 18.0714 72.4838 18.0065 72.4576 17.9416C72.4315 17.8766 72.3725 17.8442 72.2809 17.8442C72.1237 17.8442 71.8619 17.9026 71.4952 18.0195C71.1417 18.1364 70.7619 18.2922 70.356 18.487C69.9501 18.6818 69.5638 18.9091 69.1972 19.1688C68.8305 19.4156 68.5686 19.6818 68.4115 19.9675C68.202 20.3312 67.9597 20.7922 67.6848 21.3506C67.4098 21.9091 67.1217 22.4935 66.8205 23.1039C66.5324 23.7143 66.2509 24.3182 65.9759 24.9156C65.701 25.513 65.4653 26.026 65.2688 26.4545C65.1117 26.8312 64.9022 27.1688 64.6403 27.4675C64.3915 27.7662 64.1165 28.0195 63.8154 28.2273C63.5142 28.4351 63.2065 28.5974 62.8922 28.7143C62.578 28.8312 62.2899 28.8896 62.028 28.8896C61.7268 28.8896 61.4846 28.8117 61.3013 28.6558C61.131 28.5 61.0459 28.2468 61.0459 27.8961C61.0459 27.7532 61.0656 27.5779 61.1048 27.3701C61.1572 27.1493 61.2554 26.9091 61.3995 26.6493C61.6352 26.2078 61.8709 25.7273 62.1066 25.2078C62.3554 24.6883 62.6369 24.0974 62.9511 23.4351C63.2654 22.7597 63.6255 21.9935 64.0314 21.1364C64.4504 20.2662 64.9415 19.2662 65.5045 18.1364C65.3212 17.9805 65.1641 17.7922 65.0331 17.5714C64.9153 17.3377 64.8564 17.0519 64.8564 16.7143C64.8564 16.4026 64.9218 16.1364 65.0528 15.9156C65.1837 15.6818 65.3605 15.4935 65.5831 15.3506C65.8057 15.2078 66.0611 15.1039 66.3491 15.039C66.6503 14.961 66.9646 14.9221 67.2919 14.9221C67.6324 14.9221 67.9728 14.9545 68.3133 15.0195C68.6537 15.0714 68.9549 15.1558 69.2168 15.2727C69.4918 15.3896 69.7144 15.5325 69.8846 15.7013C70.0548 15.8701 70.1399 16.0649 70.1399 16.2857C70.1399 16.3247 70.1269 16.3766 70.1007 16.4416C70.0745 16.5065 70.0417 16.5779 70.0025 16.6558C69.9763 16.7338 69.9501 16.8052 69.9239 16.8701C69.8977 16.9351 69.8846 16.987 69.8846 17.026C69.8846 17.0519 69.8912 17.0649 69.9043 17.0649H69.9239L69.9632 17.0455Z" fill="#FF7551"/>
<path d="M104.414 3.7987C104.414 4.14935 104.356 4.57143 104.238 5.06494C104.133 5.55844 103.976 6.07143 103.766 6.6039C103.557 7.13636 103.301 7.66883 103 8.2013C102.712 8.72078 102.378 9.19481 101.999 9.62338C101.619 10.039 101.206 10.3766 100.761 10.6364C100.316 10.8961 99.838 11.026 99.3273 11.026C99.2094 11.026 99.0523 11.0195 98.8559 11.0065C98.6726 10.9805 98.4827 10.9351 98.2863 10.8701C98.103 10.7922 97.9393 10.6818 97.7952 10.539C97.6643 10.3961 97.5988 10.2078 97.5988 9.97403C97.5988 9.81818 97.6381 9.63636 97.7167 9.42857C97.8083 9.22078 97.9655 8.98052 98.1881 8.70779C98.4238 8.44805 98.6791 8.14286 98.9541 7.79221C99.2291 7.42857 99.4779 7.05195 99.7005 6.66234C99.9231 6.27273 100.106 5.88961 100.25 5.51299C100.408 5.13636 100.486 4.7987 100.486 4.5C100.486 4.12338 100.394 3.82468 100.211 3.6039C100.041 3.37013 99.7398 3.25325 99.3076 3.25325C98.7446 3.25325 98.1095 3.43506 97.4024 3.7987C96.6953 4.16234 95.9555 4.66234 95.1829 5.2987C94.4103 5.93506 93.6247 6.68182 92.8259 7.53896C92.0272 8.38312 91.2546 9.29221 90.5082 10.2662C89.7618 11.2273 89.0548 12.2338 88.3869 13.2857C87.7322 14.3247 87.1561 15.3571 86.6585 16.3831C86.174 17.3961 85.7877 18.3766 85.4996 19.3247C85.2247 20.2597 85.0872 21.1104 85.0872 21.8766C85.0872 22.8247 85.3425 23.5844 85.8532 24.1558C86.3639 24.7273 87.2085 25.013 88.3869 25.013C88.9369 25.013 89.7553 24.8052 90.8421 24.3896C91.929 23.961 92.8325 23.539 93.5527 23.1234C94.2859 22.6948 95.0192 22.2273 95.7525 21.7208C96.4989 21.2013 97.206 20.7078 97.8738 20.2403C98.5416 19.7597 99.1505 19.3312 99.7005 18.9545C100.25 18.5649 100.702 18.2922 101.056 18.1364C101.121 18.0844 101.2 18.0584 101.291 18.0584C101.488 18.0584 101.619 18.2208 101.684 18.5455C101.763 18.8571 101.802 19.2143 101.802 19.6169C101.802 19.8377 101.769 20.1104 101.704 20.4351C101.652 20.7468 101.468 21.1104 101.154 21.526C101.01 21.6948 100.741 21.9805 100.349 22.3831C99.9558 22.7857 99.4648 23.2403 98.8755 23.7468C98.2863 24.2532 97.6119 24.7792 96.8524 25.3247C96.093 25.8701 95.268 26.3701 94.3776 26.8247C93.5003 27.2792 92.3611 27.7273 90.96 28.1688C89.572 28.6104 88.3608 28.8312 87.3263 28.8312C86.1085 28.8312 85.0675 28.6883 84.2033 28.4026C83.3391 28.1039 82.632 27.6948 82.082 27.1753C81.532 26.6558 81.1261 26.039 80.8642 25.3247C80.6154 24.5974 80.491 23.8052 80.491 22.9481C80.491 21.8831 80.6547 20.7403 80.9821 19.5195C81.3094 18.2987 81.7612 17.0584 82.3373 15.7987C82.9266 14.539 83.6206 13.2792 84.4193 12.0195C85.2312 10.7597 86.1151 9.55844 87.071 8.41558C88.0399 7.25974 89.0678 6.18831 90.1547 5.2013C91.2415 4.21429 92.3545 3.35714 93.4937 2.62987C94.6329 1.9026 95.7787 1.33117 96.931 0.915584C98.0833 0.5 99.216 0.292208 100.329 0.292208C100.879 0.292208 101.403 0.357143 101.9 0.487013C102.398 0.603896 102.83 0.798701 103.197 1.07143C103.576 1.34416 103.871 1.70779 104.081 2.16234C104.303 2.6039 104.414 3.14935 104.414 3.7987Z" fill="#FF7551"/>
<path d="M108.225 16.9091C108.159 16.8961 108.101 16.8896 108.048 16.8896C107.996 16.8896 107.937 16.8896 107.871 16.8896C107.374 16.8896 106.909 16.987 106.477 17.1818C106.045 17.3766 105.645 17.6364 105.279 17.961C104.925 18.2727 104.604 18.6299 104.316 19.0325C104.041 19.4351 103.792 19.8377 103.57 20.2403C103.347 20.6299 103.157 21.0065 103 21.3701C102.856 21.7338 102.745 22.039 102.666 22.2857C103.125 22.0519 103.596 21.7857 104.081 21.487C104.578 21.1883 105.043 20.9026 105.475 20.6299C105.907 20.3571 106.28 20.1104 106.595 19.8896C106.922 19.6688 107.151 19.5195 107.282 19.4416C107.871 19.0779 108.277 18.7403 108.5 18.4286C108.722 18.1039 108.834 17.8247 108.834 17.5909C108.834 17.3961 108.768 17.2403 108.637 17.1234C108.52 17.0065 108.382 16.9351 108.225 16.9091ZM108.932 14.2208C110.019 14.2208 110.831 14.4805 111.368 15C111.904 15.5195 112.173 16.2403 112.173 17.1623C112.173 17.7078 112.029 18.2792 111.741 18.8766C111.453 19.474 110.955 20.0844 110.248 20.7078C109.541 21.3182 108.592 21.9481 107.4 22.5974C106.221 23.2338 104.742 23.8766 102.961 24.526C103.026 24.9026 103.229 25.2013 103.57 25.4221C103.91 25.6299 104.362 25.7338 104.925 25.7338C105.527 25.7338 106.169 25.6493 106.85 25.4805C107.544 25.2987 108.225 25.0714 108.893 24.7987C109.574 24.526 110.235 24.2338 110.877 23.9221C111.518 23.5974 112.094 23.2922 112.605 23.0065C113.129 22.7208 113.561 22.474 113.901 22.2662C114.255 22.0584 114.491 21.9286 114.608 21.8766C114.726 21.7987 114.831 21.7532 114.923 21.7403C115.027 21.7273 115.119 21.7208 115.198 21.7208C115.355 21.7208 115.486 21.7597 115.59 21.8377C115.695 21.9026 115.78 21.987 115.846 22.0909C115.924 22.1818 115.977 22.2857 116.003 22.4026C116.029 22.5065 116.042 22.5974 116.042 22.6753C116.042 22.7922 116.029 22.9351 116.003 23.1039C115.977 23.2597 115.879 23.4416 115.708 23.6494C115.643 23.7143 115.42 23.8896 115.041 24.1753C114.674 24.461 114.196 24.7987 113.607 25.1883C113.017 25.5779 112.33 25.9935 111.544 26.4351C110.772 26.8636 109.947 27.2597 109.069 27.6234C108.205 27.987 107.302 28.2857 106.359 28.5195C105.416 28.7662 104.486 28.8896 103.57 28.8896C102.784 28.8896 102.084 28.7403 101.468 28.4416C100.866 28.1429 100.349 27.7403 99.9165 27.2338C99.4975 26.7273 99.1767 26.1429 98.9541 25.4805C98.7315 24.8182 98.6202 24.1234 98.6202 23.3961C98.6202 22.8377 98.7315 22.2273 98.9541 21.5649C99.1767 20.8896 99.4975 20.2143 99.9165 19.539C100.336 18.8636 100.846 18.2078 101.449 17.5714C102.064 16.9221 102.751 16.3506 103.511 15.8571C104.27 15.3636 105.102 14.9675 106.005 14.6688C106.922 14.3701 107.898 14.2208 108.932 14.2208Z" fill="#FF7551"/>
<path d="M117.24 22.7727C117.096 23.0714 116.952 23.4221 116.808 23.8247C116.677 24.2143 116.612 24.5649 116.612 24.8766C116.612 25.0714 116.651 25.2273 116.73 25.3442C116.808 25.461 116.959 25.5195 117.181 25.5195C117.456 25.5195 117.797 25.4416 118.203 25.2857C118.622 25.1169 119.067 24.9026 119.538 24.6429C120.023 24.3701 120.521 24.0649 121.031 23.7273C121.555 23.3766 122.072 23.0195 122.583 22.6558C123.094 22.2792 123.578 21.9091 124.036 21.5455C124.508 21.1688 124.927 20.8247 125.293 20.513C125.398 20.4221 125.523 20.3571 125.667 20.3182C125.811 20.2792 125.935 20.2597 126.04 20.2597C126.302 20.2597 126.518 20.3506 126.688 20.5325C126.858 20.7143 126.943 20.9545 126.943 21.2532C126.943 21.526 126.852 21.8312 126.668 22.1688C126.485 22.5065 126.164 22.8377 125.706 23.1623C124.868 23.9286 124.023 24.6558 123.172 25.3442C122.321 26.0325 121.47 26.6429 120.619 27.1753C119.781 27.6948 118.943 28.1104 118.105 28.4221C117.28 28.7338 116.474 28.8896 115.689 28.8896C115.152 28.8896 114.7 28.8182 114.333 28.6753C113.98 28.5325 113.692 28.3377 113.469 28.0909C113.26 27.8442 113.109 27.5519 113.017 27.2143C112.926 26.8766 112.88 26.5195 112.88 26.1429C112.88 25.5065 112.972 24.8571 113.155 24.1948C113.351 23.5195 113.58 22.9026 113.842 22.3442C114.301 21.3312 114.766 20.3247 115.237 19.3247C115.708 18.3247 116.14 17.4091 116.533 16.5779L122.485 4.01299C122.72 3.50649 123.035 3.14935 123.427 2.94156C123.833 2.73377 124.239 2.62987 124.645 2.62987C125.051 2.62987 125.418 2.74026 125.745 2.96104C126.086 3.18182 126.256 3.53896 126.256 4.03247C126.256 4.26623 126.197 4.51299 126.079 4.77273C125.974 5.03247 125.837 5.31169 125.667 5.61039C125.339 6.22078 124.946 6.96753 124.488 7.85065C124.043 8.73377 123.558 9.69481 123.035 10.7338C122.524 11.7727 121.994 12.8571 121.444 13.987C120.907 15.1039 120.376 16.1948 119.853 17.2597C119.342 18.3247 118.858 19.3377 118.399 20.2987C117.954 21.2468 117.568 22.0714 117.24 22.7727Z" fill="#FF7551"/>
<path d="M132.423 16.9091C132.358 16.8961 132.299 16.8896 132.247 16.8896C132.194 16.8896 132.135 16.8896 132.07 16.8896C131.572 16.8896 131.107 16.987 130.675 17.1818C130.243 17.3766 129.844 17.6364 129.477 17.961C129.124 18.2727 128.803 18.6299 128.515 19.0325C128.24 19.4351 127.991 19.8377 127.768 20.2403C127.546 20.6299 127.356 21.0065 127.199 21.3701C127.055 21.7338 126.943 22.039 126.865 22.2857C127.323 22.0519 127.794 21.7857 128.279 21.487C128.777 21.1883 129.241 20.9026 129.673 20.6299C130.106 20.3571 130.479 20.1104 130.793 19.8896C131.12 19.6688 131.35 19.5195 131.48 19.4416C132.07 19.0779 132.476 18.7403 132.698 18.4286C132.921 18.1039 133.032 17.8247 133.032 17.5909C133.032 17.3961 132.967 17.2403 132.836 17.1234C132.718 17.0065 132.58 16.9351 132.423 16.9091ZM133.13 14.2208C134.217 14.2208 135.029 14.4805 135.566 15C136.103 15.5195 136.371 16.2403 136.371 17.1623C136.371 17.7078 136.227 18.2792 135.939 18.8766C135.651 19.474 135.153 20.0844 134.446 20.7078C133.739 21.3182 132.79 21.9481 131.598 22.5974C130.42 23.2338 128.94 23.8766 127.159 24.526C127.225 24.9026 127.428 25.2013 127.768 25.4221C128.109 25.6299 128.56 25.7338 129.124 25.7338C129.726 25.7338 130.367 25.6493 131.048 25.4805C131.742 25.2987 132.423 25.0714 133.091 24.7987C133.772 24.526 134.433 24.2338 135.075 23.9221C135.717 23.5974 136.293 23.2922 136.803 23.0065C137.327 22.7208 137.759 22.474 138.1 22.2662C138.453 22.0584 138.689 21.9286 138.807 21.8766C138.925 21.7987 139.029 21.7532 139.121 21.7403C139.226 21.7273 139.317 21.7208 139.396 21.7208C139.553 21.7208 139.684 21.7597 139.789 21.8377C139.894 21.9026 139.979 21.987 140.044 22.0909C140.123 22.1818 140.175 22.2857 140.201 22.4026C140.228 22.5065 140.241 22.5974 140.241 22.6753C140.241 22.7922 140.228 22.9351 140.201 23.1039C140.175 23.2597 140.077 23.4416 139.907 23.6494C139.841 23.7143 139.619 23.8896 139.239 24.1753C138.872 24.461 138.394 24.7987 137.805 25.1883C137.216 25.5779 136.528 25.9935 135.743 26.4351C134.97 26.8636 134.145 27.2597 133.268 27.6234C132.404 27.987 131.5 28.2857 130.557 28.5195C129.615 28.7662 128.685 28.8896 127.768 28.8896C126.983 28.8896 126.282 28.7403 125.667 28.4416C125.064 28.1429 124.547 27.7403 124.115 27.2338C123.696 26.7273 123.375 26.1429 123.152 25.4805C122.93 24.8182 122.819 24.1234 122.819 23.3961C122.819 22.8377 122.93 22.2273 123.152 21.5649C123.375 20.8896 123.696 20.2143 124.115 19.539C124.534 18.8636 125.045 18.2078 125.647 17.5714C126.262 16.9221 126.95 16.3506 127.709 15.8571C128.469 15.3636 129.3 14.9675 130.204 14.6688C131.12 14.3701 132.096 14.2208 133.13 14.2208Z" fill="#FF7551"/>
<path d="M147.999 17.474C147.253 17.474 146.506 17.6558 145.76 18.0195C145.014 18.3701 144.339 18.8377 143.737 19.4221C143.148 20.0065 142.663 20.6688 142.283 21.4091C141.904 22.1364 141.714 22.8766 141.714 23.6299C141.714 23.8377 141.733 24.0519 141.773 24.2727C141.812 24.4805 141.891 24.6753 142.008 24.8571C142.139 25.039 142.323 25.1883 142.558 25.3052C142.794 25.4221 143.108 25.4805 143.501 25.4805C144.261 25.4805 144.994 25.3052 145.701 24.9545C146.421 24.5909 147.063 24.1169 147.626 23.5325C148.189 22.9481 148.641 22.2922 148.981 21.5649C149.322 20.8247 149.492 20.0844 149.492 19.3442C149.492 19.1494 149.472 18.9416 149.433 18.7208C149.407 18.5 149.341 18.2987 149.236 18.1169C149.132 17.9351 148.981 17.7857 148.785 17.6688C148.588 17.539 148.326 17.474 147.999 17.474ZM149.649 25.3247C148.536 26.6493 147.351 27.6234 146.094 28.2468C144.85 28.8571 143.501 29.1623 142.048 29.1623C141.249 29.1623 140.575 29.0455 140.025 28.8117C139.475 28.5909 139.029 28.2857 138.689 27.8961C138.348 27.5065 138.1 27.0519 137.943 26.5325C137.799 26.013 137.727 25.461 137.727 24.8766C137.727 24.2143 137.812 23.5325 137.982 22.8312C138.152 22.1169 138.375 21.4286 138.65 20.7662C138.833 20.3377 138.984 19.9805 139.101 19.6948C139.219 19.4091 139.317 19.1688 139.396 18.974C139.475 18.7662 139.54 18.5909 139.592 18.4481C139.658 18.2922 139.723 18.1364 139.789 17.9805C139.854 17.8117 139.933 17.6234 140.025 17.4156C140.116 17.1948 140.241 16.9156 140.398 16.5779L146.133 3.93506C146.212 3.76623 146.323 3.6039 146.467 3.44805C146.624 3.29221 146.801 3.15584 146.997 3.03896C147.194 2.90909 147.403 2.81169 147.626 2.74675C147.862 2.66883 148.097 2.62987 148.333 2.62987C148.935 2.62987 149.354 2.74675 149.59 2.98052C149.839 3.21429 149.963 3.5 149.963 3.83766C149.963 4.0974 149.898 4.38312 149.767 4.69481C149.636 4.99351 149.492 5.27273 149.335 5.53247C148.366 7.37662 147.449 9.25325 146.585 11.1623C145.721 13.0584 144.804 14.9351 143.835 16.7922C144.254 16.4675 144.699 16.1558 145.171 15.8571C145.642 15.5455 146.133 15.2727 146.644 15.039C147.154 14.7922 147.685 14.5974 148.235 14.4545C148.785 14.2987 149.348 14.2208 149.924 14.2208C150.33 14.2208 150.742 14.2987 151.161 14.4545C151.58 14.6104 151.96 14.8377 152.301 15.1364C152.654 15.4351 152.936 15.8052 153.145 16.2468C153.368 16.6753 153.479 17.1753 153.479 17.7468C153.479 17.8766 153.44 18.1364 153.361 18.526C153.283 18.9156 153.165 19.3571 153.008 19.8506C152.864 20.3312 152.68 20.8312 152.458 21.3506C152.248 21.8571 152.012 22.3052 151.751 22.6948C151.842 22.8377 151.96 22.9286 152.104 22.9675C152.248 22.9935 152.412 23.0065 152.595 23.0065C153.197 23.0065 153.793 22.9286 154.383 22.7727C154.985 22.6169 155.548 22.4286 156.072 22.2078C156.609 21.974 157.1 21.7338 157.545 21.487C157.99 21.2403 158.363 21.026 158.664 20.8442C158.822 20.6753 158.992 20.5909 159.175 20.5909C159.398 20.5909 159.588 20.6883 159.745 20.8831C159.915 21.0779 160 21.3312 160 21.6429C160 21.9416 159.935 22.2403 159.804 22.539C159.686 22.8247 159.463 23.1429 159.136 23.4935C158.547 23.8442 157.951 24.1753 157.348 24.487C156.759 24.7987 156.157 25.0714 155.541 25.3052C154.926 25.526 154.297 25.7078 153.656 25.8506C153.027 25.9805 152.386 26.0455 151.731 26.0455C151.312 26.0455 150.926 25.987 150.572 25.8701C150.219 25.7532 149.911 25.5714 149.649 25.3247Z" fill="#FF7551"/>
</svg>
