<svg width="87" height="87" viewBox="0 0 87 87" fill="none" xmlns="http://www.w3.org/2000/svg">
<rect x="1.5" y="1.5" width="84" height="84" rx="42" fill="#1F1D2B" fill-opacity="0.6" stroke="white" stroke-width="3"/>
<path d="M41 26.5001H45.25V28.6251H41V26.5001Z" fill="white"/>
<path d="M36.75 28.625C37.9236 28.625 38.875 27.6736 38.875 26.5C38.875 25.3264 37.9236 24.375 36.75 24.375C35.5764 24.375 34.625 25.3264 34.625 26.5C34.625 27.6736 35.5764 28.625 36.75 28.625Z" fill="white"/>
<path d="M49.5 28.625C50.6736 28.625 51.625 27.6736 51.625 26.5C51.625 25.3264 50.6736 24.375 49.5 24.375C48.3264 24.375 47.375 25.3264 47.375 26.5C47.375 27.6736 48.3264 28.625 49.5 28.625Z" fill="white"/>
<path d="M55.875 39.25H45.25V35L51.625 34.9788C53.3121 34.9788 54.9304 34.31 56.1253 33.1191C57.3202 31.9281 57.9944 30.3121 58 28.625V24.375C57.995 22.6858 57.3217 21.0672 56.1272 19.8728C54.9328 18.6783 53.3142 18.005 51.625 18H34.625C32.9358 18.005 31.3172 18.6783 30.1228 19.8728C28.9283 21.0672 28.255 22.6858 28.25 24.375V28.625C28.255 30.3142 28.9283 31.9328 30.1228 33.1272C31.3172 34.3217 32.9358 34.995 34.625 35H41V39.25H30.375C28.6858 39.255 27.0672 39.9283 25.8728 41.1228C24.6783 42.3172 24.005 43.9358 24 45.625V62.625C24.005 64.3142 24.6783 65.9328 25.8728 67.1272C27.0672 68.3217 28.6858 68.995 30.375 69H55.875C57.5642 68.995 59.1828 68.3217 60.3772 67.1272C61.5717 65.9328 62.245 64.3142 62.25 62.625V45.625C62.245 43.9358 61.5717 42.3172 60.3772 41.1228C59.1828 39.9283 57.5642 39.255 55.875 39.25ZM34.625 30.75C34.0619 30.7483 33.5224 30.5239 33.1243 30.1257C32.7261 29.7276 32.5017 29.1881 32.5 28.625V24.375C32.5017 23.8119 32.7261 23.2724 33.1243 22.8743C33.5224 22.4761 34.0619 22.2517 34.625 22.25H51.6038C52.169 22.2511 52.711 22.4746 53.1127 22.8723C53.5144 23.27 53.7433 23.8098 53.75 24.375V28.625C53.7433 29.1902 53.5144 29.73 53.1127 30.1277C52.711 30.5254 52.169 30.7489 51.6038 30.75H34.625ZM44.0494 60.653L43.125 61.5625L42.2006 60.6445C38.9175 57.3996 36.75 55.2598 36.75 52.6333C36.7255 52.1512 36.7971 51.6692 36.9607 51.2151C37.1243 50.7611 37.3766 50.3441 37.7029 49.9885C38.0292 49.6329 38.423 49.3458 38.8614 49.1439C39.2998 48.942 39.7739 48.8294 40.2562 48.8125C40.8128 48.8229 41.3599 48.9588 41.8566 49.2101C42.3534 49.4614 42.7869 49.8216 43.125 50.2639C43.4631 49.8216 43.8966 49.4614 44.3934 49.2101C44.8901 48.9588 45.4372 48.8229 45.9938 48.8125C46.4761 48.8294 46.9502 48.942 47.3886 49.1439C47.827 49.3458 48.2208 49.6329 48.5471 49.9885C48.8734 50.3441 49.1257 50.7611 49.2893 51.2151C49.4529 51.6692 49.5245 52.1512 49.5 52.6333C49.5 55.2598 47.3325 57.3996 44.0494 60.653Z" fill="white"/>
</svg>
