<svg width="87" height="87" viewBox="0 0 87 87" fill="none" xmlns="http://www.w3.org/2000/svg">
<rect x="1.5" y="1.5" width="84" height="84" rx="42" fill="#1F1D2B" fill-opacity="0.7" stroke="white" stroke-width="3"/>
<path d="M45.85 53.1053H55.25V46.1579L67 56.5789L55.25 67V60.0526H45.85V53.1053ZM62.3 23H24.7C23.4535 23 22.258 23.488 21.3766 24.3566C20.4952 25.2251 20 26.4032 20 27.6316V55.4211C20 56.6494 20.4952 57.8275 21.3766 58.6961C22.258 59.5647 23.4535 60.0526 24.7 60.0526H41.15V55.4211H24.7V32.2632L43.5 43.8421L62.3 32.2632V46.1579H67V27.6316C67 26.4032 66.5048 25.2251 65.6234 24.3566C64.742 23.488 63.5465 23 62.3 23ZM43.5 39.2105L24.7 27.6316H62.3L43.5 39.2105Z" fill="white"/>
</svg>
