<svg width="87" height="87" viewBox="0 0 87 87" fill="none" xmlns="http://www.w3.org/2000/svg">
<rect x="1.5" y="1.5" width="84" height="84" rx="42" fill="#1F1D2B" fill-opacity="0.6" stroke="white" stroke-width="3"/>
<path d="M32.4545 57.8125C30.7191 57.8125 29.3182 56.3888 29.3182 54.625C29.3182 52.8612 30.7191 51.4375 32.4545 51.4375C34.19 51.4375 35.5909 52.8612 35.5909 54.625C35.5909 56.3888 34.19 57.8125 32.4545 57.8125ZM29.3182 38.6875H34.5455V44H25.22L29.3182 38.6875ZM57.5455 57.8125C55.81 57.8125 54.4091 56.3888 54.4091 54.625C54.4091 52.8612 55.81 51.4375 57.5455 51.4375C59.2809 51.4375 60.6818 52.8612 60.6818 54.625C60.6818 56.3888 59.2809 57.8125 57.5455 57.8125ZM28.2727 35.5L22 44V54.625H26.1818C26.1818 58.1525 28.9836 61 32.4545 61C35.9255 61 38.7273 58.1525 38.7273 54.625H51.2727C51.2727 58.1525 54.0745 61 57.5455 61C61.0164 61 63.8182 58.1525 63.8182 54.625H68V31.25C68 28.8913 66.1391 27 63.8182 27H34.5455V35.5H28.2727ZM63.8182 31.25V50.375H62.2291C61.0791 49.0788 59.4064 48.25 57.5455 48.25C55.6845 48.25 54.0118 49.0788 52.8618 50.375H38.7273V31.25H63.8182ZM49.1818 33.375L41.8636 40.8125L49.1818 48.25V42.9375H59.6364V38.6875H49.1818V33.375Z" fill="white"/>
</svg>
