<svg width="87" height="87" viewBox="0 0 87 87" fill="none" xmlns="http://www.w3.org/2000/svg">
<rect x="1.5" y="1.5" width="84" height="84" rx="42" fill="#1F1D2B" fill-opacity="0.6" stroke="white" stroke-width="3"/>
<path d="M59.3953 57.882V61.6C59.3953 62.767 58.9318 63.8861 58.1068 64.7113C57.2817 65.5364 56.1627 66 54.9959 66H32.9986C31.8318 66 30.7128 65.5364 29.8877 64.7113C29.0627 63.8861 28.5992 62.767 28.5992 61.6V53.46C27.5873 53.064 26.2895 52.8 24.1997 52.8C23.6163 52.8 23.0568 52.5682 22.6443 52.1556C22.2318 51.7431 22 51.1835 22 50.6C22 50.0165 22.2318 49.4569 22.6443 49.0444C23.0568 48.6318 23.6163 48.4 24.1997 48.4C26.0035 48.4 27.4333 48.576 28.5992 48.862V44.66C27.5873 44.264 26.2895 44 24.1997 44C23.6163 44 23.0568 43.7682 22.6443 43.3556C22.2318 42.9431 22 42.3835 22 41.8C22 41.2165 22.2318 40.6569 22.6443 40.2444C23.0568 39.8318 23.6163 39.6 24.1997 39.6C26.0035 39.6 27.4333 39.776 28.5992 40.062V35.86C27.5873 35.464 26.2895 35.2 24.1997 35.2C23.6163 35.2 23.0568 34.9682 22.6443 34.5556C22.2318 34.1431 22 33.5835 22 33C22 32.4165 22.2318 31.8569 22.6443 31.4444C23.0568 31.0318 23.6163 30.8 24.1997 30.8C26.0035 30.8 27.4333 30.976 28.5992 31.262V26.4C28.5992 25.233 29.0627 24.1139 29.8877 23.2887C30.7128 22.4636 31.8318 22 32.9986 22H54.9959C56.1627 22 57.2817 22.4636 58.1068 23.2887C58.9318 24.1139 59.3953 25.233 59.3953 26.4V31.152C63.3108 31.834 64.9826 33.286 65.3566 33.638C66.2145 34.496 66.2145 35.904 65.3566 36.762C64.4987 37.62 63.3548 37.598 62.233 36.762C62.233 36.762 59.9453 35.2 54.9959 35.2C52.2242 35.2 50.3985 36.102 48.2867 37.18C45.999 38.302 43.4253 39.6 39.5978 39.6C38.8059 39.6 38.08 39.6 37.3981 39.512V35.09C38.058 35.2 38.7839 35.2 39.5978 35.2C42.3695 35.2 44.1952 34.298 46.307 33.242C48.5947 32.098 51.1904 30.8 54.9959 30.8V26.4H32.9986V61.6H54.9959V57.2C58.2955 57.2 59.3293 57.838 59.3953 57.882ZM54.9959 39.6C51.1904 39.6 48.5947 40.898 46.307 42.042C44.1952 43.098 42.3695 44 39.5978 44C38.7839 44 38.058 44 37.3981 43.89V48.312C38.08 48.4 38.8059 48.4 39.5978 48.4C43.4253 48.4 45.999 47.102 48.2867 45.98C50.3985 44.924 52.2242 44 54.9959 44C59.9453 44 62.233 45.562 62.233 45.562C63.3548 46.42 64.4987 46.42 65.3566 45.562C66.2145 44.704 66.2145 43.318 65.3566 42.438C64.8946 41.976 62.145 39.6 54.9959 39.6ZM54.9959 48.4C51.1904 48.4 48.5947 49.698 46.307 50.842C44.1952 51.898 42.3695 52.8 39.5978 52.8C38.7839 52.8 38.058 52.8 37.3981 52.69V57.112C38.08 57.2 38.8059 57.2 39.5978 57.2C43.4253 57.2 45.999 55.902 48.2867 54.78C50.3985 53.724 52.2242 52.8 54.9959 52.8C59.9453 52.8 62.233 54.362 62.233 54.362C63.3548 55.22 64.4987 55.22 65.3566 54.362C66.2145 53.504 66.2145 52.118 65.3566 51.238C64.8946 50.776 62.145 48.4 54.9959 48.4Z" fill="white"/>
</svg>
