<svg width="87" height="87" viewBox="0 0 87 87" fill="none" xmlns="http://www.w3.org/2000/svg">
<rect x="1.5" y="1.5" width="84" height="84" rx="42" fill="#1F1D2B" fill-opacity="0.7" stroke="white" stroke-width="3"/>
<path d="M63.3125 65H25.6875C24.9316 65 24.2948 64.741 23.7769 64.2231C23.259 63.7052 23 63.0684 23 62.3125V24.6875C23 23.9316 23.259 23.2948 23.7769 22.7769C24.2948 22.259 24.9316 22 25.6875 22H63.3125C64.0684 22 64.7052 22.266 65.2231 22.7979C65.741 23.3298 66 23.9596 66 24.6875V62.3125C66 63.0684 65.741 63.7052 65.2231 64.2231C64.7052 64.741 64.0684 65 63.3125 65ZM63.3125 27.375C63.3125 26.6191 63.0535 25.9823 62.5356 25.4644C62.0177 24.9465 61.3809 24.6875 60.625 24.6875H28.375C27.6191 24.6875 26.9823 24.9465 26.4644 25.4644C25.9465 25.9823 25.6875 26.6191 25.6875 27.375V38.125L27.2412 34.5557C27.3812 34.0518 27.6891 33.6248 28.165 33.2749C28.641 32.925 29.1449 32.75 29.6768 32.75H35.0518C35.5557 32.75 36.0456 32.925 36.5215 33.2749C36.9974 33.6248 37.3193 34.0518 37.4873 34.5557L37.9072 35.4375H59.2812C59.6452 35.4375 59.9601 35.5705 60.2261 35.8364C60.492 36.1024 60.625 36.4173 60.625 36.7812C60.625 37.1452 60.492 37.4601 60.2261 37.7261C59.9601 37.992 59.6452 38.125 59.2812 38.125H25.6875V56.9375L27.2412 53.3682C27.3812 52.8643 27.6891 52.4373 28.165 52.0874C28.641 51.7375 29.1449 51.5625 29.6768 51.5625H35.0518C35.5557 51.5625 36.0456 51.7375 36.5215 52.0874C36.9974 52.4373 37.3193 52.8643 37.4873 53.3682L37.9072 54.25H63.3125V27.375ZM39.335 47.9932C39.4749 47.4893 39.7829 47.0623 40.2588 46.7124C40.7347 46.3625 41.2386 46.1875 41.7705 46.1875H47.1455C47.6494 46.1875 48.1393 46.3625 48.6152 46.7124C49.0911 47.0623 49.4131 47.4893 49.5811 47.9932L50.001 48.875H59.2812C59.6452 48.875 59.9601 49.008 60.2261 49.2739C60.492 49.5399 60.625 49.8548 60.625 50.2188C60.625 50.5827 60.492 50.8976 60.2261 51.1636C59.9601 51.4295 59.6452 51.5625 59.2812 51.5625H37.7812L39.335 47.9932ZM51.4287 42.6182C51.5687 42.1143 51.8766 41.6873 52.3525 41.3374C52.8285 40.9875 53.3324 40.8125 53.8643 40.8125H59.2393C59.7432 40.8125 60.2331 40.9875 60.709 41.3374C61.1849 41.6873 61.5068 42.1143 61.6748 42.6182L63.3125 46.1875H49.875L51.4287 42.6182ZM47.1875 43.5H29.7188C29.3548 43.5 29.0399 43.367 28.7739 43.1011C28.508 42.8351 28.375 42.5202 28.375 42.1562C28.375 41.7923 28.508 41.4774 28.7739 41.2114C29.0399 40.9455 29.3548 40.8125 29.7188 40.8125H47.1875C47.5514 40.8125 47.8664 40.9455 48.1323 41.2114C48.3983 41.4774 48.5312 41.7923 48.5312 42.1562C48.5312 42.5202 48.3983 42.8351 48.1323 43.1011C47.8664 43.367 47.5514 43.5 47.1875 43.5ZM29.7188 46.1875H35.0938C35.4577 46.1875 35.7726 46.3205 36.0386 46.5864C36.3045 46.8524 36.4375 47.1673 36.4375 47.5312C36.4375 47.8952 36.3045 48.2101 36.0386 48.4761C35.7726 48.742 35.4577 48.875 35.0938 48.875H29.7188C29.3548 48.875 29.0399 48.742 28.7739 48.4761C28.508 48.2101 28.375 47.8952 28.375 47.5312C28.375 47.1673 28.508 46.8524 28.7739 46.5864C29.0399 46.3205 29.3548 46.1875 29.7188 46.1875ZM59.2812 32.75H37.7812L39.335 29.1807C39.4749 28.6768 39.7829 28.2498 40.2588 27.8999C40.7347 27.55 41.2386 27.375 41.7705 27.375H47.1455C47.6494 27.375 48.1393 27.55 48.6152 27.8999C49.0911 28.2498 49.4131 28.6768 49.5811 29.1807L50.001 30.0625H59.2812C59.6452 30.0625 59.9601 30.1955 60.2261 30.4614C60.492 30.7274 60.625 31.0423 60.625 31.4062C60.625 31.7702 60.492 32.0851 60.2261 32.3511C59.9601 32.617 59.6452 32.75 59.2812 32.75ZM35.0938 30.0625H29.7188C29.3548 30.0625 29.0399 29.9295 28.7739 29.6636C28.508 29.3976 28.375 29.0827 28.375 28.7188C28.375 28.3548 28.508 28.0399 28.7739 27.7739C29.0399 27.508 29.3548 27.375 29.7188 27.375H35.0938C35.4577 27.375 35.7726 27.508 36.0386 27.7739C36.3045 28.0399 36.4375 28.3548 36.4375 28.7188C36.4375 29.0827 36.3045 29.3976 36.0386 29.6636C35.7726 29.9295 35.4577 30.0625 35.0938 30.0625Z" fill="white"/>
</svg>
