<svg width="118" height="118" viewBox="0 0 118 118" fill="none" xmlns="http://www.w3.org/2000/svg">
<path fill-rule="evenodd" clip-rule="evenodd" d="M55.7159 2.90285C56.7494 -0.42595 61.2506 -0.42595 62.2841 2.90285L68.5619 23.119C69.0243 24.6078 70.35 25.6158 71.846 25.6158H92.1614C95.5063 25.6158 96.8975 30.0947 94.1909 32.1522L77.7558 44.6464C76.5452 45.5664 76.0388 47.1974 76.5012 48.6862L78.5669 55.3379H108.438C113.495 55.3379 117.594 59.4368 117.594 64.4932C117.594 69.5495 113.495 73.6484 108.438 73.6484H95.6211V88.2969C95.6211 92.3419 92.3419 95.6211 88.2969 95.6211H86.832V73.6484H83.1699V102.945C83.1699 106.99 79.8908 110.27 75.8457 110.27H74.3809V73.6484H69.9863V110.27C69.9863 114.315 66.7072 117.594 62.6621 117.594H61.1973V73.6484H56.8027V117.594H55.3379C51.2928 117.594 48.0137 114.315 48.0137 110.27V73.6484H43.6191V110.27H42.1543C38.1092 110.27 34.8301 106.99 34.8301 102.945V73.6484H31.168V95.6211H29.7031C25.6581 95.6211 22.3789 92.3419 22.3789 88.2969V73.6484H9.56152C4.50538 73.6484 0.40625 69.5495 0.40625 64.4932C0.40625 59.4368 4.50538 55.3379 9.56152 55.3379H39.4331L41.4988 48.6862C41.9612 47.1974 41.4548 45.5664 40.2442 44.6464L23.8091 32.1522C21.1025 30.0947 22.4937 25.6158 25.8386 25.6158H46.154C47.65 25.6158 48.9757 24.6078 49.4381 23.119L55.7159 2.90285ZM56.9104 23.6835C57.5681 21.6592 60.4319 21.6592 61.0896 23.6835L63.6045 31.4224C63.8984 32.3278 64.7421 32.9407 65.6941 32.9407H73.8312C75.9598 32.9407 76.8449 35.6646 75.1229 36.9156L68.5397 41.6987C67.7694 42.2582 67.4472 43.2499 67.7415 44.1552L70.256 51.8943C70.9137 53.9186 68.5969 55.602 66.8746 54.351L60.2914 49.5679C59.5214 49.0084 58.4786 49.0084 57.7086 49.5679L51.1254 54.351C49.4031 55.602 47.0863 53.9186 47.744 51.8943L50.2585 44.1552C50.5528 43.2499 50.2306 42.2582 49.4603 41.6987L42.8771 36.9156C41.1551 35.6646 42.0402 32.9407 44.1688 32.9407H52.3059C53.2579 32.9407 54.1016 32.3278 54.3955 31.4224L56.9104 23.6835ZM50.8146 61.3503C50.4742 61.3503 50.222 61.4621 50.0586 61.6858C49.8984 61.9095 49.8183 62.255 49.8183 62.7222V65.8014C49.8183 66.2686 49.8984 66.6141 50.0586 66.8378C50.222 67.0615 50.4742 67.1732 50.8146 67.1732C51.1519 67.1732 51.4004 67.0615 51.5606 66.8378C51.6518 66.7128 51.7176 66.5497 51.758 66.3485C51.7899 66.1899 51.806 66.0075 51.806 65.8014V65.4909H52.7723V65.8014C52.7723 66.5424 52.6121 67.0931 52.2916 67.4536C51.9712 67.8141 51.4787 67.9943 50.8146 67.9943C50.1469 67.9943 49.653 67.8157 49.3326 67.4586C49.0122 67.0981 48.852 66.5458 48.852 65.8014V62.7222C48.852 61.9778 49.0122 61.427 49.3326 61.07C49.653 60.7095 50.1469 60.5292 50.8146 60.5292C51.4787 60.5292 51.9712 60.7095 52.2916 61.07C52.6121 61.4304 52.7723 61.9812 52.7723 62.7222V62.8223H51.806V62.7222C51.806 62.255 51.7258 61.9095 51.5656 61.6858C51.4054 61.4621 51.1551 61.3503 50.8146 61.3503ZM28.5244 60.7345V67.7891H29.4907V61.7609L31.1079 67.7891H32.6249V60.7345H31.6636V66.7627L30.0464 60.7345H28.5244ZM34.0319 60.7345V67.7891H37.2963V66.9679H34.9982V64.5096H37.1911V63.6885H34.9982V61.5556H37.2963V60.7345H34.0319ZM39.5994 65.1855H41.1165L40.3554 61.811L39.5994 65.1855ZM38.0072 67.7891L39.7446 60.7345H40.9713L42.7036 67.7891H41.7123L41.3017 65.9966H39.4142L39.0036 67.7891H38.0072ZM44.6913 61.5556H45.6226C46.2867 61.5556 46.6189 61.8861 46.6189 62.547V62.9575C46.6189 63.6218 46.2867 63.9539 45.6226 63.9539H44.6913V61.5556ZM44.6913 64.775H45.5224C45.8761 64.775 46.13 64.8567 46.2835 65.0203C46.3679 65.1103 46.429 65.2304 46.4669 65.3808C46.498 65.504 46.5138 65.6476 46.5138 65.8114V67.1532C46.5138 67.2299 46.527 67.3419 46.5538 67.4887C46.5674 67.5621 46.5807 67.6244 46.5935 67.6752C46.5975 67.6911 46.6015 67.706 46.6054 67.7198C46.6079 67.7283 46.6104 67.7364 46.6128 67.744C46.6182 67.7612 46.6236 67.7762 46.6289 67.7891H47.6303C47.5935 67.729 47.5584 67.6255 47.5252 67.4786L47.5184 67.4418L47.5176 67.4391L47.5083 67.3883L47.5026 67.3537L47.494 67.2914C47.4847 67.2163 47.4801 67.1468 47.4801 67.0831V65.8615C47.4801 65.4242 47.4 65.0854 47.2398 64.8451C47.1611 64.7228 47.0592 64.6216 46.9343 64.5414C46.8539 64.4898 46.7641 64.4469 46.6643 64.4125L46.6125 64.3957C46.5742 64.3841 46.5345 64.3735 46.4938 64.3644C46.8374 64.2609 47.1046 64.0806 47.2948 63.8237C47.4851 63.5667 47.5802 63.2613 47.5802 62.9074V62.4969C47.5802 61.3219 46.9276 60.7345 45.6226 60.7345H43.725V67.7891H44.6913V64.775ZM53.9789 60.7345V67.7891H57.2433V66.9679H54.9452V64.5096H57.1382V63.6885H54.9452V61.5556H57.2433V60.7345H53.9789ZM58.3448 67.7891V60.7345H59.3111V66.9679H61.424V67.7891H58.3448ZM62.3402 60.7345V67.7891H65.6047V66.9679H63.3066V64.5096H65.4995V63.6885H63.3066V61.5556H65.6047V60.7345H62.3402ZM68.6638 64.5697H67.6725V66.9679H68.6638C69.0043 66.9679 69.2546 66.8794 69.4148 66.7026C69.432 66.6836 69.4485 66.6634 69.4638 66.6423C69.4753 66.6268 69.4864 66.6107 69.4967 66.594C69.5046 66.5812 69.5125 66.5679 69.5196 66.5544C69.6133 66.3822 69.6602 66.1545 69.6602 65.8715V65.6662C69.6602 65.2923 69.5783 65.0169 69.4148 64.8401C69.2546 64.6598 69.0043 64.5697 68.6638 64.5697ZM68.5036 61.5556H67.6725V63.7486H68.5036C69.1645 63.7486 69.4949 63.4165 69.4949 62.7522V62.547C69.4949 61.8861 69.1645 61.5556 68.5036 61.5556ZM68.5036 60.7345C69.8086 60.7345 70.4613 61.3219 70.4613 62.4969V62.7022C70.4613 63.0426 70.3729 63.343 70.1959 63.6034C70.1279 63.7033 70.0507 63.7924 69.9642 63.8702C69.825 63.995 69.662 64.0914 69.4749 64.1591C69.6326 64.1951 69.775 64.2478 69.9019 64.3176C70.0707 64.4102 70.212 64.5327 70.3261 64.6849C70.334 64.6953 70.3416 64.706 70.3491 64.7168C70.3531 64.7227 70.3571 64.7285 70.3611 64.7344L70.3883 64.7759C70.3994 64.7936 70.4101 64.8115 70.4205 64.8297C70.4988 64.9683 70.555 65.1242 70.5886 65.2971C70.5943 65.3257 70.5993 65.3547 70.6036 65.3842C70.6093 65.4244 70.6143 65.4657 70.6179 65.5078C70.6236 65.575 70.6265 65.6445 70.6265 65.7162V65.9215C70.6265 67.1666 69.9724 67.7891 68.6638 67.7891H66.7062V60.7345H68.5036ZM71.763 66.7627V67.7891H72.7894V66.7627H71.763ZM75.6608 61.4229C75.5228 61.4785 75.4101 61.5662 75.3229 61.6858C75.1626 61.9095 75.0825 62.255 75.0825 62.7222V65.8014C75.0825 65.8772 75.0847 65.9498 75.089 66.0192C75.0929 66.0871 75.099 66.152 75.1072 66.2137C75.1172 66.2892 75.1301 66.36 75.1462 66.4261C75.1862 66.5921 75.2452 66.7292 75.3229 66.8378C75.4863 67.0615 75.7384 67.1732 76.0789 67.1732C76.4161 67.1732 76.6647 67.0615 76.8249 66.8378C76.9526 66.6631 77.0305 66.4143 77.0584 66.0912C77.0638 66.0311 77.067 65.9686 77.0688 65.9035L77.0691 65.8815L77.0702 65.8014V65.4909H78.0365V65.8014C78.0365 66.5424 77.8763 67.0931 77.5559 67.4536C77.2354 67.8141 76.743 67.9943 76.0789 67.9943C75.4112 67.9943 74.9173 67.8157 74.5969 67.4586C74.2764 67.0981 74.1162 66.5458 74.1162 65.8014V62.7222C74.1162 61.9778 74.2764 61.427 74.5969 61.07C74.9173 60.7095 75.4112 60.5292 76.0789 60.5292C76.743 60.5292 77.2354 60.7095 77.5559 61.07C77.8763 61.4304 78.0365 61.9812 78.0365 62.7222V62.8223H77.0702V62.7222C77.0702 62.4921 77.0509 62.2916 77.0119 62.1207C76.9719 61.9444 76.9111 61.7993 76.8299 61.6858C76.6697 61.4621 76.4193 61.3503 76.0789 61.3503C75.9204 61.3503 75.781 61.3745 75.6608 61.4229ZM80.4498 61.6858C80.6132 61.4621 80.8654 61.3503 81.2058 61.3503C81.2831 61.3503 81.3557 61.3561 81.4236 61.3675C81.5981 61.397 81.7423 61.4646 81.8556 61.5701C81.8925 61.6046 81.9265 61.6432 81.9568 61.6858C82.1171 61.9095 82.1972 62.255 82.1972 62.7222V65.8014C82.1972 66.2686 82.1153 66.6141 81.9518 66.8378C81.7916 67.0615 81.5431 67.1732 81.2058 67.1732C81.0585 67.1732 80.9272 67.1523 80.8132 67.1105C80.7627 67.092 80.7159 67.0695 80.6719 67.0429C80.5853 66.9903 80.5113 66.922 80.4498 66.8378C80.2896 66.6141 80.2095 66.2686 80.2095 65.8014V62.7222C80.2095 62.255 80.2896 61.9095 80.4498 61.6858ZM82.6828 61.07C82.3624 60.7095 81.8699 60.5292 81.2058 60.5292C80.8857 60.5292 80.6057 60.5705 80.3658 60.6533C80.3082 60.6732 80.2531 60.6953 80.2002 60.7198C80.1498 60.7433 80.1015 60.7688 80.0553 60.7964C79.9295 60.8716 79.8189 60.9628 79.7238 61.07C79.4034 61.427 79.2432 61.9778 79.2432 62.7222V65.8014C79.2432 66.5458 79.4034 67.0981 79.7238 67.4586C80.0443 67.8157 80.5381 67.9943 81.2058 67.9943C81.8699 67.9943 82.3624 67.8141 82.6828 67.4536C83.0033 67.0931 83.1635 66.5424 83.1635 65.8014V62.7222C83.1635 61.9812 83.0033 61.4304 82.6828 61.07ZM84.5704 67.7891V60.7345H86.0674L87.3792 66.4673L88.691 60.7345H90.193V67.7891H89.3068V61.6257L87.8899 67.7891H86.8685L85.4516 61.6257V67.7891H84.5704Z" fill="#FF7551"/>
</svg>
