<svg width="87" height="87" viewBox="0 0 87 87" fill="none" xmlns="http://www.w3.org/2000/svg">
<rect x="1.5" y="1.5" width="84" height="84" rx="42" fill="#1F1D2B" fill-opacity="0.7" stroke="white" stroke-width="3"/>
<path d="M64.3548 49.171C64.0958 48.431 63.3928 47.95 62.5603 47.95H49.2588C48.4078 47.95 47.7233 48.431 47.4458 49.171L44.8003 56.7745L44.8188 66.968C44.8188 67.671 45.3923 68.3 46.0953 68.3H47.2423C47.9453 68.3 48.5003 67.597 48.5003 66.894V64.6H63.3003V66.894C63.3003 67.597 63.8738 68.3 64.5768 68.3H65.7053C66.4083 68.3 66.9818 67.671 66.9818 66.968L67.0003 64.4335V56.7745L64.3548 49.171ZM49.2588 49.8H62.5603L64.4658 55.35H47.3533L49.2588 49.8ZM48.5003 60.9C47.4828 60.9 46.6503 60.0675 46.6503 59.05C46.6503 58.0325 47.4828 57.2 48.5003 57.2C49.5178 57.2 50.3503 58.0325 50.3503 59.05C50.3503 60.0675 49.5178 60.9 48.5003 60.9ZM63.3003 60.9C62.2828 60.9 61.4503 60.0675 61.4503 59.05C61.4503 58.0325 62.2828 57.2 63.3003 57.2C64.3178 57.2 65.1503 58.0325 65.1503 59.05C65.1503 60.0675 64.3178 60.9 63.3003 60.9Z" fill="white"/>
<path d="M52.2 46.1H54.05V35H39.25V44.25H30V68.3H31.85V46.1H41.1V36.85H52.2V46.1Z" fill="white"/>
<path d="M35.5503 49.8H39.2503V53.5H35.5503V49.8ZM44.8003 38.7H48.5003V42.4H44.8003V38.7ZM35.5503 57.2H39.2503V60.9H35.5503V57.2ZM35.5503 64.6H39.2503V68.3H35.5503V64.6Z" fill="white"/>
<path d="M28.6192 33.5351L32.9664 32.3647L38.275 30.9394C39.0729 30.7213 39.548 29.9043 39.3385 29.1014C39.1254 28.3123 38.3034 27.8285 37.5005 28.038L32.1919 29.4632L25.2867 23.023L23.3653 23.555L27.5053 30.7257L22.5361 32.0589L20.5707 30.5147L19.12 30.9019L21.705 35.3793L23.3056 34.9517L28.6192 33.5351Z" fill="white"/>
</svg>
