<svg width="87" height="87" viewBox="0 0 87 87" fill="none" xmlns="http://www.w3.org/2000/svg">
<rect x="1.5" y="1.5" width="84" height="84" rx="42" fill="#1F1D2B" fill-opacity="0.6" stroke="white" stroke-width="3"/>
<path d="M61.375 65H40.375C39.6367 65 39.0146 64.7471 38.5088 64.2412C38.0029 63.7354 37.75 63.1133 37.75 62.375V54.5H46.9375C47.7852 54.5 48.5439 54.2539 49.2139 53.7617C49.8838 53.2695 50.3555 52.6406 50.6289 51.875H57.4375C57.793 51.875 58.1006 51.7451 58.3604 51.4854C58.6201 51.2256 58.75 50.918 58.75 50.5625C58.75 50.207 58.6201 49.8994 58.3604 49.6396C58.1006 49.3799 57.793 49.25 57.4375 49.25H50.875V44H57.4375C57.793 44 58.1006 43.8701 58.3604 43.6104C58.6201 43.3506 58.75 43.043 58.75 42.6875C58.75 42.332 58.6201 42.0244 58.3604 41.7646C58.1006 41.5049 57.793 41.375 57.4375 41.375H50.875V36.125H61.375C62.0859 36.125 62.7012 36.3848 63.2207 36.9043C63.7402 37.4238 64 38.0391 64 38.75V62.375C64 63.0859 63.7471 63.7012 63.2412 64.2207C62.7354 64.7402 62.1133 65 61.375 65ZM57.4375 57.125H44.3125C43.957 57.125 43.6494 57.2549 43.3896 57.5146C43.1299 57.7744 43 58.082 43 58.4375C43 58.793 43.1299 59.1006 43.3896 59.3604C43.6494 59.6201 43.957 59.75 44.3125 59.75H57.4375C57.793 59.75 58.1006 59.6201 58.3604 59.3604C58.6201 59.1006 58.75 58.793 58.75 58.4375C58.75 58.082 58.6201 57.7744 58.3604 57.5146C58.1006 57.2549 57.793 57.125 57.4375 57.125ZM45.625 51.875H24.625C23.8867 51.875 23.2646 51.6221 22.7588 51.1162C22.2529 50.6104 22 49.9883 22 49.25V25.625C22 24.9141 22.2529 24.2988 22.7588 23.7793C23.2646 23.2598 23.8867 23 24.625 23H45.625C46.3633 23 46.9854 23.2598 47.4912 23.7793C47.9971 24.2988 48.25 24.9141 48.25 25.625V49.25C48.25 49.9883 47.9902 50.6104 47.4707 51.1162C46.9512 51.6221 46.3359 51.875 45.625 51.875ZM41.6875 28.25H28.5625C28.207 28.25 27.8994 28.3799 27.6396 28.6396C27.3799 28.8994 27.25 29.207 27.25 29.5625C27.25 29.918 27.3799 30.2256 27.6396 30.4854C27.8994 30.7451 28.207 30.875 28.5625 30.875H41.6875C42.043 30.875 42.3506 30.7451 42.6104 30.4854C42.8701 30.2256 43 29.918 43 29.5625C43 29.207 42.8701 28.8994 42.6104 28.6396C42.3506 28.3799 42.043 28.25 41.6875 28.25ZM41.6875 36.125H28.5625C28.207 36.125 27.8994 36.2549 27.6396 36.5146C27.3799 36.7744 27.25 37.082 27.25 37.4375C27.25 37.793 27.3799 38.1006 27.6396 38.3604C27.8994 38.6201 28.207 38.75 28.5625 38.75H41.6875C42.043 38.75 42.3506 38.6201 42.6104 38.3604C42.8701 38.1006 43 37.793 43 37.4375C43 37.082 42.8701 36.7744 42.6104 36.5146C42.3506 36.2549 42.043 36.125 41.6875 36.125ZM41.6875 44H28.5625C28.207 44 27.8994 44.1299 27.6396 44.3896C27.3799 44.6494 27.25 44.957 27.25 45.3125C27.25 45.668 27.3799 45.9756 27.6396 46.2354C27.8994 46.4951 28.207 46.625 28.5625 46.625H41.6875C42.043 46.625 42.3506 46.4951 42.6104 46.2354C42.8701 45.9756 43 45.668 43 45.3125C43 44.957 42.8701 44.6494 42.6104 44.3896C42.3506 44.1299 42.043 44 41.6875 44Z" fill="white"/>
</svg>
