<svg width="38" height="49" viewBox="0 0 38 49" fill="none" xmlns="http://www.w3.org/2000/svg">
<path d="M9.99582 18.0831C9.74522 18.3335 9.44775 18.5321 9.12039 18.6675C8.79303 18.803 8.4422 18.8727 8.08792 18.8725C7.73364 18.8724 7.38286 18.8025 7.0556 18.6668C6.72833 18.5311 6.431 18.3323 6.18058 18.0817C5.93016 17.8311 5.73155 17.5336 5.59609 17.2063C5.46063 16.8789 5.39097 16.5281 5.3911 16.1738C5.39122 15.8195 5.46112 15.4687 5.59682 15.1415C5.73251 14.8142 5.93133 14.5169 6.18193 14.2665L19.6789 0.788373C20.1846 0.283543 20.8699 8.36776e-06 21.5845 8.33652e-06C22.299 8.30529e-06 22.9844 0.283543 23.4901 0.788373L36.9709 14.2692C37.477 14.7749 37.7615 15.461 37.7617 16.1765C37.762 16.892 37.478 17.5783 36.9722 18.0844C36.4665 18.5905 35.7804 18.875 35.0649 18.8752C34.3494 18.8755 33.6631 18.5915 33.157 18.0857L24.275 9.19835L24.275 26.9731C24.2749 32.5791 22.0931 37.9651 18.1915 41.9906C14.2898 46.016 8.97468 48.3651 3.37141 48.5402L2.6971 48.551C1.98175 48.551 1.2957 48.2669 0.789867 47.761C0.284035 47.2552 -0.000133601 46.5691 -0.000133632 45.8538C-0.000133664 45.1384 0.284035 44.4524 0.789867 43.9466C1.2957 43.4407 1.98175 43.1566 2.6971 43.1566C6.88424 43.1567 10.9085 41.534 13.9243 38.6293C16.9401 35.7247 18.7127 31.7642 18.8697 27.58L18.8805 26.9731L18.8805 9.20914L9.99582 18.0831Z" fill="#FF7551"/>
</svg>
