<svg width="35" height="45" viewBox="0 0 35 45" fill="none" xmlns="http://www.w3.org/2000/svg">
<path d="M9.2649 28.2395C9.03262 28.0074 8.75691 27.8234 8.4535 27.6978C8.15008 27.5722 7.82491 27.5077 7.49654 27.5078C7.16818 27.5079 6.84305 27.5727 6.53972 27.6985C6.23639 27.8242 5.96081 28.0085 5.72871 28.2408C5.4966 28.4731 5.31251 28.7488 5.18696 29.0522C5.06141 29.3556 4.99685 29.6808 4.99696 30.0092C4.99708 30.3375 5.06187 30.6626 5.18764 30.966C5.3134 31.2693 5.49768 31.5449 5.72995 31.777L18.2398 44.2693C18.7085 44.7372 19.3437 45 20.006 45C20.6683 45 21.3035 44.7372 21.7722 44.2693L34.267 31.7745C34.7361 31.3057 34.9998 30.6698 35 30.0067C35.0002 29.3435 34.737 28.7074 34.2683 28.2383C33.7995 27.7692 33.1636 27.5055 32.5004 27.5053C31.8372 27.5051 31.2012 27.7683 30.7321 28.2371L22.4997 36.4744L22.4997 19.9997C22.4996 14.8037 20.4774 9.8117 16.8611 6.08064C13.2448 2.34958 8.31845 0.172373 3.125 0.00999832L2.50001 -1.42062e-06C1.83698 -1.4496e-06 1.2011 0.263386 0.732265 0.73222C0.263431 1.20105 4.56961e-05 1.83693 4.56671e-05 2.49996C4.56381e-05 3.16299 0.263431 3.79886 0.732265 4.2677C1.2011 4.73653 1.83697 4.99992 2.50001 4.99992C6.3809 4.99978 10.1108 6.50381 12.906 9.19602C15.7013 11.8882 17.3442 15.559 17.4898 19.4372L17.4998 19.9997L17.4998 36.4644L9.2649 28.2395Z" fill="#FF7551"/>
</svg>
