<svg width="87" height="87" viewBox="0 0 87 87" fill="none" xmlns="http://www.w3.org/2000/svg">
<rect x="1.5" y="1.5" width="84" height="84" rx="42" fill="#1F1D2B" fill-opacity="0.7" stroke="white" stroke-width="3"/>
<path d="M62.6426 40.7407C59.9531 37.7906 56.3672 35.772 52.6318 34.9957C50.9883 34.5299 49.3447 34.2193 47.7012 34.0641C51.8848 28.9401 51.1377 21.1766 46.207 16.829C41.2764 12.4814 33.8057 13.2578 29.6221 18.3817C25.4385 23.5056 26.1856 31.2692 31.1162 35.6168C32.0127 36.3931 32.9092 37.0142 33.8057 37.3247V40.7407L31.4151 38.4116C29.3233 36.2378 25.8868 36.2378 23.6456 38.4116C21.5538 40.5854 21.4043 44.0014 23.4961 46.1752L30.3692 54.5598C30.668 56.7336 31.4151 58.7521 32.461 60.6154C33.208 62.0128 34.2539 63.4103 35.2998 64.4971V67.4473C35.2998 68.3789 35.8975 69 36.794 69H57.1142C57.8613 69 58.6084 68.2236 58.6084 67.4473V63.4103C61.4472 59.839 62.9414 55.3362 62.9414 50.8333V41.8276C63.0908 41.2065 62.9414 40.896 62.6426 40.7407ZM29.7715 26.1452C29.7715 21.0213 33.8057 16.9843 38.7363 17.1395C43.667 17.1395 47.5518 21.3318 47.4023 26.4558C47.4023 29.2507 46.207 31.735 44.1152 33.443V25.6794C44.0389 24.3338 43.4702 23.0695 42.5257 22.1456C41.5811 21.2218 40.3323 20.7084 39.0352 20.7108C36.3457 20.5555 33.9551 22.8845 33.9551 25.6794V33.7535C31.4151 32.2008 29.9209 29.2507 29.7715 26.1452ZM60.1025 50.678C60.2519 54.7151 58.9072 58.5969 56.3672 61.7023C56.0683 62.0128 55.7695 62.3234 55.7695 62.7892V66.0499H38.4375V63.8761C38.4375 63.4102 38.1387 62.9444 37.8399 62.6339C36.794 61.7023 35.8975 60.6154 35.1504 59.2179C34.2539 57.6652 33.6563 55.802 33.3574 53.9387C33.3574 53.6282 33.208 53.3176 33.0586 53.0071L25.8868 44.1567C25.4385 43.6908 25.1397 43.0698 25.1397 42.2934C25.1397 41.6723 25.4385 40.896 25.8868 40.4302C26.9327 39.4985 28.4268 39.4985 29.4727 40.4302L33.8057 44.933V49.5911L36.6446 48.0384V25.6794C36.794 24.5925 37.6904 23.6609 38.8858 23.8162C39.9317 23.8162 40.9776 24.5925 40.9776 25.6794V43.5356L43.9658 44.1567V37.0142C44.1152 36.8589 44.2647 36.8589 44.4141 36.7037C45.46 36.7037 46.5059 36.8589 47.5518 37.0142V44.933L49.9424 45.3988V37.3247L51.7353 37.7906C52.4824 37.9458 53.2295 38.2564 53.9766 38.5669V46.3305L56.3672 46.7963V39.6538C57.7119 40.2749 58.9072 41.2065 59.9531 42.2934L60.1025 50.678Z" fill="white"/>
</svg>
