<svg width="87" height="87" viewBox="0 0 87 87" fill="none" xmlns="http://www.w3.org/2000/svg">
<rect x="1.5" y="1.5" width="84" height="84" rx="42" fill="#1F1D2B" fill-opacity="0.7" stroke="white" stroke-width="3"/>
<path d="M21.9248 58.0262L25.0985 59.3526V37.9658L19.3433 51.8447C18.3722 54.2605 19.5327 57.0315 21.9248 58.0262ZM68.109 49.2631L56.3616 20.9132C56.0041 20.0659 55.4092 19.34 54.6486 18.8232C53.888 18.3063 52.9942 18.0204 52.0748 18C51.459 18 50.8195 18.0947 50.2037 18.3553L32.7485 25.5789C31.5961 26.0605 30.6807 26.9778 30.2016 28.1312C29.7225 29.2846 29.7186 30.5805 30.1906 31.7368L41.938 60.0868C42.419 61.2395 43.3363 62.1554 44.4898 62.6345C45.6434 63.1137 46.9396 63.1174 48.0958 62.6447L65.5274 55.421C66.6861 54.9465 67.609 54.0313 68.0931 52.8765C68.5772 51.7218 68.5829 50.4221 68.109 49.2631ZM46.3195 58.2631L34.5722 29.9368L51.98 22.7368H52.0037L63.7274 51.0394L46.3195 58.2631Z" fill="white"/>
<path d="M41.9856 35.171C43.2936 35.171 44.354 34.1106 44.354 32.8026C44.354 31.4945 43.2936 30.4341 41.9856 30.4341C40.6776 30.4341 39.6172 31.4945 39.6172 32.8026C39.6172 34.1106 40.6776 35.171 41.9856 35.171Z" fill="white"/>
<path d="M29.8594 58.2632C29.8594 60.8685 31.991 63 34.5962 63H38.0304L29.8594 43.2474V58.2632Z" fill="white"/>
</svg>
