<svg width="87" height="87" viewBox="0 0 87 87" fill="none" xmlns="http://www.w3.org/2000/svg">
<rect x="1.5" y="1.5" width="84" height="84" rx="42" fill="#1F1D2B" fill-opacity="0.7" stroke="white" stroke-width="3"/>
<path d="M33.4988 40.4635L32.3025 44H29.25L34.3705 30.25H37.9015L43 44H39.7908L38.5945 40.4635H33.4988ZM37.9922 38.4395L36.125 32.879H35.9903L34.123 38.4395H37.995H37.9922Z" fill="white"/>
<path fill-rule="evenodd" clip-rule="evenodd" d="M22.6109 23.6109C21.5795 24.6424 21 26.0413 21 27.5V46.75C21 48.2087 21.5795 49.6076 22.6109 50.6391C23.6424 51.6705 25.0413 52.25 26.5 52.25H34.75V60.5C34.75 61.9587 35.3295 63.3576 36.3609 64.3891C37.3924 65.4205 38.7913 66 40.25 66H54.0541V36H57.0047V47.3029H60V50.8534H57.0047V66H59.5C60.9587 66 62.3576 65.4205 63.3891 64.3891C64.4205 63.3576 65 61.9587 65 60.5V41.25C65 39.7913 64.4205 38.3924 63.3891 37.3609C62.3576 36.3295 60.9587 35.75 59.5 35.75H51.25V27.5C51.25 26.0413 50.6705 24.6424 49.6391 23.6109C48.6076 22.5795 47.2087 22 45.75 22H26.5C25.0413 22 23.6424 22.5795 22.6109 23.6109ZM24.5555 25.5555C25.0712 25.0397 25.7707 24.75 26.5 24.75H45.75C46.4793 24.75 47.1788 25.0397 47.6945 25.5555C48.2103 26.0712 48.5 26.7707 48.5 27.5V38.7809C50.4949 40.2131 51.8188 43.7791 51.8188 48.7687C51.8188 55.3811 49.5165 59.5179 46.4094 59.5179C43.397 59.5179 41.1717 55.6847 41.0095 49.5H26.5C25.7707 49.5 25.0712 49.2103 24.5555 48.6945C24.0397 48.1788 23.75 47.4793 23.75 46.75V27.5C23.75 26.7707 24.0397 26.0712 24.5555 25.5555ZM43.8484 49.5C43.9558 53.4906 44.9536 55.6091 46.4094 55.6091C47.9294 55.6091 48.98 53.2313 48.98 48.7687C48.98 46.9714 48.8071 45.5119 48.5 44.4119V46.75C48.5 47.4793 48.2103 48.1788 47.6945 48.6945C47.1788 49.2103 46.4793 49.5 45.75 49.5H43.8484Z" fill="white"/>
</svg>
