<svg width="87" height="87" viewBox="0 0 87 87" fill="none" xmlns="http://www.w3.org/2000/svg">
<rect x="1.5" y="1.5" width="84" height="84" rx="42" fill="#1F1D2B" fill-opacity="0.7" stroke="white" stroke-width="3"/>
<path d="M31.8335 34.7083H47.5002V38.625H31.8335V34.7083Z" fill="white"/>
<path d="M31.8335 42.5417H55.3335V46.4584H31.8335V42.5417Z" fill="white"/>
<path d="M31.8335 50.375H37.6889V54.2917H31.8335V50.375Z" fill="white"/>
<path d="M47.5 26.875L41.625 21V24.9167H27.9167C26.8779 24.9167 25.8817 25.3293 25.1472 26.0638C24.4126 26.7983 24 27.7946 24 28.8333V60.1667C24 61.2054 24.4126 62.2017 25.1472 62.9362C25.8817 63.6707 26.8779 64.0833 27.9167 64.0833H35.75V60.1667H27.9167V28.8333H41.625V32.75L47.5 26.875Z" fill="white"/>
<path d="M39.6665 62.125L45.5415 68V64.0833H59.2498C60.2886 64.0833 61.2848 63.6706 62.0193 62.9361C62.7539 62.2016 63.1665 61.2054 63.1665 60.1666V28.8333C63.1665 27.7945 62.7539 26.7983 62.0193 26.0638C61.2848 25.3293 60.2886 24.9166 59.2498 24.9166H51.4165V28.8333H59.2498V60.1666H45.5415V56.25L39.6665 62.125Z" fill="white"/>
</svg>
