<svg width="38" height="94" viewBox="0 0 38 94" fill="none" xmlns="http://www.w3.org/2000/svg">
<path d="M27.7659 75.468C28.0165 75.2175 28.314 75.0189 28.6413 74.8835C28.9687 74.748 29.3195 74.6784 29.6738 74.6785C30.0281 74.6786 30.3789 74.7485 30.7061 74.8842C31.0334 75.0199 31.3307 75.2187 31.5811 75.4693C31.8316 75.7199 32.0302 76.0174 32.1656 76.3448C32.3011 76.6721 32.3707 77.0229 32.3706 77.3772C32.3705 77.7315 32.3006 78.0823 32.1649 78.4095C32.0292 78.7368 31.8304 79.0341 31.5798 79.2846L18.0828 92.7627C17.5771 93.2675 16.8918 93.551 16.1772 93.551C15.4627 93.551 14.7773 93.2675 14.2716 92.7627L0.790839 79.2819C0.284728 78.7761 0.00025453 78.09 1.58392e-06 77.3745C-0.000251362 76.659 0.283736 75.9727 0.78949 75.4666C1.29524 74.9605 1.98133 74.676 2.69683 74.6758C3.41233 74.6755 4.09862 74.9595 4.60473 75.4653L13.4867 84.3527L13.4867 66.5779C13.4868 60.9719 15.6686 55.586 19.5703 51.5605C23.4719 47.535 28.787 45.186 34.3903 45.0108L35.0646 45C35.78 45 36.466 45.2842 36.9719 45.79C37.4777 46.2958 37.7619 46.9819 37.7619 47.6972C37.7619 48.4126 37.4777 49.0986 36.9719 49.6045C36.466 50.1103 35.78 50.3945 35.0646 50.3945C30.8775 50.3943 26.8533 52.017 23.8374 54.9217C20.8216 57.8263 19.049 61.7868 18.892 65.971L18.8812 66.5779L18.8812 84.3419L27.7659 75.468Z" fill="#FF7551"/>
<path d="M27.7659 18.0831C28.0165 18.3335 28.314 18.5321 28.6413 18.6675C28.9687 18.803 29.3195 18.8727 29.6738 18.8725C30.0281 18.8724 30.3789 18.8025 30.7061 18.6668C31.0334 18.5311 31.3307 18.3323 31.5811 18.0817C31.8316 17.8311 32.0302 17.5336 32.1656 17.2063C32.3011 16.8789 32.3707 16.5281 32.3706 16.1738C32.3705 15.8195 32.3006 15.4687 32.1649 15.1415C32.0292 14.8142 31.8304 14.5169 31.5798 14.2665L18.0828 0.788373C17.5771 0.283543 16.8918 8.36776e-06 16.1772 8.33652e-06C15.4627 8.30529e-06 14.7773 0.283543 14.2716 0.788373L0.790839 14.2692C0.284728 14.7749 0.00025453 15.461 1.58392e-06 16.1765C-0.000251362 16.892 0.283736 17.5783 0.78949 18.0844C1.29524 18.5905 1.98133 18.875 2.69683 18.8752C3.41233 18.8755 4.09862 18.5915 4.60473 18.0857L13.4867 9.19835L13.4867 26.9731C13.4868 32.5791 15.6686 37.9651 19.5703 41.9906C23.4719 46.016 28.787 48.3651 34.3903 48.5402L35.0646 48.551C35.78 48.551 36.466 48.2669 36.9719 47.761C37.4777 47.2552 37.7619 46.5691 37.7619 45.8538C37.7619 45.1384 37.4777 44.4524 36.9719 43.9466C36.466 43.4407 35.78 43.1566 35.0646 43.1566C30.8775 43.1567 26.8533 41.534 23.8374 38.6293C20.8216 35.7247 19.049 31.7642 18.892 27.58L18.8812 26.9731L18.8812 9.20914L27.7659 18.0831Z" fill="#FF7551"/>
</svg>
