<svg width="87" height="87" viewBox="0 0 87 87" fill="none" xmlns="http://www.w3.org/2000/svg">
<rect x="1.5" y="1.5" width="84" height="84" rx="42" fill="#1F1D2B" fill-opacity="0.7" stroke="white" stroke-width="3"/>
<path d="M36.712 29H34.02L30 45H32.056L32.984 41.25H37.616L38.52 45H40.644L36.712 29ZM33.254 39.644L35.288 30.9H35.378L37.346 39.646L33.254 39.644ZM42.476 45V29H44.476V45H42.476ZM42.85 47H28V27H48V36.56C50.3672 35.0314 53.2304 34.4688 56 34.988V31H52V27C51.9968 25.9401 51.5744 24.9245 50.8249 24.1751C50.0755 23.4256 49.0599 23.0032 48 23H44V19H40V23H36V19H32V23H28C26.9401 23.0032 25.9245 23.4256 25.1751 24.1751C24.4256 24.9245 24.0032 25.9401 24 27V31H20V35H24V39H20V43H24V47C24.0032 48.0599 24.4256 49.0755 25.1751 49.8249C25.9245 50.5744 26.9401 50.9968 28 51H32V55H36V51H40V55H44V51.016C43.3658 49.7622 42.9756 48.3994 42.85 47ZM47 46C47 44.6155 47.4105 43.2622 48.1797 42.111C48.9489 40.9599 50.0421 40.0627 51.3212 39.5328C52.6003 39.003 54.0078 38.8644 55.3656 39.1345C56.7235 39.4046 57.9708 40.0713 58.9497 41.0503C59.9287 42.0292 60.5954 43.2765 60.8655 44.6344C61.1356 45.9922 60.997 47.3997 60.4672 48.6788C59.9373 49.9579 59.0401 51.0511 57.889 51.8203C56.7378 52.5895 55.3845 53 54 53C53.0807 53.0003 52.1703 52.8194 51.3209 52.4677C50.4715 52.116 49.6997 51.6004 49.0497 50.9503C48.3996 50.3003 47.884 49.5285 47.5323 48.6791C47.1806 47.8297 46.9997 46.9193 47 46ZM54 57C49.328 57 40 59.346 40 64V67H68V64C68 59.344 58.672 57 54 57Z" fill="white"/>
</svg>
